<svg xmlns="http://www.w3.org/2000/svg" xmlns:xlink="http://www.w3.org/1999/xlink" width="255" height="129" viewBox="0 0 255 129">
  <defs>
    <clipPath id="clip-path">
      <rect id="Rectangle_1840" data-name="Rectangle 1840" width="255" height="129" transform="translate(99 77)"/>
    </clipPath>
  </defs>
  <g id="logo_mim_dark" transform="translate(-99 -77)" clip-path="url(#clip-path)">
    <g id="Group_1015" data-name="Group 1015" transform="translate(98.796 76.849)">
      <g id="Group_891" data-name="Group 891">
        <path fill="#ffffff" id="Path_962" data-name="Path 962" d="M8.832-49.446v-32.76h5.02l.4,4.755a11.1,11.1,0,0,1,4.227-4.1A12.127,12.127,0,0,1,24.419-83a13.422,13.422,0,0,1,6.7,1.585,10.428,10.428,0,0,1,4.326,4.821,12.542,12.542,0,0,1,4.722-4.689A12.892,12.892,0,0,1,46.677-83a12.608,12.608,0,0,1,9.379,3.534q3.5,3.534,3.5,10.865v19.154H54.074V-68.006q0-5.086-2.047-7.661a7.069,7.069,0,0,0-5.878-2.576,8.26,8.26,0,0,0-6.572,3.071Q36.968-72.1,36.968-66.42v16.974H31.42v-18.56q0-5.086-2.047-7.661A7.069,7.069,0,0,0,23.5-78.243a8.193,8.193,0,0,0-6.506,3.071Q14.38-72.1,14.38-66.42v16.974Zm70.01.793a14.848,14.848,0,0,1-6.8-1.387,9.428,9.428,0,0,1-4.029-3.7,9.945,9.945,0,0,1-1.321-5.02,8.9,8.9,0,0,1,3.831-7.728Q74.354-69.2,80.958-69.2h8.85v-.4q0-4.293-2.246-6.506a8.191,8.191,0,0,0-6.01-2.213A9.581,9.581,0,0,0,75.971-76.7a7.089,7.089,0,0,0-2.939,4.722H67.35a10.512,10.512,0,0,1,2.411-6.01,13.472,13.472,0,0,1,5.185-3.732A17.062,17.062,0,0,1,81.55-83q6.869,0,10.336,3.666a13.6,13.6,0,0,1,3.467,9.742v20.144H90.4l-.33-5.878A12.993,12.993,0,0,1,86.008-50.6a11.918,11.918,0,0,1-7.166,1.946Zm.859-4.689a9.035,9.035,0,0,0,5.449-1.651,10.54,10.54,0,0,0,3.467-4.293,13.37,13.37,0,0,0,1.189-5.548V-64.9H81.418q-4.887,0-6.9,1.684A5.251,5.251,0,0,0,72.5-59.023,5.081,5.081,0,0,0,74.384-54.9,8.141,8.141,0,0,0,79.7-53.343Zm38.836,4.689a16.044,16.044,0,0,1-8.553-2.246,15.289,15.289,0,0,1-5.68-6.142,18.991,18.991,0,0,1-2.014-8.85,18.543,18.543,0,0,1,2.047-8.817,15.42,15.42,0,0,1,5.68-6.076A16.184,16.184,0,0,1,118.6-83a14.959,14.959,0,0,1,7.133,1.651,11.9,11.9,0,0,1,4.821,4.623V-102.16L136.1-97v47.554h-5.02l-.528-5.416A15.338,15.338,0,0,1,126-50.569a13.521,13.521,0,0,1-7.464,1.915Zm.594-4.821a10.993,10.993,0,0,0,5.845-1.552,10.614,10.614,0,0,0,3.963-4.326,14.021,14.021,0,0,0,1.42-6.473,14.021,14.021,0,0,0-1.42-6.473,10.615,10.615,0,0,0-3.963-4.326,10.993,10.993,0,0,0-5.845-1.552,10.869,10.869,0,0,0-5.779,1.552,10.614,10.614,0,0,0-3.963,4.326,14.021,14.021,0,0,0-1.42,6.473,14.021,14.021,0,0,0,1.42,6.473,10.614,10.614,0,0,0,3.963,4.326,10.869,10.869,0,0,0,5.778,1.551Zm40.751,4.821A16.047,16.047,0,0,1,151.56-50.8a15.239,15.239,0,0,1-5.713-5.977,18.684,18.684,0,0,1-2.081-9.048,18.979,18.979,0,0,1,2.047-9.015,14.887,14.887,0,0,1,5.713-6.01A16.484,16.484,0,0,1,160.013-83a15.308,15.308,0,0,1,8.223,2.147,14.543,14.543,0,0,1,5.317,5.647,15.878,15.878,0,0,1,1.849,7.529q0,.726-.033,1.453t-.033,1.651H149.248A12.872,12.872,0,0,0,151-58.33a10.346,10.346,0,0,0,3.9,3.732,10.414,10.414,0,0,0,4.987,1.255,9.926,9.926,0,0,0,5.746-1.585A9.069,9.069,0,0,0,169-59.221h5.482a14.786,14.786,0,0,1-5.053,7.562,14.735,14.735,0,0,1-9.548,3.005Zm0-29.655a11.079,11.079,0,0,0-7.034,2.411,9.713,9.713,0,0,0-3.534,7.034H169.92a9.37,9.37,0,0,0-3.038-6.935,10.192,10.192,0,0,0-7-2.511ZM198.445-89.47a3.717,3.717,0,0,1-2.741-1.09,3.717,3.717,0,0,1-1.09-2.741,3.529,3.529,0,0,1,1.09-2.642A3.778,3.778,0,0,1,198.444-97a3.809,3.809,0,0,1,2.708,1.057,3.477,3.477,0,0,1,1.123,2.642,3.66,3.66,0,0,1-1.123,2.741,3.747,3.747,0,0,1-2.708,1.089ZM195.67-49.446v-32.76h5.548v32.759Zm15.191,0v-32.76h5.02l.33,5.878a11.9,11.9,0,0,1,4.557-4.887A12.838,12.838,0,0,1,227.505-83a12.411,12.411,0,0,1,9.28,3.534q3.467,3.534,3.467,10.865v19.154H234.7V-68.006q0-10.237-8.454-10.237a9.13,9.13,0,0,0-7.034,3.071Q216.4-72.1,216.4-66.421v16.974Z" transform="translate(-8.568 102.16)"/>
        <path fill="#ffffff" id="Path_963" data-name="Path 963" d="M8.32-49.446v-32.76h7.463l.727,4.425a11.631,11.631,0,0,1,4.194-3.8A12.443,12.443,0,0,1,26.747-83q7.6,0,10.766,5.878A12.725,12.725,0,0,1,42.3-81.413,13.868,13.868,0,0,1,48.873-83q6.407,0,9.841,3.831t3.434,11.228v18.493H53.694v-17.7a10.975,10.975,0,0,0-1.618-6.473,5.734,5.734,0,0,0-4.987-2.246,6.806,6.806,0,0,0-5.515,2.51,10.665,10.665,0,0,0-2.08,7v16.908H31.04v-17.7a10.808,10.808,0,0,0-1.651-6.473A5.9,5.9,0,0,0,24.3-75.865a6.736,6.736,0,0,0-5.449,2.51,10.665,10.665,0,0,0-2.08,7v16.908Zm74.171.793q-6.142,0-9.478-3.831T69.678-63.712V-82.206h8.388v17.7a10.5,10.5,0,0,0,1.717,6.473Q81.5-55.787,85.2-55.787a7.465,7.465,0,0,0,5.779-2.51,10.039,10.039,0,0,0,2.279-7V-82.206h8.454v32.759H94.247L93.587-55a11.518,11.518,0,0,1-4.392,4.623,12.816,12.816,0,0,1-6.7,1.718Zm27.872-.793v-32.76h7.463l.727,4.425a11.631,11.631,0,0,1,4.194-3.8A12.442,12.442,0,0,1,128.79-83q7.6,0,10.766,5.878a12.725,12.725,0,0,1,4.788-4.293A13.868,13.868,0,0,1,150.915-83q6.407,0,9.841,3.831t3.434,11.228v18.493h-8.454v-17.7a10.975,10.975,0,0,0-1.618-6.473,5.734,5.734,0,0,0-4.987-2.246,6.806,6.806,0,0,0-5.515,2.51,10.665,10.665,0,0,0-2.08,7v16.908h-8.454v-17.7a10.808,10.808,0,0,0-1.651-6.473,5.9,5.9,0,0,0-5.086-2.246,6.736,6.736,0,0,0-5.449,2.51,10.665,10.665,0,0,0-2.08,7V-49.45Zm81.3.793a14.3,14.3,0,0,1-6.473-1.387,11.666,11.666,0,0,1-4.491-3.9l-.925,4.491h-7.529V-94.42l8.454-7.74v24.644a15.046,15.046,0,0,1,4.194-3.831A12.482,12.482,0,0,1,191.666-83a15.378,15.378,0,0,1,8.256,2.246,16.089,16.089,0,0,1,5.746,6.142,18.262,18.262,0,0,1,2.114,8.85,18.072,18.072,0,0,1-2.114,8.817,15.9,15.9,0,0,1-5.746,6.076,15.552,15.552,0,0,1-8.256,2.215Zm-1.783-7.4a8.927,8.927,0,0,0,6.671-2.708,9.6,9.6,0,0,0,2.642-7,9.833,9.833,0,0,0-2.642-7.067A8.82,8.82,0,0,0,189.88-75.6a8.845,8.845,0,0,0-6.7,2.741,9.787,9.787,0,0,0-2.609,7.034,9.787,9.787,0,0,0,2.609,7.034,8.845,8.845,0,0,0,6.7,2.742Zm37.094,7.4a15.5,15.5,0,0,1-6.935-1.354,9.369,9.369,0,0,1-4.029-3.6,9.591,9.591,0,0,1-1.321-4.954,9.013,9.013,0,0,1,3.567-7.4q3.567-2.84,10.7-2.84h8.322v-.793a6.065,6.065,0,0,0-1.915-4.954,7.21,7.21,0,0,0-4.755-1.585,8.169,8.169,0,0,0-4.491,1.222,5.261,5.261,0,0,0-2.378,3.6h-8.256a11.521,11.521,0,0,1,2.411-6.208,13.5,13.5,0,0,1,5.383-4.062,18.546,18.546,0,0,1,7.4-1.42q7,0,11.03,3.5t4.029,9.907V-49.45h-7.2l-.793-5.284a12.209,12.209,0,0,1-4.062,4.359,11.976,11.976,0,0,1-6.705,1.721Zm1.915-6.6a7,7,0,0,0,5.647-2.378,11.547,11.547,0,0,0,2.543-5.878h-7.2q-3.368,0-4.821,1.222a3.781,3.781,0,0,0-1.453,3.005,3.462,3.462,0,0,0,1.453,2.972,6.367,6.367,0,0,0,3.834,1.052Zm29.457-32.033a5.345,5.345,0,0,1-3.8-1.387,4.584,4.584,0,0,1-1.486-3.5,4.481,4.481,0,0,1,1.486-3.467,5.421,5.421,0,0,1,3.8-1.354,5.421,5.421,0,0,1,3.8,1.354,4.481,4.481,0,0,1,1.486,3.467,4.583,4.583,0,0,1-1.486,3.5,5.345,5.345,0,0,1-3.8,1.382Zm-4.227,37.845V-82.206h8.454v32.759Z" transform="translate(-8.32 177.956)"/>
      </g>
    </g>
  </g>
</svg>
