<?xml version="1.0" standalone="no"?>
<!DOCTYPE svg PUBLIC "-//W3C//DTD SVG 20010904//EN"
 "http://www.w3.org/TR/2001/REC-SVG-20010904/DTD/svg10.dtd">
<svg version="1.0" xmlns="http://www.w3.org/2000/svg"
 width="1280.000000pt" height="447.000000pt" viewBox="0 0 1280.000000 447.000000"
 preserveAspectRatio="xMidYMid meet">

<g transform="translate(0.000000,447.000000) scale(0.100000,-0.100000)"
fill="#ffffff" stroke="none">
<path d="M2250 3664 c-12 -22 -19 -25 -47 -19 -29 5 -33 3 -33 -15 0 -18 -4
-20 -34 -14 -31 5 -34 4 -29 -14 4 -16 -1 -20 -31 -24 -25 -3 -36 0 -36 9 0
16 -15 17 -41 2 -15 -8 -24 -7 -35 2 -11 9 -18 8 -32 -5 -16 -14 -21 -14 -38
-1 -31 23 -50 18 -60 -17 -8 -25 -15 -33 -34 -33 -20 0 -25 -5 -25 -25 0 -20
-6 -26 -27 -28 -29 -3 -36 -16 -17 -28 7 -4 -1 -14 -21 -27 -27 -17 -33 -18
-41 -6 -8 11 -14 8 -33 -15 -15 -18 -26 -24 -30 -17 -11 18 -26 13 -37 -13
-10 -21 -16 -23 -50 -19 l-40 6 7 -40 c5 -36 4 -41 -16 -46 -18 -5 -21 -11
-16 -30 4 -17 0 -30 -14 -42 -15 -13 -17 -21 -9 -26 7 -4 9 -13 5 -20 -23 -46
-34 -60 -40 -50 -12 18 -25 12 -32 -14 -4 -18 -13 -25 -31 -25 -21 0 -24 -4
-21 -27 3 -24 -1 -28 -30 -34 -46 -9 -47 -13 -24 -53 20 -33 20 -36 4 -45 -14
-8 -15 -13 -4 -31 9 -15 10 -26 2 -40 -14 -26 -13 -40 4 -40 12 0 12 -6 3 -35
-7 -25 -15 -34 -25 -30 -11 4 -13 -2 -10 -30 3 -29 1 -35 -15 -35 -16 0 -18
-5 -14 -30 5 -23 1 -33 -18 -48 -32 -25 -31 -37 1 -58 14 -10 23 -23 20 -30
-4 -8 -9 -21 -12 -29 -4 -11 0 -15 16 -15 20 0 22 -4 18 -36 -4 -30 -2 -35 14
-31 14 4 18 -1 18 -18 0 -13 3 -30 6 -39 4 -11 1 -16 -10 -16 -19 0 -20 -7 -2
-40 12 -21 12 -26 -2 -36 -15 -11 -15 -14 2 -32 17 -19 17 -22 2 -44 -24 -34
-20 -46 18 -54 28 -5 35 -11 38 -33 2 -21 8 -25 26 -23 19 3 22 -1 22 -27 0
-31 13 -41 26 -20 3 6 14 -2 26 -21 14 -24 16 -35 8 -45 -8 -10 -4 -18 17 -35
23 -18 25 -23 13 -31 -13 -8 -11 -12 8 -26 16 -12 22 -25 22 -56 l0 -40 40 6
c27 3 40 1 40 -6 0 -7 4 -18 9 -26 8 -12 12 -12 25 -2 12 10 18 8 31 -13 19
-29 35 -34 35 -11 0 8 5 15 10 15 6 0 10 -4 10 -8 0 -5 12 -14 26 -21 21 -9
24 -14 14 -25 -9 -11 -6 -16 12 -22 13 -4 27 -7 32 -6 4 2 5 -9 2 -23 -6 -22
-3 -25 23 -25 25 0 30 -5 36 -33 11 -48 14 -50 52 -26 32 20 36 21 45 6 12
-22 38 -22 38 -1 0 13 6 12 35 -6 l35 -22 0 22 c0 18 4 21 23 16 12 -3 28 -6
35 -6 6 0 12 -9 12 -21 0 -17 5 -20 32 -17 20 2 33 -2 33 -9 0 -20 13 -25 34
-14 17 10 22 7 38 -19 22 -38 37 -38 59 -1 14 24 21 28 35 20 27 -14 39 -11
39 10 0 17 5 19 34 14 32 -5 34 -3 29 16 -4 16 -1 21 13 21 11 0 29 3 41 6 19
5 21 3 16 -17 l-6 -23 35 21 c32 19 36 19 45 4 10 -15 12 -14 31 2 20 18 21
18 51 -4 35 -26 41 -23 50 23 5 27 12 34 35 36 22 3 27 8 23 22 -4 15 2 20 25
25 22 5 29 11 25 25 -3 12 5 25 24 39 25 19 29 19 37 5 8 -14 12 -12 30 11 18
22 25 25 36 16 12 -10 17 -8 26 10 10 18 18 21 52 16 l40 -5 -4 44 c-2 28 1
44 8 44 6 0 17 7 25 16 10 13 10 17 -1 24 -11 7 -9 13 13 30 24 19 26 24 13
34 -13 9 -12 15 9 38 14 16 30 25 38 22 11 -4 17 4 22 24 5 23 10 29 26 25 16
-4 19 0 19 25 0 28 4 31 41 37 22 4 39 10 37 13 -31 61 -32 64 -19 84 10 15
10 23 0 34 -10 12 -9 21 6 46 l18 31 -23 -6 c-19 -5 -21 -3 -16 16 3 12 6 32
6 44 0 17 4 20 22 15 19 -5 21 -2 15 31 -5 32 -3 37 14 37 16 0 18 5 13 26 -5
21 -1 31 22 50 l29 24 -28 25 c-21 19 -26 30 -21 50 4 18 2 27 -10 31 -10 4
-16 18 -16 35 0 22 -5 29 -19 29 -14 0 -20 9 -23 35 -3 29 -1 35 14 35 22 0
23 9 2 38 -15 22 -15 24 2 38 18 13 18 15 2 28 -22 16 -22 34 -3 60 22 29 19
34 -19 42 -28 5 -35 11 -38 33 -2 18 -9 26 -23 26 -13 0 -22 8 -25 25 -4 17
-12 24 -25 23 -27 -3 -63 56 -43 69 10 6 8 12 -9 26 -16 12 -21 23 -16 40 4
18 1 24 -16 29 -20 5 -22 10 -16 46 l7 40 -41 -7 c-38 -6 -42 -4 -51 19 -10
27 -20 31 -37 14 -7 -7 -15 -2 -28 17 -15 23 -19 25 -29 13 -10 -13 -15 -12
-44 7 -19 13 -28 25 -22 29 16 10 1 25 -26 25 -21 0 -24 4 -22 28 3 23 -1 27
-21 27 -19 0 -26 7 -33 33 -9 35 -26 40 -62 17 -21 -14 -24 -14 -36 0 -16 20
-40 19 -40 -1 0 -14 -2 -14 -22 0 -27 19 -49 21 -45 4 1 -9 -8 -12 -28 -9 -39
4 -45 8 -38 28 5 13 1 15 -30 9 -33 -6 -37 -5 -37 14 0 22 -12 25 -39 11 -13
-7 -21 -3 -36 20 -25 36 -38 37 -55 3z m49 -38 c25 -40 27 -93 5 -124 -18 -26
-31 -28 -56 -5 -24 22 -24 89 2 131 11 17 22 32 24 32 2 0 14 -15 25 -34z
m-89 -57 c0 -28 5 -59 10 -70 7 -13 7 -19 1 -19 -21 0 -40 55 -34 98 8 58 23
53 23 -9z m150 -7 c0 -26 -7 -55 -14 -64 -21 -28 -25 -21 -11 19 7 21 10 53 7
72 -4 24 -2 32 6 27 7 -4 12 -28 12 -54z m-198 0 c-2 -11 4 -35 13 -53 13 -23
13 -30 3 -27 -7 3 -18 28 -24 57 -9 39 -9 51 -1 48 7 -2 11 -13 9 -25z m241
-4 c-9 -48 -21 -78 -32 -78 -5 0 -3 14 6 30 8 18 12 41 9 55 -5 18 -2 25 9 25
11 0 13 -8 8 -32z m-468 -48 c40 -78 -5 -133 -60 -74 -20 21 -25 38 -25 79 0
28 3 55 6 58 11 10 63 -32 79 -63z m38 24 c19 -39 22 -71 7 -94 -7 -11 -10 -6
-10 20 0 19 -7 48 -15 64 -17 31 -19 46 -7 46 4 0 15 -16 25 -36z m57 -71 c0
-7 -4 -13 -10 -13 -5 0 -10 11 -10 24 0 14 -5 37 -10 51 -6 15 -7 32 -3 38 6
10 32 -70 33 -100z m566 63 c-9 -19 -16 -48 -16 -66 0 -18 -4 -29 -10 -25 -17
11 -11 66 11 102 27 43 37 35 15 -11z m105 12 c3 -76 -24 -128 -66 -128 -47 0
-45 82 3 133 36 38 62 36 63 -5z m-569 -5 c3 -16 9 -37 13 -48 7 -18 6 -19 -8
-5 -20 18 -34 80 -19 80 5 0 12 -12 14 -27z m303 -5 c-4 -18 -13 -39 -20 -47
-11 -12 -12 -7 -5 25 5 21 10 42 10 47 0 4 5 7 11 7 7 0 8 -12 4 -32z m37 -31
c-3 -48 -6 -54 -23 -50 -22 6 -23 10 -4 43 8 14 14 35 15 48 0 13 3 21 8 19 4
-3 5 -30 4 -60z m88 54 c0 -5 -7 -22 -15 -37 l-15 -29 0 38 c0 26 4 37 15 37
8 0 15 -4 15 -9z m-500 -52 c0 -21 -5 -39 -11 -39 -6 0 -9 6 -6 13 2 6 1 24
-4 39 -7 28 -2 41 12 32 5 -3 9 -23 9 -45z m40 4 c0 -12 5 -25 10 -28 16 -10
12 -22 -10 -28 -18 -5 -20 0 -20 51 0 41 3 53 10 42 5 -8 10 -25 10 -37z m406
-5 l-11 -43 -3 33 c-4 39 4 66 17 58 5 -4 4 -24 -3 -48z m-677 -24 c6 -20 20
-47 32 -60 24 -25 20 -30 -10 -14 -17 9 -51 76 -51 100 0 25 20 6 29 -26z
m917 19 c-3 -10 -8 -30 -11 -45 -4 -15 -18 -34 -31 -42 -33 -23 -41 -20 -16 7
11 12 24 36 28 52 9 38 13 45 25 45 6 0 8 -8 5 -17z m-950 -50 c3 -16 18 -38
33 -50 14 -13 21 -23 14 -23 -15 0 -42 28 -66 69 -16 27 -16 31 -3 31 9 0 18
-12 22 -27z m988 18 c3 -4 -4 -17 -16 -27 -20 -18 -21 -18 -15 -1 4 10 7 23 7
28 0 11 17 12 24 0z m-336 -36 c209 -44 383 -154 515 -327 131 -171 190 -356
182 -563 -4 -121 -24 -208 -74 -325 -114 -270 -383 -478 -671 -521 -96 -14
-267 -7 -345 14 -201 55 -402 199 -507 363 -106 165 -142 291 -142 494 0 165
21 257 91 395 126 248 335 411 603 471 78 17 265 17 348 -1z m-659 -36 c13
-17 20 -33 16 -37 -7 -7 -55 46 -55 61 0 15 16 5 39 -24z m1011 26 c0 -12 -32
-54 -45 -59 -9 -3 -7 6 7 30 17 29 38 45 38 29z m-65 -25 c-10 -11 -22 -20
-27 -20 -10 0 24 38 36 39 5 1 1 -8 -9 -19z m-957 -77 c-9 -11 -16 -5 -35 34
-30 63 -29 64 12 19 28 -31 33 -42 23 -53z m1037 51 c-14 -20 -25 -44 -25 -53
0 -14 -2 -14 -15 0 -14 14 -12 19 17 52 42 47 55 48 23 1z m-1141 -17 c14 -21
26 -48 25 -60 -1 -17 -3 -14 -10 10 -5 18 -18 37 -29 43 -11 6 -20 20 -20 32
0 25 1 24 34 -25z m66 -39 c0 -5 -4 -8 -10 -8 -5 0 -10 5 -10 11 0 6 -9 22
-20 36 -11 14 -17 30 -13 36 5 9 53 -58 53 -75z m1108 32 c-25 -43 -37 -36
-18 11 7 16 19 29 27 29 10 0 8 -10 -9 -40z m62 26 c0 -8 -7 -17 -15 -20 -9
-3 -23 -23 -32 -43 -9 -21 -18 -32 -20 -25 -5 13 47 102 60 102 4 0 7 -6 7
-14z m-1241 -78 c14 -38 -4 -45 -19 -7 -7 17 -24 37 -37 46 -12 8 -23 22 -23
30 0 22 68 -37 79 -69z m1272 46 c-12 -9 -30 -32 -41 -52 -19 -36 -19 -36 -20
-9 0 19 11 38 37 62 21 20 39 31 41 25 3 -7 -5 -18 -17 -26z m-1379 -4 c42
-12 78 -55 78 -93 0 -34 -13 -41 -56 -27 -40 14 -74 60 -74 103 0 30 1 31 52
17z m1478 -10 c0 -60 -55 -120 -108 -120 -64 0 -9 115 63 133 38 9 45 7 45
-13z m-1519 -91 c12 -17 36 -37 53 -45 l31 -13 -29 -1 c-20 0 -38 10 -62 37
-19 20 -34 41 -34 45 0 18 20 6 41 -23z m1549 23 c0 -20 -69 -82 -91 -81 -23
0 -23 1 -4 12 11 7 33 26 50 44 30 32 45 40 45 25z m-1572 -63 c7 -11 27 -27
45 -34 18 -8 25 -14 15 -15 -22 0 -99 51 -92 62 8 13 18 9 32 -13z m1592 6 c0
-9 -83 -55 -97 -54 -11 0 -6 6 14 15 18 8 38 23 45 33 6 10 18 17 25 14 7 -3
13 -6 13 -8z m-1582 -60 c28 -19 32 -25 17 -25 -19 1 -65 32 -65 44 0 11 10 6
48 -19z m1553 -7 c-17 -11 -36 -18 -42 -16 -7 2 3 14 21 25 19 12 38 19 43 16
5 -3 -5 -14 -22 -25z m-1577 -23 c11 -8 28 -15 38 -15 20 0 22 -8 7 -30 -8
-12 -12 -12 -16 -2 -3 7 -21 24 -41 37 -20 14 -30 25 -22 25 8 0 24 -7 34 -15z
m1606 -3 c-13 -9 -33 -25 -43 -36 -16 -15 -21 -16 -28 -5 -14 22 -11 27 21 34
16 4 32 11 35 16 4 5 14 9 23 8 13 0 11 -4 -8 -17z m-1620 -30 c13 -10 21 -23
19 -30 -2 -6 -19 1 -39 18 -24 20 -30 30 -19 30 9 0 27 -8 39 -18z m1660 14
c0 -8 -72 -58 -77 -53 -7 8 47 57 63 57 8 0 14 -2 14 -4z m-1727 -16 c7 -5 27
-21 45 -36 17 -14 32 -31 32 -37 0 -7 -10 0 -23 14 -12 15 -34 30 -49 33 -16
4 -28 13 -28 21 0 17 6 19 23 5z m1767 -4 c0 -8 -14 -19 -31 -25 -18 -6 -38
-19 -45 -28 -7 -10 -14 -13 -14 -6 0 7 19 25 43 42 50 36 47 35 47 17z m-1737
-67 c37 -40 35 -54 -3 -19 -17 16 -44 31 -60 35 -41 9 -39 28 3 20 17 -4 44
-20 60 -36z m1777 32 c0 -5 -15 -15 -34 -21 -19 -6 -47 -21 -63 -33 l-28 -22
16 25 c24 37 109 77 109 51z m-1795 -67 c14 -15 25 -35 25 -44 0 -21 -41 -34
-81 -25 -30 7 -92 72 -83 87 3 4 30 8 60 8 47 0 59 -4 79 -26z m1858 20 c11
-12 -26 -62 -58 -80 -23 -12 -42 -15 -68 -10 -45 8 -49 32 -11 70 22 21 36 26
79 26 28 0 55 -3 58 -6z m-1947 -99 c16 -8 42 -15 57 -15 16 0 26 -4 22 -10
-10 -17 -56 -11 -91 11 -51 31 -41 42 12 14z m1944 7 c0 -12 -67 -42 -93 -42
-12 0 -29 5 -37 10 -11 7 -4 10 26 10 22 0 49 7 60 15 21 16 44 20 44 7z
m-1900 -61 c23 -4 30 -9 19 -13 -19 -8 -112 15 -102 26 4 4 17 4 28 1 11 -4
36 -10 55 -14z m1894 11 c9 -14 -94 -36 -107 -23 -8 8 -2 11 24 11 18 0 41 5
49 10 19 12 27 12 34 2z m-1874 -52 c0 -13 -60 -13 -80 0 -11 7 -2 10 33 10
26 0 47 -4 47 -10z m1855 1 c-10 -9 -48 -15 -75 -11 -19 3 27 18 60 19 15 1
20 -3 15 -8z m-1845 -47 c0 -21 -12 -21 -65 -3 l-50 17 58 -1 c39 0 57 -5 57
-13z m1857 10 c-3 -3 -20 -9 -39 -14 -18 -4 -41 -11 -50 -15 -13 -5 -18 -2
-18 11 0 16 9 19 56 21 31 1 54 0 51 -3z m-1913 -34 c42 -15 31 -29 -14 -18
-22 6 -40 14 -40 19 0 12 22 11 54 -1z m1920 1 c3 -5 -6 -12 -22 -15 -15 -4
-35 -9 -46 -13 -12 -3 -17 -1 -14 8 7 21 72 36 82 20z m-1973 -44 c-12 -12
-45 -1 -37 12 3 5 15 7 27 4 13 -4 17 -9 10 -16z m1999 8 c0 -8 -7 -15 -15
-15 -26 0 -18 20 13 29 1 1 2 -6 2 -14z m-1926 -20 c5 -13 2 -14 -17 -4 -32
17 -33 19 -10 19 12 0 23 -7 27 -15z m1856 1 c-38 -13 -54 -11 -30 4 8 6 26
10 40 9 22 0 20 -2 -10 -13z m-1872 -28 c19 -19 14 -30 -7 -18 -11 5 -40 10
-65 10 -25 0 -46 5 -46 10 0 14 104 12 118 -2z m1972 2 c18 -11 9 -13 -52 -10
-20 1 -46 -4 -57 -10 -26 -13 -29 4 -3 19 22 13 92 14 112 1z m-2001 -36 c67
-26 63 -64 -9 -85 -33 -10 -43 -9 -79 12 -23 12 -41 28 -41 34 0 8 64 48 87
54 2 1 20 -6 42 -15z m2002 -16 c22 -12 39 -25 39 -30 0 -12 -77 -48 -103 -48
-28 0 -77 35 -77 55 0 18 47 44 79 45 13 0 41 -10 62 -22z m-1981 -99 c-17
-15 -32 -19 -53 -15 -16 3 -38 6 -49 6 -10 0 -16 5 -13 10 4 6 23 7 45 4 21
-3 46 -1 56 5 32 18 40 12 14 -10z m1937 3 c50 4 50 -10 0 -17 -27 -4 -53 -2
-66 4 -31 17 -26 33 6 20 15 -6 42 -9 60 -7z m-1907 -22 c0 -14 -29 -27 -77
-35 -29 -4 -43 -3 -43 4 0 6 17 11 38 11 21 0 47 7 58 15 23 17 24 18 24 5z
m1835 -10 c3 -5 24 -10 46 -10 22 0 39 -5 39 -11 0 -16 -81 -2 -100 16 -9 10
-10 15 -3 15 7 0 15 -4 18 -10z m-1845 -44 c-21 -19 -83 -30 -77 -13 3 11 38
23 77 26 13 1 13 -1 0 -13z m1894 -7 c17 -15 1 -19 -37 -8 -51 14 -59 32 -10
23 21 -3 42 -10 47 -15z m-1855 -39 c1 -3 -25 -6 -57 -6 -57 -1 -57 -1 -20 10
20 6 43 17 50 24 10 10 14 9 20 -5 3 -10 7 -20 7 -23z m1821 4 l35 -13 -52 2
c-45 1 -53 4 -53 20 0 14 4 17 18 12 9 -4 33 -14 52 -21z m-1841 -33 c10 -6 2
-11 -27 -16 -50 -8 -83 6 -37 16 44 10 49 10 64 0z m1866 -12 c5 -5 -1 -9 -15
-9 -37 0 -70 11 -64 21 6 10 64 1 79 -12z m-1850 -29 c3 -5 1 -10 -4 -10 -6 0
-11 5 -11 10 0 6 2 10 4 10 3 0 8 -4 11 -10z m1862 -10 c2 0 3 -4 3 -10 0 -16
-23 -11 -50 10 l-25 20 35 -10 c19 -6 36 -10 37 -10z m-1931 -5 c-28 -15 -46
-13 -46 6 0 5 17 9 38 9 l37 0 -29 -15z m1841 9 c-3 -3 -12 -4 -19 -1 -8 3 -5
6 6 6 11 1 17 -2 13 -5z m-1762 -34 c4 -6 -7 -10 -27 -10 -18 -1 -44 -7 -58
-15 -31 -18 -59 -20 -43 -4 33 33 114 52 128 29z m1834 -11 c42 -25 33 -37
-13 -15 -19 9 -46 16 -60 16 -14 0 -26 5 -26 10 0 18 64 11 99 -11z m-1811
-31 c14 -18 -2 -54 -33 -74 -27 -18 -110 -23 -126 -7 -11 11 37 72 65 83 32
13 82 12 94 -2z m1814 -28 c21 -23 38 -45 38 -50 0 -5 -20 -12 -44 -15 -53 -8
-99 12 -121 55 -14 27 -14 30 3 39 9 6 32 11 51 11 27 0 42 -8 73 -40z m-1802
-60 c-15 -28 -110 -64 -110 -41 0 5 17 15 38 21 22 5 47 19 57 30 22 25 31 19
15 -10z m1680 5 c7 -8 30 -20 51 -25 48 -13 53 -35 7 -25 -45 10 -66 22 -78
45 -12 23 2 27 20 5z m15 -59 c14 -4 25 -13 25 -21 0 -11 -10 -8 -37 11 -38
25 -53 42 -53 58 0 5 9 -3 20 -17 11 -13 31 -28 45 -31z m-1665 36 c0 -12 -87
-71 -94 -65 -13 13 -5 22 24 28 17 4 36 15 43 26 12 19 27 25 27 11z m1640
-63 c13 -8 19 -18 14 -22 -13 -8 -74 40 -74 59 0 11 4 10 18 -3 9 -10 28 -25
42 -34z m-1643 5 c-28 -24 -47 -31 -47 -16 0 10 64 51 70 45 3 -3 -8 -16 -23
-29z m61 -2 c2 -7 -8 -16 -21 -21 -14 -6 -28 -15 -32 -20 -3 -6 -14 -11 -23
-11 -12 0 -6 10 18 34 36 34 51 39 58 18z m1568 -49 c-2 -3 -18 3 -35 11 -16
9 -37 16 -46 16 -18 0 -20 11 -4 27 9 9 22 4 50 -19 22 -17 37 -33 35 -35z
m-1590 -18 c-21 -14 -42 -22 -48 -19 -13 8 41 44 66 44 14 0 9 -7 -18 -25z
m1554 5 c38 -29 17 -34 -25 -5 -27 18 -32 25 -19 25 10 0 30 -9 44 -20z
m-1510 -20 c-19 -5 -42 -18 -51 -29 -17 -21 -39 -28 -39 -13 1 15 66 50 95 50
30 0 29 0 -5 -8z m1465 0 c4 -7 -3 -8 -22 -4 -38 9 -42 14 -10 14 14 0 29 -5
32 -10z m65 -42 c0 -16 -30 -7 -39 11 -10 17 -9 18 14 7 14 -6 25 -14 25 -18z
m-1515 6 c-16 -9 -42 -30 -56 -46 -14 -17 -29 -27 -32 -21 -3 5 9 26 27 46 24
27 42 37 62 37 l29 -1 -30 -15z m1458 -13 c11 -8 23 -24 29 -34 18 -34 0 -30
-32 7 -18 20 -38 36 -46 36 -8 0 -14 5 -14 11 0 14 39 2 63 -20z m-1393 -37
c0 -48 -47 -94 -96 -94 -39 0 -43 13 -18 66 18 37 55 63 92 64 19 0 22 -5 22
-36z m1360 9 c27 -24 57 -99 45 -111 -9 -9 -84 20 -102 40 -24 25 -38 71 -28
87 12 20 54 11 85 -16z m-60 -97 c20 -16 29 -31 24 -36 -6 -6 -24 5 -47 26
-28 27 -37 43 -37 67 l1 32 13 -30 c7 -17 28 -43 46 -59z m-1260 62 c-1 -22
-24 -55 -53 -78 -42 -33 -45 -16 -3 23 20 19 36 42 36 51 0 9 5 16 10 16 6 0
10 -6 10 -12z m30 -21 c0 -16 -52 -97 -62 -97 -16 0 -7 23 17 42 14 11 25 27
25 37 0 16 8 31 17 31 2 0 3 -6 3 -13z m1182 -53 c18 -19 26 -34 19 -38 -13
-8 -61 63 -60 89 1 20 1 20 6 0 3 -11 18 -34 35 -51z m-39 -7 c10 -16 16 -31
12 -35 -11 -11 -45 41 -44 68 0 15 3 19 6 10 3 -8 15 -28 26 -43z m-1128 -2
c-18 -34 -35 -46 -35 -25 0 15 42 71 49 64 3 -2 -3 -20 -14 -39z m52 1 c-13
-12 -29 -31 -35 -41 -21 -39 -21 -8 1 37 19 38 25 44 40 36 17 -9 17 -11 -6
-32z m1038 -9 c30 -57 21 -60 -22 -8 -23 28 -29 41 -21 49 14 14 12 16 43 -41z
m-1022 -32 c-26 -32 -43 -44 -43 -29 0 15 43 64 56 64 11 0 7 -10 -13 -35z
m990 3 c11 -14 18 -31 15 -38 -2 -6 -16 7 -31 30 -29 45 -16 51 16 8z m-958
-13 c-14 -13 -25 -33 -25 -45 0 -13 -7 -20 -20 -20 -18 0 -17 4 12 45 18 25
38 45 44 45 7 0 2 -11 -11 -25z m935 -19 c18 -27 26 -47 20 -51 -6 -4 -17 9
-25 29 -8 19 -25 42 -37 50 -18 13 -19 16 -6 16 10 0 31 -20 48 -44z m-904 -9
c-15 -19 -26 -44 -26 -55 0 -12 -6 -22 -14 -22 -11 0 -13 7 -6 29 15 54 33 77
63 80 4 1 -3 -14 -17 -32z m856 16 c14 -17 38 -76 38 -94 0 -5 -4 -9 -10 -9
-5 0 -10 8 -10 19 0 10 -11 35 -25 55 -14 20 -25 39 -25 41 0 11 18 4 32 -12z
m-766 -18 c11 -43 -5 -92 -37 -119 -17 -14 -34 -26 -39 -26 -11 0 -20 27 -20
61 0 76 80 146 96 84z m726 -4 c29 -26 33 -35 32 -80 -1 -71 -13 -80 -57 -39
-39 38 -56 93 -38 127 15 28 24 27 63 -8z m-73 -99 c7 -13 10 -28 8 -35 -2 -7
-14 9 -27 34 -17 35 -21 54 -15 75 8 29 8 29 15 -11 3 -22 12 -50 19 -63z
m-609 56 c0 -33 -36 -105 -47 -94 -3 3 2 21 11 40 9 19 16 46 16 60 0 14 5 26
10 26 6 0 10 -15 10 -32z m30 -38 c-9 -37 -15 -49 -23 -41 -8 8 -8 14 1 23 7
7 12 30 12 52 0 30 3 37 11 29 8 -8 8 -25 -1 -63z m92 65 c6 -6 -15 -91 -24
-101 -4 -3 -6 19 -5 50 2 50 12 68 29 51z m360 -42 c3 -27 1 -52 -4 -57 -4 -6
-8 0 -8 12 0 13 -7 36 -15 52 -11 22 -12 30 -2 33 23 10 25 7 29 -40z m79 -35
c6 -15 7 -33 3 -40 -10 -15 -23 47 -22 97 l1 30 4 -30 c2 -16 9 -42 14 -57z
m-488 15 c-3 -18 -10 -33 -15 -33 -6 0 -8 13 -4 31 3 17 6 39 6 48 1 14 2 14
9 1 5 -8 6 -30 4 -47z m443 49 c-3 -4 -1 -25 4 -46 6 -27 5 -36 -3 -33 -16 5
-22 87 -7 87 6 0 9 -4 6 -8z m-368 -60 c-12 -49 -33 -58 -23 -9 7 30 24 61 31
54 2 -1 -2 -22 -8 -45z m44 26 c-6 -7 -12 -31 -14 -52 -2 -22 -8 -41 -14 -43
-8 -3 -8 9 0 44 12 51 25 78 33 69 3 -3 1 -11 -5 -18z m122 0 c24 -34 20 -107
-7 -142 l-23 -28 -18 28 c-30 44 -32 104 -6 137 26 33 34 34 54 5z m99 -56 c4
-30 2 -42 -6 -39 -7 2 -11 16 -9 30 2 15 -4 42 -13 60 -16 32 -16 32 3 12 11
-11 22 -39 25 -63z m34 25 c4 -24 2 -37 -6 -37 -6 0 -11 10 -11 23 0 12 -3 33
-6 47 -5 19 -4 22 5 14 6 -6 14 -27 18 -47z m-217 24 c-5 -11 -10 -42 -10 -70
0 -28 -4 -51 -10 -51 -5 0 -10 13 -10 29 0 16 -2 36 -5 43 -3 8 4 26 15 41 25
32 35 35 20 8z m142 -69 c-5 -65 -19 -69 -18 -4 1 26 -3 58 -7 72 -8 25 -8 25
10 4 14 -15 17 -33 15 -72z"/>
<path d="M2353 3353 c-7 -2 -13 -11 -13 -19 0 -10 -12 -12 -55 -8 -36 4 -55 2
-55 -5 0 -6 15 -12 33 -12 24 -1 26 -3 9 -6 -25 -5 -40 -29 -26 -42 5 -5 21
-11 37 -15 26 -6 27 -5 27 30 0 24 4 34 13 31 6 -2 11 -18 11 -36 -1 -17 2
-31 7 -31 5 0 9 14 9 30 0 20 5 30 15 30 10 0 15 -10 15 -30 0 -28 8 -35 38
-31 6 1 12 -3 12 -9 0 -22 19 -8 22 17 2 14 9 28 16 31 9 3 13 -3 12 -14 -4
-35 0 -44 20 -44 11 0 23 -7 26 -15 9 -23 33 -18 46 10 10 23 28 34 28 18 0
-16 -25 -73 -32 -73 -4 0 -8 -4 -8 -10 0 -26 27 -5 43 32 13 31 20 39 29 30 8
-8 7 -18 -6 -37 -10 -15 -15 -30 -11 -33 4 -4 11 0 15 8 23 38 29 43 45 36 15
-5 15 -8 -6 -24 l-22 -19 21 -21 c12 -12 22 -27 22 -33 0 -7 9 0 21 15 11 14
27 26 35 26 11 0 13 6 9 20 -5 14 -2 20 9 20 9 0 16 5 16 10 0 6 -9 10 -20 10
-11 0 -20 -5 -20 -11 0 -21 -23 -2 -25 21 -2 31 -32 52 -54 38 -13 -8 -27 -5
-57 9 -21 11 -63 28 -91 37 -31 10 -53 24 -53 32 0 8 5 14 11 14 5 0 7 5 4 10
-10 17 -25 11 -25 -10 0 -13 -7 -20 -20 -20 -11 0 -20 4 -20 9 0 11 -29 41
-38 40 -4 0 -13 -3 -19 -6z m45 -31 c3 -9 -2 -13 -14 -10 -9 1 -19 9 -22 16
-3 9 2 13 14 10 9 -1 19 -9 22 -16z m40 -44 c2 -10 -6 -19 -18 -23 -23 -7 -44
5 -22 12 6 3 12 11 12 20 0 19 24 11 28 -9z m-153 -8 c-3 -5 -10 -10 -16 -10
-5 0 -9 5 -9 10 0 6 7 10 16 10 8 0 12 -4 9 -10z m245 -6 c0 -3 -7 -12 -15
-21 -20 -19 -32 -10 -14 11 14 15 29 21 29 10z m21 -47 c-16 -16 -26 0 -10 19
9 11 15 12 17 4 2 -6 -1 -17 -7 -23z m154 -8 c12 -19 -5 -23 -22 -6 -16 16
-16 17 -1 17 9 0 20 -5 23 -11z m-5 -69 c0 -5 -7 -10 -15 -10 -8 0 -15 5 -15
10 0 6 7 10 15 10 8 0 15 -4 15 -10z"/>
<path d="M2000 3320 c0 -4 10 -10 22 -14 14 -3 19 -9 13 -14 -12 -10 -102 -44
-111 -42 -4 1 -10 -3 -13 -8 -3 -6 -33 -30 -66 -55 -118 -88 -195 -176 -244
-279 -13 -27 -28 -48 -35 -48 -16 0 -46 -32 -46 -48 0 -7 7 -12 16 -12 12 0
15 -6 11 -22 -20 -87 -20 -88 5 -88 13 0 29 4 37 9 10 7 19 4 27 -6 9 -14 11
-11 10 15 -1 28 -5 33 -34 38 -24 5 -32 11 -29 23 2 9 10 14 18 12 8 -2 25 -5
39 -7 20 -3 17 -1 -11 13 -36 18 -36 18 -23 51 17 40 22 41 16 2 -4 -28 -2
-30 24 -29 17 1 22 3 12 6 -29 7 -21 33 10 33 l27 0 -33 20 c-35 21 -36 48 -2
30 14 -7 23 -6 34 5 8 8 21 15 28 15 7 0 1 10 -14 21 -16 11 -28 25 -28 31 0
21 50 77 64 72 14 -6 10 -50 -6 -60 -6 -4 -8 2 -3 15 8 25 -7 28 -26 5 -10
-13 -10 -17 2 -25 24 -15 44 -5 47 24 3 21 9 27 27 27 12 0 26 7 29 16 3 8 10
12 16 9 18 -11 11 8 -12 32 l-22 23 22 22 c21 21 21 21 16 1 -4 -15 0 -25 15
-32 13 -7 18 -17 14 -28 -4 -11 -3 -14 5 -9 7 4 12 16 12 27 0 16 5 19 20 14
26 -8 26 1 -1 16 -17 9 -23 8 -30 -2 -4 -7 -11 -10 -15 -6 -4 4 -3 12 3 18 6
6 9 17 6 24 -2 8 5 19 17 25 20 11 21 10 15 -9 -4 -14 0 -23 15 -31 12 -6 24
-9 27 -6 3 3 -2 8 -11 12 -18 7 -22 24 -5 24 7 0 18 8 25 18 12 16 13 15 14
-5 0 -13 5 -23 10 -23 17 0 11 38 -7 49 -16 9 -16 12 -3 21 23 15 43 12 36 -5
-3 -10 5 -20 24 -30 28 -15 60 -11 60 6 0 5 7 9 14 9 12 0 13 6 4 31 -7 22 -7
34 0 41 11 11 13 9 25 -32 2 -9 16 -15 36 -15 30 0 31 2 26 33 -3 21 -1 32 7
32 8 0 9 3 2 10 -7 7 -27 5 -62 -4 -41 -10 -54 -11 -62 -1 -13 15 -50 26 -50
15z m147 -36 c-3 -3 -12 -4 -19 -1 -8 3 -5 6 6 6 11 1 17 -2 13 -5z m-7 -24
c0 -5 -7 -10 -16 -10 -8 0 -12 5 -9 10 3 6 10 10 16 10 5 0 9 -4 9 -10z m-126
-15 c-4 -8 1 -17 10 -21 22 -8 20 -24 -3 -24 -18 0 -36 42 -23 55 11 11 21 4
16 -10z m36 1 c0 -3 -4 -8 -10 -11 -5 -3 -10 -1 -10 4 0 6 5 11 10 11 6 0 10
-2 10 -4z m-140 -51 c-7 -9 -15 -13 -17 -11 -7 7 7 26 19 26 6 0 6 -6 -2 -15z
m-130 -125 c0 -10 -5 -22 -11 -26 -8 -4 -9 1 -4 17 8 23 8 23 -19 5 -27 -17
-27 -17 -17 2 19 36 51 37 51 2z m-110 -151 c0 -11 -11 -11 -29 0 -7 5 -10 14
-6 20 5 9 10 9 21 0 8 -6 14 -15 14 -20z m-100 -76 c0 -14 -19 -38 -25 -32 -8
8 5 39 16 39 5 0 9 -3 9 -7z m4 -109 c23 -9 20 -24 -4 -24 -11 0 -20 7 -20 15
0 17 2 18 24 9z"/>
<path d="M1865 3250 c3 -5 12 -7 20 -3 21 7 19 13 -6 13 -11 0 -18 -4 -14 -10z"/>
<path d="M2257 3167 c-3 -8 -1 -32 4 -53 12 -54 12 -56 -10 -44 -11 5 -27 7
-35 4 -23 -9 -19 -39 7 -52 19 -9 17 -10 -18 -9 -35 2 -40 -1 -43 -20 -2 -15
2 -23 12 -23 8 0 17 -13 21 -32 4 -18 16 -43 27 -55 17 -18 18 -25 8 -43 -7
-13 -10 -37 -7 -55 4 -26 0 -38 -17 -54 -29 -27 -40 -26 -54 4 -15 33 -28 31
-48 -7 -9 -18 -22 -36 -27 -40 -17 -11 -29 2 -16 18 9 11 9 28 -1 73 -11 55
-14 59 -31 48 -25 -15 -42 -77 -34 -120 6 -29 3 -35 -20 -45 -36 -16 -36 -16
-19 23 19 45 18 125 -2 153 -20 28 -34 28 -34 0 0 -13 -7 -36 -15 -52 -21 -39
-31 -141 -16 -150 6 -4 11 -20 11 -35 0 -15 10 -43 23 -62 18 -27 30 -34 57
-35 151 -7 217 -59 175 -138 -17 -31 -23 -34 -99 -45 -92 -14 -169 -47 -174
-74 -4 -22 24 -56 56 -68 27 -11 28 -25 2 -39 -25 -13 -26 -52 -2 -71 56 -47
206 -79 371 -79 101 0 233 20 272 41 41 21 51 75 19 104 -20 18 -20 18 15 42
26 18 35 31 35 52 0 24 -7 33 -42 50 -42 20 -55 23 -151 37 -85 12 -115 82
-55 132 29 25 136 60 185 61 28 1 63 46 63 82 0 15 5 31 10 34 15 9 12 89 -7
163 -21 80 -19 78 -37 63 -21 -18 -26 -60 -14 -129 5 -35 8 -65 5 -68 -2 -3
-16 1 -30 7 -24 11 -26 16 -20 54 5 41 -18 115 -37 115 -11 0 -22 -95 -14
-125 5 -18 2 -25 -9 -25 -9 0 -22 19 -33 48 -25 68 -32 71 -51 24 -19 -48 -39
-53 -72 -18 -18 19 -21 28 -12 44 7 14 7 28 -1 49 -10 26 -8 34 10 58 12 15
22 38 22 51 0 17 6 24 19 24 11 0 23 4 26 10 9 15 -14 50 -34 50 -14 0 -17 6
-13 25 4 21 1 25 -20 25 -35 0 -38 8 -20 41 13 22 14 33 6 46 -14 23 -60 29
-67 10z m53 -9 c-1 -7 -7 -24 -14 -37 l-13 -24 -7 27 c-4 15 -4 31 -1 36 9 14
35 12 35 -2z m-16 -130 c-6 -9 -34 -11 -34 -3 0 3 6 12 13 19 12 14 31 0 21
-16z m81 -38 c-3 -5 -10 -10 -16 -10 -5 0 -9 5 -9 10 0 6 7 10 16 10 8 0 12
-4 9 -10z m-81 -6 c9 -4 16 -18 16 -34 0 -37 -37 -52 -57 -24 -17 23 -16 29 3
48 18 18 17 18 38 10z m-7 -125 c1 -12 10 -30 19 -40 21 -23 12 -34 -33 -42
-28 -6 -33 -3 -33 12 0 17 12 46 33 79 11 16 12 15 14 -9z m-357 -159 l-20
-55 4 55 c2 30 9 69 17 85 l13 30 3 -30 c2 -16 -5 -55 -17 -85z m700 103 c1
-5 7 -33 14 -63 16 -68 5 -118 -12 -55 -20 72 -25 125 -13 125 6 0 11 -3 11
-7z m-594 -44 c-3 -17 -6 -38 -6 -46 0 -8 -4 -11 -10 -8 -11 7 -14 68 -3 78
16 16 25 5 19 -24z m504 -16 c0 -27 -3 -34 -11 -26 -7 7 -9 23 -5 37 9 37 16
32 16 -11z m-250 -68 c0 -104 -37 -154 -52 -69 -5 29 -1 52 15 90 12 29 25 50
30 47 4 -2 7 -33 7 -68z m78 -23 c-2 -21 -9 -28 -30 -30 -27 -3 -28 -1 -28 40
0 24 -3 54 -7 68 -6 23 -3 21 31 -13 27 -29 36 -46 34 -65z m-141 41 c-8 -21
-18 -47 -21 -57 -5 -14 -10 -16 -17 -9 -13 13 -3 50 26 86 26 35 32 26 12 -20z
m235 -75 c-2 -10 -8 -18 -12 -18 -20 0 -40 116 -23 134 10 9 41 -94 35 -116z
m-322 79 c-1 -12 -12 -42 -25 -67 l-24 -45 -1 37 c0 41 28 110 42 102 4 -3 8
-15 8 -27z m-86 -36 c3 -5 -10 -12 -29 -15 -19 -4 -48 -18 -65 -33 -30 -25
-49 -26 -35 -3 7 11 102 60 117 60 4 0 9 -4 12 -9z m104 -34 c-13 -43 -5 -56
22 -39 17 10 20 10 20 -3 0 -8 7 -15 15 -15 8 0 20 -10 26 -22 12 -23 12 -23
-9 -4 -21 18 -75 19 -130 1 -18 -6 -24 -3 -28 12 -3 11 -21 25 -40 32 -37 13
-43 25 -18 35 36 14 52 6 58 -29 4 -19 11 -35 15 -35 10 0 41 44 59 84 17 40
24 28 10 -17z m446 2 c5 -5 7 -11 4 -14 -7 -7 -108 37 -108 47 0 8 91 -21 104
-33z m-164 -63 c0 -2 -27 -6 -60 -8 -45 -3 -66 -10 -85 -28 -14 -13 -28 -21
-31 -18 -8 9 33 48 51 48 9 0 15 9 15 23 1 21 1 21 15 3 10 -13 21 -17 40 -12
24 6 26 10 20 39 l-7 32 21 -37 c12 -21 21 -40 21 -42z m93 60 c24 -18 22 -23
-14 -31 -36 -8 -43 -3 -34 24 7 24 22 26 48 7z m47 -46 c0 -6 -23 -9 -52 -9
l-53 2 40 7 c60 11 65 11 65 0z m-522 -32 c17 -14 15 -28 -3 -28 -23 0 -66 31
-59 42 6 10 41 2 62 -14z m552 6 c0 -10 -6 -14 -14 -11 -8 3 -33 -3 -55 -14
-46 -22 -64 -24 -59 -7 6 17 54 36 121 47 4 0 7 -6 7 -15z m-130 2 c0 -3 -4
-8 -10 -11 -5 -3 -10 -1 -10 4 0 6 5 11 10 11 6 0 10 -2 10 -4z m-272 -25 c31
-26 28 -31 -23 -31 -50 0 -61 19 -22 38 12 6 22 11 23 11 1 1 11 -7 22 -18z
m230 -6 c3 -2 -3 -11 -11 -20 -16 -16 -127 -22 -127 -7 0 20 56 42 95 37 21
-3 41 -8 43 -10z m-200 -81 c-4 -3 -12 5 -18 18 -12 22 -12 22 6 6 10 -10 15
-20 12 -24z m134 4 c-7 -7 -12 -8 -12 -2 0 6 3 14 7 17 3 4 9 5 12 2 2 -3 -1
-11 -7 -17z m-85 -38 c39 0 54 -4 51 -12 -10 -28 -138 -16 -138 13 0 6 7 8 16
5 9 -3 40 -6 71 -6z m-97 -57 c-1 -10 -39 -60 -40 -51 0 17 21 58 30 58 5 0
10 -3 10 -7z m100 -22 c0 -10 -6 -25 -13 -35 -12 -16 -14 -16 -26 -2 -11 13
-11 22 -3 41 13 27 42 24 42 -4z m-62 -17 c-2 -11 -13 -20 -26 -22 -22 -3 -22
-3 -4 27 17 31 37 28 30 -5z m152 5 c0 -5 -7 -9 -15 -9 -9 0 -15 9 -15 21 0
18 2 19 15 9 8 -7 15 -16 15 -21z m-46 -5 c8 -30 3 -39 -17 -31 -10 3 -13 15
-10 31 7 33 19 33 27 0z m-220 -14 c37 -14 32 -27 -11 -35 -57 -10 -103 -35
-103 -55 0 -13 19 -24 73 -41 62 -21 90 -24 212 -23 124 0 147 3 200 25 33 13
61 31 63 40 3 19 -35 38 -94 46 -34 4 -44 10 -44 24 0 15 7 19 34 19 46 0 160
-36 177 -56 11 -14 10 -20 -14 -40 -67 -58 -290 -96 -438 -75 -84 11 -200 51
-239 81 -20 15 -23 23 -14 36 11 18 63 40 129 54 22 4 41 8 42 9 1 1 13 -3 27
-9z m193 -39 c75 12 80 12 61 -8 -14 -13 -35 -16 -97 -16 -80 1 -106 7 -96 22
2 5 22 5 44 1 22 -4 61 -3 88 1z m107 -64 c6 -9 7 -20 2 -24 -10 -10 -265 -10
-290 0 -17 7 -17 8 4 25 31 25 268 24 284 -1z m-296 -82 c97 -17 187 -19 287
-5 165 23 160 23 178 5 24 -23 22 -31 -17 -55 -80 -49 -336 -63 -480 -25 -85
22 -146 51 -146 69 0 16 55 37 79 30 7 -2 52 -11 99 -19z"/>
<path d="M2535 3147 c7 -17 42 -33 52 -23 4 3 0 6 -7 6 -7 0 -22 8 -32 17 -17
15 -18 15 -13 0z"/>
<path d="M1735 3141 c-3 -5 -1 -12 5 -16 5 -3 10 1 10 9 0 18 -6 21 -15 7z"/>
<path d="M2750 3103 c-11 -13 -11 -18 -2 -21 9 -3 8 -8 -5 -17 -15 -11 -15
-15 -4 -29 17 -20 45 -21 61 -1 7 8 19 15 26 15 21 0 17 14 -14 43 -32 31 -41
33 -62 10z m51 -46 c-15 -15 -24 -2 -16 24 7 20 8 21 17 5 7 -12 7 -21 -1 -29z"/>
<path d="M2870 3010 c0 -9 5 -21 11 -27 7 -7 3 -9 -16 -6 -25 5 -26 4 -23 -36
3 -38 19 -54 32 -32 3 5 15 11 26 14 29 8 25 -17 -5 -31 -14 -6 -25 -16 -25
-22 0 -6 13 -4 31 6 34 17 43 13 53 -26 7 -24 7 -24 -9 -5 -23 29 -50 9 -51
-39 -1 -29 1 -34 12 -25 17 14 18 39 2 39 -9 0 -9 3 -1 11 13 13 33 4 33 -16
0 -8 6 -12 13 -9 8 3 19 -7 26 -22 13 -30 5 -48 -10 -21 -12 21 -32 22 -50 1
-11 -13 -9 -14 14 -9 33 9 35 -7 5 -29 -23 -16 -23 -16 7 -10 46 10 47 10 52
-3 3 -7 -10 -15 -31 -19 -50 -9 -45 -19 9 -19 25 0 45 4 45 9 0 20 -43 171
-51 181 -5 5 -9 16 -9 25 1 12 4 11 15 -4 14 -19 15 -19 15 7 0 22 -4 27 -25
27 -19 0 -31 9 -43 31 -27 50 -51 77 -52 59z m5 -60 c3 -5 -1 -10 -9 -10 -9 0
-16 5 -16 10 0 6 4 10 9 10 6 0 13 -4 16 -10z"/>
<path d="M2930 2960 c0 -5 5 -10 10 -10 6 0 10 5 10 10 0 6 -4 10 -10 10 -5 0
-10 -4 -10 -10z"/>
<path d="M1530 2605 c0 -22 4 -26 23 -23 14 2 22 10 22 23 0 13 -8 21 -22 23
-19 3 -23 -1 -23 -23z"/>
<path d="M2965 2621 c-3 -6 -1 -20 5 -31 9 -17 14 -18 31 -9 11 5 19 18 17 27
-4 19 -43 29 -53 13z"/>
<path d="M1580 2500 c0 -5 -11 -10 -25 -10 -22 0 -25 -3 -19 -26 5 -18 1 -29
-12 -39 -17 -14 -15 -14 24 -9 39 6 42 5 42 -17 0 -14 -3 -19 -8 -12 -10 15
-59 5 -67 -14 -3 -9 -3 -18 0 -21 3 -3 5 0 5 6 0 7 7 12 15 12 18 0 20 -17 3
-23 -7 -2 -10 -8 -6 -12 11 -11 28 4 28 26 0 19 0 19 20 -1 27 -27 25 -48 -5
-56 -14 -3 -25 -10 -25 -15 0 -11 8 -10 35 0 22 9 45 -4 45 -25 0 -8 -8 -14
-18 -14 -11 0 -24 -12 -31 -27 -9 -23 -9 -25 1 -13 7 8 25 16 41 18 22 3 27
-1 27 -18 0 -13 -9 -24 -25 -30 -14 -5 -25 -14 -25 -20 0 -13 6 -13 40 5 20
10 31 12 35 4 7 -10 -11 -28 -47 -50 -10 -5 -18 -16 -18 -23 0 -19 27 -39 40
-31 7 5 5 11 -7 20 -10 7 -15 17 -11 21 4 4 15 1 23 -6 12 -10 22 -10 39 -2
17 7 27 7 35 -1 16 -16 14 -40 -3 -34 -14 6 -33 -39 -21 -51 3 -3 5 3 5 14 1
18 1 18 14 2 18 -24 29 -23 21 2 -7 23 13 28 33 8 16 -16 15 -28 -3 -28 -8 0
-15 -9 -15 -20 0 -11 7 -23 15 -26 8 -4 15 -13 15 -21 0 -11 7 -7 21 11 11 14
28 26 37 26 10 0 -5 20 -39 53 -61 57 -100 111 -146 202 -42 82 -53 117 -60
202 -3 40 -10 73 -14 73 -5 0 -9 -4 -9 -10z m0 -50 c0 -11 -7 -20 -15 -20 -8
0 -15 9 -15 20 0 11 7 20 15 20 8 0 15 -9 15 -20z m115 -329 c-8 -13 -35 -15
-35 -2 0 5 8 11 18 13 21 5 26 2 17 -11z m120 -132 c-4 -5 -16 -9 -28 -9 -21
1 -21 1 -3 15 20 15 41 11 31 -6z"/>
<path d="M2925 2475 c-16 -13 -26 -27 -22 -31 4 -4 14 1 21 12 8 10 17 17 20
14 8 -8 -19 -117 -49 -195 -14 -37 -23 -70 -20 -73 2 -3 7 3 11 12 8 20 24 21
24 1 0 -17 4 -18 39 -8 23 6 22 6 -8 19 -17 7 -31 20 -31 29 0 18 13 19 41 4
11 -6 25 -8 32 -6 7 2 -4 12 -24 22 -36 17 -36 18 -26 56 5 22 14 39 19 39 5
0 7 -9 3 -20 -5 -15 -3 -18 9 -14 21 8 20 -6 -1 -22 -16 -13 -15 -13 7 -5 30
10 38 37 13 44 -12 3 -8 5 10 6 32 1 37 21 5 21 -39 0 -47 12 -38 50 5 23 8
27 9 13 1 -28 16 -37 38 -24 17 10 17 10 1 11 -10 0 -18 7 -18 15 0 8 9 15 20
15 11 0 20 5 20 10 0 6 -13 10 -28 10 -15 0 -32 4 -37 9 -6 6 -21 0 -40 -14z"/>
<path d="M2815 2129 c-36 -49 -154 -163 -178 -172 -9 -3 -17 -11 -17 -17 0
-14 17 -13 23 3 2 6 8 0 12 -15 8 -31 29 -37 39 -12 4 10 13 13 27 9 23 -8 21
3 -9 38 -14 16 -14 20 7 40 l23 22 -7 -23 c-5 -18 -2 -25 14 -29 11 -3 22 -12
24 -22 3 -11 5 -9 6 7 1 16 7 22 24 23 l22 0 -23 12 c-19 8 -25 8 -32 -3 -5
-8 -12 -11 -15 -8 -4 4 -3 13 1 20 5 7 7 21 6 31 -4 23 13 22 49 -4 35 -25 38
-11 4 21 -19 18 -22 26 -14 37 15 17 29 17 29 -2 0 -22 41 -19 47 4 3 12 11
17 19 14 8 -3 14 0 14 6 0 7 -8 14 -17 18 -10 3 -25 14 -33 24 -14 17 -17 16
-45 -22z m49 -8 c8 -12 -3 -41 -15 -41 -4 0 -6 7 -3 15 4 8 1 15 -5 15 -6 0
-11 5 -11 10 0 12 27 13 34 1z m-170 -166 c3 -9 0 -15 -9 -15 -16 0 -27 14
-18 24 10 10 21 7 27 -9z"/>
<path d="M1880 1961 c0 -4 5 -12 12 -19 9 -9 7 -13 -5 -18 -18 -7 -23 -49 -7
-59 5 -3 7 0 4 9 -9 22 29 56 50 44 16 -9 16 -11 1 -34 -9 -14 -15 -30 -12
-37 2 -6 12 3 22 21 13 22 24 30 35 26 8 -3 35 -13 59 -22 38 -13 42 -17 28
-27 -10 -7 -17 -15 -17 -18 0 -9 34 5 42 17 10 15 20 2 12 -18 -3 -9 -10 -13
-15 -10 -5 3 -14 2 -20 -1 -6 -4 1 -13 16 -21 35 -18 33 -19 37 14 2 19 9 28
26 30 23 4 29 -7 12 -24 -17 -17 4 -30 35 -23 28 6 29 7 8 14 -32 10 -29 25 5
25 24 0 28 -4 27 -27 0 -21 5 -28 20 -28 11 -1 26 -4 33 -8 9 -6 12 2 12 27 0
20 5 36 11 36 5 0 7 5 4 10 -3 6 -33 10 -65 10 -95 0 -196 26 -287 75 -46 24
-83 40 -83 36z m398 -148 c-2 -10 -11 -19 -21 -21 -16 -3 -17 -1 -5 17 16 25
31 27 26 4z"/>
<path d="M2525 1901 c-22 -10 -64 -24 -92 -31 -54 -14 -65 -23 -38 -34 8 -3
12 -12 9 -20 -7 -18 16 -33 26 -17 9 16 31 -9 33 -38 1 -12 5 -21 9 -21 14 0
21 29 10 43 -5 6 -13 26 -16 43 -6 24 -3 33 10 38 9 4 19 4 22 1 3 -3 0 -5 -6
-5 -17 0 -15 -30 3 -36 11 -4 13 -13 9 -28 -5 -18 -4 -19 7 -6 8 8 19 20 26
26 7 6 8 15 2 25 -8 12 -10 12 -18 -1 -6 -8 -13 -11 -18 -6 -4 4 0 12 10 17 9
6 17 17 17 24 0 26 27 16 40 -15 7 -16 16 -30 21 -30 5 0 3 13 -6 29 -8 17
-12 37 -9 45 8 20 -1 19 -51 -3z m-85 -66 c0 -8 -4 -15 -10 -15 -5 0 -10 7
-10 15 0 8 5 15 10 15 6 0 10 -7 10 -15z"/>
<path d="M2010 1855 c0 -18 -16 -20 -23 -2 -3 7 -6 5 -6 -6 -1 -10 6 -20 14
-23 17 -7 49 21 40 36 -9 15 -25 12 -25 -5z"/>
<path d="M6020 3120 l0 -311 53 3 52 3 5 142 c5 133 6 143 29 167 53 57 150
59 195 5 25 -30 26 -35 26 -175 l0 -145 53 3 52 3 3 140 c3 153 -5 198 -44
245 -50 59 -171 74 -261 33 -21 -9 -42 -17 -47 -17 -4 -1 -9 46 -10 104 l-1
105 -52 3 -53 3 0 -311z"/>
<path d="M8487 3424 c-4 -4 -7 -144 -7 -311 l0 -303 55 0 55 0 0 133 c0 143 6
166 53 201 21 15 43 21 82 21 46 0 58 -4 84 -29 l31 -30 0 -148 0 -148 56 0
55 0 -3 169 -3 169 -31 39 c-60 73 -182 92 -277 43 -21 -11 -40 -20 -42 -20
-2 0 -6 48 -7 108 l-3 107 -45 3 c-25 2 -49 0 -53 -4z"/>
<path d="M4657 3383 c-3 -5 -4 -134 -3 -288 l1 -280 53 -3 52 -3 0 187 c0 221
-4 220 109 41 98 -154 112 -171 138 -163 19 6 43 40 167 235 26 40 49 71 52
69 2 -3 5 -85 7 -184 l2 -179 55 0 55 0 0 285 0 285 -47 3 -48 3 -73 -113
c-40 -62 -95 -148 -121 -190 -26 -43 -51 -78 -55 -78 -4 0 -15 15 -26 33 -10
17 -65 103 -122 190 l-103 157 -44 0 c-25 0 -47 -3 -49 -7z"/>
<path d="M9095 3331 c-3 -10 -5 -23 -4 -27 1 -5 1 -19 0 -31 -1 -19 -7 -23
-36 -23 -34 0 -35 -1 -35 -39 0 -39 1 -40 38 -43 l37 -3 -2 -75 c-5 -136 5
-197 38 -235 36 -41 111 -61 173 -48 48 10 61 29 47 65 -10 25 -13 26 -63 21
-39 -4 -57 -2 -65 8 -6 8 -12 68 -14 139 l-4 125 63 3 62 3 0 39 0 39 -62 3
-63 3 -3 48 -3 47 -49 0 c-39 0 -50 -4 -55 -19z"/>
<path d="M5590 3250 c-48 -9 -120 -37 -120 -46 0 -15 36 -64 46 -64 6 0 28 7
47 15 20 8 64 15 97 15 55 0 65 -3 91 -29 16 -16 29 -38 29 -49 0 -17 -10 -20
-111 -25 -135 -8 -170 -22 -199 -83 -18 -37 -20 -49 -11 -77 23 -68 80 -101
176 -101 57 -1 76 3 102 22 39 27 53 28 53 1 0 -18 5 -20 48 -17 l47 3 0 160
c0 142 -2 164 -20 195 -38 66 -161 102 -275 80z m186 -265 c11 -28 -6 -63 -40
-84 -94 -58 -232 14 -150 78 22 17 41 21 106 21 61 0 80 -3 84 -15z"/>
<path d="M6719 3250 c-46 -8 -103 -33 -113 -48 -2 -4 4 -22 15 -39 l20 -32 42
20 c27 12 65 19 105 19 57 0 67 -3 93 -29 16 -16 29 -38 29 -49 0 -17 -10 -20
-109 -25 -82 -4 -119 -11 -150 -26 -49 -26 -61 -46 -61 -106 0 -40 5 -52 33
-80 59 -59 175 -70 250 -25 40 25 47 25 47 0 0 -17 7 -20 50 -20 l50 0 0 153
c0 139 -2 157 -22 197 -40 78 -150 114 -279 90z m187 -265 c20 -51 -40 -105
-117 -105 -52 0 -99 29 -99 60 0 10 12 28 26 39 22 17 41 21 106 21 61 0 80
-3 84 -15z"/>
<path d="M7354 3250 c-18 -4 -45 -17 -62 -29 -38 -27 -42 -26 -42 4 0 23 -3
25 -50 25 l-50 0 0 -220 0 -220 55 0 55 0 0 135 0 135 33 36 c25 27 43 37 81
42 42 6 50 10 53 32 10 63 -6 76 -73 60z"/>
<path d="M7610 3251 c-62 -12 -120 -37 -120 -53 0 -7 9 -24 19 -37 l18 -24 46
18 c67 25 172 18 198 -14 11 -13 19 -33 19 -46 0 -21 -5 -22 -110 -28 -160 -9
-205 -38 -205 -132 0 -67 24 -96 102 -120 48 -15 66 -16 116 -7 33 6 67 18 77
27 22 20 30 19 30 -5 0 -17 7 -20 50 -20 l50 0 0 157 c0 189 -13 228 -84 262
-49 24 -141 34 -206 22z m178 -288 c-4 -50 -51 -83 -117 -83 -62 0 -93 22 -89
63 4 43 36 57 131 57 l78 0 -3 -37z"/>
<path d="M8118 3246 c-64 -17 -97 -41 -115 -83 -37 -91 12 -144 160 -172 124
-23 152 -45 108 -85 -25 -23 -130 -23 -192 -2 -59 21 -62 20 -82 -13 -15 -26
-15 -31 -2 -44 22 -23 112 -42 196 -41 58 1 87 6 123 24 77 37 107 109 70 166
-23 35 -55 49 -154 69 -125 25 -160 55 -105 91 19 13 41 15 97 11 40 -3 84 -8
98 -12 21 -5 28 -1 43 27 17 30 17 33 2 44 -18 14 -126 34 -171 33 -16 0 -50
-6 -76 -13z"/>
<path d="M9645 3249 c-21 -5 -49 -18 -60 -29 -28 -26 -35 -25 -35 6 0 24 -2
25 -51 22 l-51 -3 1 -215 1 -215 52 0 53 0 5 141 c4 101 9 146 19 158 23 27
67 46 106 46 l36 0 -3 47 c-3 53 -9 57 -73 42z"/>
<path d="M9915 3254 c-42 -6 -119 -35 -127 -48 -8 -13 22 -66 38 -66 6 0 28 7
47 15 20 8 64 15 97 15 55 0 65 -3 91 -29 16 -16 29 -38 29 -49 0 -17 -10 -20
-108 -24 -81 -4 -118 -10 -148 -26 -94 -48 -91 -160 7 -217 50 -29 167 -28
209 3 31 23 50 22 50 -4 0 -10 13 -14 50 -14 l50 0 0 153 c0 139 -2 157 -22
197 -30 59 -84 89 -170 94 -35 2 -76 2 -93 0z m175 -280 c0 -58 -48 -94 -123
-94 -50 0 -97 29 -97 60 0 10 12 28 26 39 22 17 41 21 110 21 83 0 84 0 84
-26z"/>
<path d="M10638 2504 c-20 -10 -28 -22 -28 -42 0 -36 10 -49 44 -61 37 -15 77
4 91 43 8 25 6 31 -18 52 -32 28 -51 29 -89 8z"/>
<path d="M4793 2460 c-184 -28 -243 -217 -92 -296 15 -7 74 -25 133 -40 114
-28 156 -52 156 -87 0 -27 -8 -38 -40 -60 -35 -25 -158 -22 -230 4 -30 11 -62
22 -70 25 -15 5 -40 -35 -40 -63 0 -32 135 -73 243 -73 78 0 131 14 180 48 47
32 67 68 67 122 0 89 -51 129 -216 169 -121 30 -156 51 -152 93 2 20 13 38 31
52 37 27 152 29 220 2 43 -16 51 -17 63 -4 8 8 16 28 17 44 2 27 -2 30 -48 45
-64 22 -156 29 -222 19z"/>
<path d="M7227 2454 c-4 -4 -7 -135 -7 -291 l0 -283 60 0 60 0 -2 288 -3 287
-50 3 c-28 2 -54 0 -58 -4z"/>
<path d="M5210 2371 l0 -50 -37 -3 c-37 -3 -38 -4 -41 -45 l-3 -43 40 0 41 0
0 -124 c0 -69 4 -136 9 -149 17 -45 76 -80 140 -85 62 -4 127 19 117 41 -3 7
-9 20 -12 30 -6 16 -14 18 -55 12 -40 -6 -51 -3 -68 14 -19 19 -21 33 -21 141
l0 119 63 3 62 3 0 40 0 40 -63 0 -62 0 0 53 0 52 -55 0 -55 0 0 -49z"/>
<path d="M6105 2387 c-4 -18 -5 -39 -3 -47 2 -11 -8 -16 -34 -18 -39 -3 -48
-20 -40 -69 4 -19 11 -23 41 -23 l38 0 -1 -127 c-1 -112 2 -132 20 -163 28
-48 66 -65 146 -65 81 0 109 18 90 59 -10 23 -17 25 -61 23 -78 -3 -85 9 -90
153 l-3 120 66 0 66 0 0 46 0 45 -62 -2 -63 -3 -3 52 -3 52 -49 0 c-48 0 -49
-1 -55 -33z"/>
<path d="M10277 2413 c-4 -3 -7 -26 -7 -49 0 -42 -1 -43 -37 -46 -41 -3 -50
-19 -39 -64 5 -20 13 -24 41 -24 l35 0 0 -122 c0 -149 12 -181 80 -216 37 -19
56 -23 104 -19 72 6 91 22 76 61 -10 27 -13 28 -54 22 -34 -5 -48 -3 -67 13
-23 18 -24 26 -27 140 l-4 121 66 0 66 0 0 45 0 45 -65 0 -65 0 0 50 0 50 -48
0 c-27 0 -52 -3 -55 -7z"/>
<path d="M5609 2305 c-65 -21 -73 -33 -47 -73 15 -24 25 -31 37 -26 65 28 101
35 150 31 44 -3 59 -9 78 -32 13 -15 23 -37 21 -49 -3 -20 -10 -21 -118 -26
-63 -3 -122 -9 -130 -14 -34 -20 -60 -51 -71 -83 -9 -28 -7 -40 11 -77 17 -35
30 -48 70 -65 67 -29 135 -27 194 4 47 25 48 25 53 5 4 -17 14 -20 55 -20 l50
0 -4 163 c-3 182 -12 209 -78 250 -45 28 -200 35 -271 12z m221 -243 c28 -3
26 -44 -2 -77 -49 -56 -172 -51 -192 7 -21 58 47 83 194 70z"/>
<path d="M6525 2296 c-79 -36 -125 -111 -125 -203 0 -85 40 -147 125 -191 68
-36 195 -38 268 -5 60 28 68 48 32 79 -16 13 -30 24 -31 24 -2 0 -18 -9 -36
-20 -45 -27 -141 -27 -185 0 -33 20 -70 66 -60 76 3 3 88 6 189 7 l183 2 -2
55 c-6 120 -100 200 -237 200 -53 0 -83 -6 -121 -24z m195 -73 c35 -24 59 -55
60 -75 0 -16 -13 -18 -135 -18 -122 0 -135 2 -135 18 1 23 32 59 67 77 38 20
113 19 143 -2z"/>
<path d="M7487 2314 c-4 -4 -7 -103 -7 -221 l0 -213 54 0 54 0 4 139 c3 139 3
140 33 171 55 57 144 59 196 4 23 -24 24 -33 27 -170 l3 -145 52 3 52 3 3 119
c6 244 -41 316 -206 316 -54 0 -79 -5 -115 -24 l-46 -25 -3 22 c-2 18 -10 22
-48 25 -25 2 -49 0 -53 -4z"/>
<path d="M8087 2314 c-4 -4 -7 -103 -7 -221 l0 -213 54 0 54 0 4 139 c3 139 3
140 32 170 55 57 147 62 190 10 19 -23 25 -44 31 -122 3 -52 5 -116 4 -143
l-3 -49 57 -3 57 -3 0 134 c0 162 -14 221 -65 266 -41 35 -81 45 -170 39 -46
-3 -73 -10 -94 -26 -37 -27 -39 -27 -43 1 -3 19 -10 22 -48 25 -25 2 -49 0
-53 -4z"/>
<path d="M8808 2310 c-126 -38 -193 -178 -143 -298 44 -105 188 -167 311 -133
146 39 221 182 163 306 -26 55 -85 108 -138 123 -43 14 -152 14 -193 2z m181
-97 c41 -30 64 -86 57 -136 -12 -73 -64 -117 -139 -117 -91 0 -147 54 -147
142 0 83 73 142 164 133 22 -2 51 -12 65 -22z"/>
<path d="M9173 2303 c2 -10 46 -109 97 -220 l93 -201 50 -4 c28 -2 56 1 63 7
13 10 204 411 204 428 0 4 -23 7 -51 5 l-51 -3 -68 -150 c-38 -82 -75 -151
-83 -153 -9 -2 -36 49 -82 153 l-68 155 -55 0 c-47 0 -54 -2 -49 -17z"/>
<path d="M9782 2305 c-42 -13 -72 -31 -72 -44 1 -3 11 -18 23 -34 23 -27 23
-27 57 -10 51 25 130 29 173 8 35 -17 65 -64 52 -84 -4 -7 -46 -11 -105 -11
-109 0 -142 -9 -182 -47 -35 -33 -44 -79 -25 -125 21 -51 74 -80 155 -85 58
-4 73 -1 115 21 l48 26 8 -23 c8 -20 14 -22 56 -19 l46 4 -3 157 c-4 185 -16
220 -88 258 -36 19 -58 23 -129 22 -47 0 -105 -6 -129 -14z m236 -266 c7 -64
-97 -116 -171 -85 -44 18 -58 57 -32 86 18 20 63 28 150 26 46 -1 50 -3 53
-27z"/>
<path d="M10627 2313 c-4 -3 -7 -102 -7 -220 l0 -213 55 0 55 0 0 220 0 220
-48 0 c-27 0 -52 -3 -55 -7z"/>
<path d="M10960 2299 c-89 -40 -132 -105 -131 -200 0 -104 63 -184 168 -215
174 -51 338 54 337 216 -2 135 -100 220 -254 220 -54 0 -88 -6 -120 -21z m185
-73 c85 -36 105 -160 36 -229 -38 -38 -119 -49 -170 -23 -64 34 -91 128 -56
196 30 59 120 85 190 56z"/>
<path d="M11430 2100 l0 -220 55 0 55 0 0 130 c0 146 10 179 60 205 16 8 52
15 80 15 44 0 56 -5 81 -29 l29 -29 0 -146 0 -146 55 0 55 0 0 153 c0 139 -2
157 -22 197 -31 61 -88 90 -179 90 -51 0 -77 -6 -112 -24 -47 -26 -57 -25 -57
6 0 15 -8 18 -50 18 l-50 0 0 -220z"/>
<path d="M6276 1599 c-47 -37 -23 -99 40 -99 72 0 103 74 44 105 -38 20 -52
19 -84 -6z"/>
<path d="M4782 1560 c-95 -20 -162 -83 -165 -157 -3 -94 48 -137 210 -177 107
-26 149 -45 160 -72 10 -27 -7 -61 -40 -79 -47 -25 -184 -18 -248 13 -25 12
-50 22 -55 22 -13 0 -37 -58 -31 -74 10 -24 118 -58 204 -63 96 -7 162 7 216
44 48 33 67 69 67 125 0 89 -50 127 -216 168 -117 28 -154 50 -154 89 0 38 37
68 94 76 46 7 157 -10 188 -28 16 -10 22 -8 39 12 33 40 21 64 -39 83 -64 22
-172 30 -230 18z"/>
<path d="M7065 1508 c-3 -8 -4 -30 -3 -49 3 -33 2 -34 -34 -37 -37 -3 -38 -4
-38 -43 0 -38 1 -39 34 -39 19 0 36 -6 39 -13 3 -7 6 -69 6 -137 2 -135 11
-164 62 -194 39 -23 118 -31 163 -16 38 12 42 23 27 64 -9 23 -13 24 -44 15
-35 -9 -79 0 -90 18 -8 13 -16 193 -10 231 5 32 5 32 65 32 l59 0 -3 38 -3 37
-63 3 -64 3 4 47 3 47 -53 3 c-37 2 -54 -1 -57 -10z"/>
<path d="M5925 1419 c-60 -7 -102 -28 -142 -68 -50 -50 -66 -95 -60 -169 6
-82 40 -133 117 -176 49 -28 64 -31 135 -31 83 0 125 14 173 58 30 28 28 41
-10 65 l-31 20 -40 -29 c-32 -23 -51 -29 -91 -29 -96 0 -152 60 -144 152 11
114 137 163 239 92 l38 -26 31 22 c38 27 38 43 -2 73 -58 42 -126 57 -213 46z"/>
<path d="M5302 1407 c-186 -68 -197 -317 -18 -410 49 -25 169 -29 229 -8 89
31 151 119 151 211 -1 135 -100 220 -254 219 -41 0 -90 -6 -108 -12z m178 -85
c73 -39 97 -137 48 -204 -52 -74 -169 -78 -231 -10 -41 45 -40 137 2 186 39
46 122 58 181 28z"/>
<path d="M6265 1408 c-3 -8 -4 -106 -3 -218 l3 -205 55 0 55 0 0 215 0 215
-53 3 c-36 2 -54 -1 -57 -10z"/>
<path d="M6589 1392 c-74 -39 -111 -93 -117 -172 -8 -105 31 -170 130 -221 82
-42 223 -33 294 19 30 22 30 29 -3 59 l-26 25 -37 -21 c-26 -14 -55 -21 -94
-21 -64 0 -104 17 -135 56 -42 53 -38 54 169 54 l190 0 0 23 c0 44 -30 123
-57 154 -47 51 -102 73 -186 73 -62 0 -84 -5 -128 -28z m199 -68 c34 -20 65
-61 59 -78 -4 -9 -39 -13 -131 -15 -137 -2 -154 5 -122 50 39 57 136 78 194
43z"/>
<path d="M7340 1409 c0 -7 44 -105 97 -218 53 -113 96 -215 95 -225 -2 -36
-46 -69 -92 -69 -23 0 -46 5 -53 12 -6 6 -15 11 -19 11 -8 0 -48 -59 -48 -72
0 -17 92 -40 145 -36 75 6 119 42 167 139 58 115 206 428 213 450 6 19 3 20
-46 17 l-52 -3 -71 -154 c-39 -84 -75 -154 -80 -155 -5 0 -38 64 -75 144 -36
80 -70 151 -74 158 -10 16 -107 16 -107 1z"/>
<path d="M658 1140 c12 -22 24 -30 45 -30 26 0 27 -2 27 -51 0 -40 -5 -55 -22
-68 l-21 -18 42 -46 c44 -48 67 -52 73 -14 3 19 10 22 56 25 l52 3 0 -49 c0
-47 2 -51 35 -71 l35 -20 0 155 0 155 97 -3 c84 -3 98 -6 101 -20 3 -15 -4
-18 -40 -18 -78 0 -105 -38 -72 -102 11 -22 13 -33 5 -41 -21 -21 -12 -73 16
-102 46 -45 133 -82 133 -56 0 5 -9 13 -20 16 -36 11 -80 56 -80 80 0 30 44
65 81 65 22 0 29 -5 29 -20 0 -10 -8 -23 -17 -29 -17 -9 -17 -11 4 -32 26 -26
50 -20 59 16 15 60 -37 107 -119 109 -39 1 -52 5 -52 16 0 11 17 16 70 20 l70
5 0 45 0 45 54 3 c36 2 57 -1 62 -10 5 -7 8 -67 7 -133 l-1 -119 32 -24 31
-25 0 157 0 156 80 0 80 0 0 -46 0 -46 -35 6 c-27 5 -37 3 -41 -9 -10 -24 3
-57 37 -95 17 -19 45 -54 61 -77 19 -25 36 -39 44 -36 23 9 16 36 -21 75 -34
35 -44 58 -27 58 5 0 18 9 30 20 17 16 22 32 22 70 0 75 4 80 66 80 l54 0 0
-133 0 -133 29 -17 c16 -9 32 -17 35 -17 3 0 6 68 6 150 l0 150 45 0 44 0 3
-77 3 -77 42 -32 c28 -21 60 -35 90 -40 27 -4 60 -17 76 -30 48 -40 134 -44
185 -8 21 14 21 17 7 44 l-15 30 -33 -20 c-61 -37 -147 -19 -147 32 0 21 16
33 80 58 64 25 80 42 80 87 0 32 1 33 45 33 50 0 49 -1 33 35 l-11 25 -868 0
-868 0 17 -30z m252 -85 l0 -55 -55 0 -55 0 0 48 c0 27 3 52 7 55 3 4 28 7 55
7 l48 0 0 -55z m1330 31 c0 -19 -8 -27 -37 -36 -21 -7 -48 -19 -61 -27 -21
-13 -26 -11 -72 27 -28 23 -50 46 -50 51 0 5 50 9 110 9 110 0 110 0 110 -24z
m-180 -73 c46 -42 51 -70 16 -79 -51 -12 -61 -3 -64 59 -2 31 0 57 3 57 3 0
24 -16 45 -37z"/>
<path d="M2510 1165 c0 -2 5 -16 12 -30 8 -18 19 -25 40 -25 25 0 28 -3 23
-21 -15 -45 31 -97 98 -111 15 -3 15 -6 -8 -30 -25 -27 -25 -27 -55 -10 -27
16 -30 16 -46 0 -25 -25 -11 -64 28 -77 18 -6 47 -28 65 -49 24 -28 34 -34 43
-25 9 8 7 18 -11 43 l-24 32 28 20 c33 24 67 87 67 123 0 14 -9 44 -20 65
l-20 40 50 0 50 0 0 -135 0 -134 30 -16 c16 -8 31 -15 35 -15 3 0 5 68 5 150
l0 150 45 0 44 0 3 -135 3 -136 33 -20 32 -21 0 156 0 156 75 0 75 0 0 -45 0
-46 -37 3 c-59 5 -55 -24 17 -120 75 -99 84 -107 99 -89 9 11 2 26 -31 67 -40
51 -41 53 -22 67 11 8 27 11 39 7 11 -3 39 -9 62 -11 l42 -5 3 -49 c3 -44 7
-52 36 -70 l32 -21 0 156 0 156 135 0 135 0 0 -35 0 -35 -84 0 c-103 0 -116
-4 -116 -40 0 -64 77 -107 90 -50 5 22 12 25 58 28 l52 3 0 -68 c0 -67 1 -68
35 -91 l35 -22 0 155 0 155 40 0 39 0 -17 30 -17 30 -662 0 c-365 0 -663 -2
-663 -5z m184 -77 c17 -24 21 -73 7 -82 -12 -8 -61 39 -61 58 0 47 29 60 54
24z m686 -23 c0 -50 -16 -65 -69 -65 -31 0 -31 0 -31 55 l0 55 50 0 50 0 0
-45z"/>
<path d="M2190 764 c-25 -20 -54 -42 -65 -50 -19 -14 -19 -14 2 -36 l22 -21
56 43 56 43 43 -42 c30 -29 46 -39 51 -31 5 7 -15 35 -51 71 -32 32 -61 59
-64 59 -3 0 -25 -16 -50 -36z"/>
</g>
</svg>
