<svg width="944" height="482" viewBox="0 0 944 482" fill="none" xmlns="http://www.w3.org/2000/svg">
<g clip-path="url(#clip0_139_3736)">
<path d="M735 163H578.168V215.007H628.195V319H684.953V215.007H734.98V163H735ZM364.832 207.571V163H208V318.98H364.832V274.409H264.758V263.266H342.43V218.695H264.758V207.552H364.832V207.571ZM504.232 163H399.697V318.98H504.232C533.11 318.98 556.509 295.714 556.509 266.993V215.007C556.509 186.286 533.09 163 504.232 163ZM499.752 253.987C499.752 261.167 493.902 266.974 486.682 266.974H456.435V214.987H486.682C493.882 214.987 499.732 220.813 499.752 227.974V253.967V253.987Z" fill="#231F20"/>
</g>
<defs>
<clipPath id="clip0_139_3736">
<rect width="527" height="156" fill="white" transform="translate(208 163)"/>
</clipPath>
</defs>
</svg>
