<svg width="944" height="482" viewBox="0 0 944 482" fill="none" xmlns="http://www.w3.org/2000/svg">
<path d="M429.478 224.034C425.507 227.976 416.905 235.4 414.257 233.561C411.611 231.721 409.104 213.076 408.182 203.984C408.742 212.599 409.231 229.829 406.711 229.829C404.192 229.829 385.927 214.127 377.109 206.276C385.577 214.753 402.387 232.456 401.883 235.457C401.379 238.459 384.177 236.708 375.638 235.457C384.759 236.891 403.235 240.185 404.178 241.886C405.253 243.826 403.027 249.397 397.664 255.284C397.052 255.892 396.504 256.467 396.042 256.976C396.611 256.411 397.152 255.846 397.664 255.284C401.312 251.663 407.227 246.885 410.601 248.049C414.516 249.401 416.852 267.584 417.546 276.677C416.942 268.646 416.245 252.61 418.202 251.344C420.172 250.069 438.291 267.179 447.105 275.893C439.183 267.675 423.341 250.451 423.341 247.306C423.341 244.16 440.111 244.649 448.497 245.286C440.325 244.294 423.404 241.758 421.092 239.548C418.779 237.337 425.719 228.284 429.478 224.034Z" fill="black"/>
<path d="M397.664 255.284C403.027 249.397 405.253 243.826 404.178 241.886C403.235 240.185 384.759 236.891 375.638 235.457C384.177 236.708 401.379 238.459 401.883 235.457C402.387 232.456 385.577 214.753 377.109 206.276C385.927 214.127 404.192 229.829 406.711 229.829C409.231 229.829 408.742 212.599 408.182 203.984C409.104 213.076 411.611 231.721 414.257 233.561C416.905 235.4 425.507 227.976 429.478 224.034C425.719 228.284 418.779 237.337 421.092 239.548C423.404 241.758 440.325 244.294 448.497 245.286C440.111 244.649 423.341 244.16 423.341 247.306C423.341 250.451 439.183 267.675 447.105 275.893C438.291 267.179 420.172 250.069 418.202 251.344C416.245 252.61 416.942 268.646 417.546 276.677M397.664 255.284C397.052 255.892 396.504 256.467 396.042 256.976C396.611 256.411 397.152 255.846 397.664 255.284ZM397.664 255.284C401.312 251.663 407.227 246.885 410.601 248.049C414.516 249.401 416.852 267.584 417.546 276.677M417.546 276.677C417.551 276.735 417.555 276.793 417.559 276.85" stroke="black" stroke-width="2.07008"/>
<path d="M63.897 276.845C62.8942 276.845 62.3928 276.344 62.3928 275.341V206.612C62.3928 205.609 62.8942 205.107 63.897 205.107H108.74C109.743 205.107 110.245 205.609 110.245 206.612V215.732C110.245 216.735 109.743 217.236 108.74 217.236H77.4346C76.4319 217.236 75.9304 217.738 75.9304 218.74V233.408C75.9304 234.41 76.4319 234.912 77.4346 234.912H105.168C106.171 234.912 106.672 235.413 106.672 236.416V245.442C106.672 246.445 106.171 246.947 105.168 246.947H77.4346C76.4319 246.947 75.9304 247.448 75.9304 248.451V263.212C75.9304 264.215 76.4319 264.716 77.4346 264.716H108.74C109.743 264.716 110.245 265.218 110.245 266.221V275.341C110.245 276.344 109.743 276.845 108.74 276.845H63.897ZM116.458 276.845C115.643 276.845 115.236 276.532 115.236 275.905C115.236 275.592 115.33 275.309 115.518 275.059L137.423 242.058C137.673 241.744 137.799 241.399 137.799 241.023C137.799 240.585 137.673 240.24 137.423 239.989L115.518 206.894C115.33 206.58 115.236 206.298 115.236 206.048C115.236 205.421 115.675 205.107 116.552 205.107H129.244C130.058 205.107 130.654 205.421 131.03 206.048L146.354 230.117C146.667 230.618 147.012 230.869 147.388 230.869C147.764 230.869 148.109 230.618 148.422 230.117L163.84 206.048C164.216 205.421 164.811 205.107 165.626 205.107H178.318C179.195 205.107 179.634 205.421 179.634 206.048C179.634 206.298 179.54 206.58 179.352 206.894L157.447 239.989C157.196 240.365 157.071 240.71 157.071 241.023C157.071 241.211 157.196 241.556 157.447 242.058L179.352 275.059C179.54 275.309 179.634 275.592 179.634 275.905C179.634 276.532 179.227 276.845 178.412 276.845H165.72C164.968 276.845 164.373 276.532 163.934 275.905L148.516 252.87C148.265 252.368 147.921 252.118 147.482 252.118C147.043 252.118 146.698 252.368 146.448 252.87L130.936 275.905C130.497 276.532 129.902 276.845 129.15 276.845H116.458ZM204.796 276.845C203.794 276.845 203.292 276.344 203.292 275.341V218.74C203.292 217.738 202.79 217.236 201.788 217.236H182.892C181.889 217.236 181.388 216.735 181.388 215.732V206.612C181.388 205.609 181.889 205.107 182.892 205.107H237.136C238.139 205.107 238.64 205.609 238.64 206.612V215.732C238.64 216.735 238.139 217.236 237.136 217.236H218.334C217.332 217.236 216.83 217.738 216.83 218.74V275.341C216.83 276.344 216.328 276.845 215.326 276.845H204.796ZM246.621 276.845C245.617 276.845 245.117 276.344 245.117 275.341V206.612C245.117 205.609 245.617 205.107 246.621 205.107H276.046C283.066 205.107 288.612 206.862 292.686 210.373C296.759 213.82 298.797 219.116 298.797 226.262C298.797 230.524 297.919 234.285 296.165 237.545C294.409 240.741 291.934 243.217 288.738 244.972C287.922 245.411 287.672 246.069 287.986 246.947L299.737 275.059C299.8 275.247 299.831 275.466 299.831 275.717C299.831 276.469 299.392 276.845 298.515 276.845H287.234C286.356 276.845 285.792 276.438 285.542 275.623L275.106 249.391C274.855 248.576 274.291 248.169 273.414 248.169H260.159C259.155 248.169 258.654 248.67 258.654 249.673V275.341C258.654 276.344 258.153 276.845 257.15 276.845H246.621ZM274.166 236.322C277.801 236.322 280.559 235.507 282.439 233.878C284.382 232.248 285.354 229.866 285.354 226.732C285.354 223.661 284.382 221.31 282.439 219.681C280.495 218.051 277.739 217.236 274.166 217.236H260.159C259.155 217.236 258.654 217.738 258.654 218.74V234.818C258.654 235.821 259.155 236.322 260.159 236.322H274.166ZM305.044 276.845C304.542 276.845 304.166 276.688 303.916 276.375C303.666 276.062 303.634 275.623 303.822 275.059L328.077 206.33C328.327 205.515 328.923 205.107 329.863 205.107H342.085C342.899 205.107 343.495 205.515 343.871 206.33L368.032 275.059L368.22 275.811C368.22 276.124 368.094 276.375 367.844 276.563C367.593 276.751 367.28 276.845 366.904 276.845H355.716C354.838 276.845 354.274 276.438 354.024 275.623L349.982 263.306C349.794 262.491 349.23 262.084 348.289 262.084H323.564C322.687 262.084 322.123 262.491 321.872 263.306L317.83 275.623C317.642 276.438 317.078 276.845 316.138 276.845H305.044ZM344.059 250.237C344.561 250.237 344.905 250.081 345.093 249.767C345.343 249.454 345.407 249.046 345.281 248.545L336.914 222.971C336.726 222.282 336.412 221.937 335.974 221.937C335.472 221.937 335.128 222.282 334.94 222.971L326.667 248.545C326.605 248.67 326.573 248.858 326.573 249.109C326.573 249.861 327.011 250.237 327.889 250.237H344.059Z" fill="black"/>
<path d="M475.196 276.845C474.194 276.845 473.692 276.344 473.692 275.341V206.612C473.692 205.609 474.194 205.107 475.196 205.107H504.622C511.641 205.107 517.188 206.862 521.262 210.373C525.336 213.82 527.373 219.116 527.373 226.262C527.373 230.524 526.495 234.285 524.74 237.545C522.986 240.741 520.51 243.217 517.313 244.972C516.499 245.411 516.248 246.069 516.561 246.947L528.313 275.059C528.375 275.247 528.407 275.466 528.407 275.717C528.407 276.469 527.968 276.845 527.091 276.845H515.809C514.931 276.845 514.367 276.438 514.117 275.623L503.682 249.391C503.431 248.576 502.867 248.169 501.99 248.169H488.734C487.732 248.169 487.23 248.67 487.23 249.673V275.341C487.23 276.344 486.728 276.845 485.726 276.845H475.196ZM502.742 236.322C506.376 236.322 509.134 235.507 511.015 233.878C512.957 232.248 513.929 229.866 513.929 226.732C513.929 223.661 512.957 221.31 511.015 219.681C509.072 218.051 506.314 217.236 502.742 217.236H488.734C487.732 217.236 487.23 217.738 487.23 218.74V234.818C487.23 235.821 487.732 236.322 488.734 236.322H502.742ZM539.072 276.845C538.07 276.845 537.568 276.344 537.568 275.341V206.612C537.568 205.609 538.07 205.107 539.072 205.107H558.439C570.536 205.107 579.811 208.21 586.266 214.415C592.722 220.621 595.949 229.49 595.949 241.023C595.949 252.494 592.69 261.332 586.172 267.537C579.717 273.742 570.472 276.845 558.439 276.845H539.072ZM558.251 264.716C565.897 264.716 571.82 262.899 576.019 259.263C580.281 255.565 582.411 249.485 582.411 241.023C582.411 233 580.281 227.046 576.019 223.159C571.758 219.211 565.866 217.236 558.345 217.236H552.61C551.608 217.236 551.106 217.738 551.106 218.74V263.212C551.106 264.215 551.608 264.716 552.61 264.716H558.251ZM606.529 276.845C605.527 276.845 605.025 276.344 605.025 275.341V206.612C605.025 205.609 605.527 205.107 606.529 205.107H617.058C618.062 205.107 618.562 205.609 618.562 206.612V275.341C618.562 276.344 618.062 276.845 617.058 276.845H606.529ZM631.938 276.845C630.935 276.845 630.434 276.344 630.434 275.341V206.612C630.434 205.609 630.935 205.107 631.938 205.107H644.535C645.287 205.107 645.883 205.452 646.322 206.142L673.303 253.434C673.554 253.936 673.899 254.186 674.337 254.186C674.839 254.186 675.089 253.779 675.089 252.964V206.612C675.089 205.609 675.591 205.107 676.593 205.107H687.122C688.126 205.107 688.627 205.609 688.627 206.612V275.341C688.627 276.344 688.126 276.845 687.122 276.845H674.525C673.711 276.845 673.115 276.5 672.739 275.811L645.757 228.425C645.445 227.923 645.099 227.672 644.723 227.672C644.535 227.672 644.347 227.798 644.159 228.048C644.035 228.299 643.971 228.613 643.971 228.989V275.341C643.971 276.344 643.471 276.845 642.467 276.845H631.938ZM696.513 276.845C696.011 276.845 695.635 276.688 695.385 276.375C695.135 276.062 695.103 275.623 695.291 275.059L719.546 206.33C719.796 205.515 720.392 205.107 721.332 205.107H733.553C734.368 205.107 734.964 205.515 735.34 206.33L759.501 275.059L759.689 275.811C759.689 276.124 759.563 276.375 759.313 276.563C759.062 276.751 758.749 276.845 758.372 276.845H747.185C746.307 276.845 745.743 276.438 745.493 275.623L741.45 263.306C741.262 262.491 740.698 262.084 739.758 262.084H715.033C714.155 262.084 713.591 262.491 713.341 263.306L709.299 275.623C709.111 276.438 708.546 276.845 707.606 276.845H696.513ZM735.528 250.237C736.03 250.237 736.374 250.081 736.562 249.767C736.812 249.454 736.876 249.046 736.75 248.545L728.383 222.971C728.195 222.282 727.881 221.937 727.443 221.937C726.941 221.937 726.597 222.282 726.409 222.971L718.136 248.545C718.073 248.67 718.042 248.858 718.042 249.109C718.042 249.861 718.48 250.237 719.358 250.237H735.528ZM767.77 276.845C766.767 276.845 766.266 276.344 766.266 275.341V206.612C766.266 205.609 766.767 205.107 767.77 205.107H797.196C804.215 205.107 809.761 206.862 813.836 210.373C817.909 213.82 819.946 219.116 819.946 226.262C819.946 230.524 819.068 234.285 817.314 237.545C815.558 240.741 813.083 243.217 809.887 244.972C809.072 245.411 808.821 246.069 809.135 246.947L820.886 275.059C820.949 275.247 820.98 275.466 820.98 275.717C820.98 276.469 820.541 276.845 819.664 276.845H808.383C807.505 276.845 806.941 276.438 806.691 275.623L796.255 249.391C796.004 248.576 795.44 248.169 794.563 248.169H781.308C780.304 248.169 779.804 248.67 779.804 249.673V275.341C779.804 276.344 779.302 276.845 778.299 276.845H767.77ZM795.315 236.322C798.95 236.322 801.708 235.507 803.588 233.878C805.531 232.248 806.503 229.866 806.503 226.732C806.503 223.661 805.531 221.31 803.588 219.681C801.645 218.051 798.888 217.236 795.315 217.236H781.308C780.304 217.236 779.804 217.738 779.804 218.74V234.818C779.804 235.821 780.304 236.322 781.308 236.322H795.315ZM849.454 276.845C848.451 276.845 847.95 276.344 847.95 275.341V249.767C847.95 249.266 847.792 248.639 847.48 247.887L822.849 206.894C822.661 206.58 822.567 206.298 822.567 206.048C822.567 205.421 823.005 205.107 823.883 205.107H836.387C837.201 205.107 837.797 205.452 838.173 206.142L853.967 233.69C854.279 234.254 854.625 234.536 855.001 234.536C855.439 234.536 855.783 234.254 856.035 233.69L871.829 206.142C872.329 205.452 872.957 205.107 873.709 205.107H886.119C886.995 205.107 887.435 205.421 887.435 206.048C887.435 206.298 887.341 206.58 887.153 206.894L862.71 247.887C862.334 248.514 862.146 249.14 862.146 249.767V275.341C862.146 276.344 861.644 276.845 860.641 276.845H849.454Z" fill="black"/>
<path d="M431.008 214.937C419.569 206.977 407.22 202.784 396.559 202.363C385.874 201.942 377.156 205.296 372.44 212.073C367.724 218.851 367.61 228.192 371.718 238.066C375.816 247.917 384.038 258.042 395.477 266.002C406.916 273.963 419.266 278.155 429.926 278.575C440.612 278.996 449.329 275.643 454.045 268.865C458.761 262.088 458.876 252.747 454.768 242.873C450.669 233.022 442.446 222.898 431.008 214.937Z" stroke="black" stroke-width="3.10513"/>
</svg>
