<svg width="944" height="482" viewBox="0 0 944 482" fill="none" xmlns="http://www.w3.org/2000/svg">
<g clip-path="url(#clip0_138_16)">
<path d="M374.206 170.466L351.088 151.256C341.053 142.915 326.51 142.915 316.502 151.256L288.536 174.48L260.622 151.256C250.588 142.915 236.07 142.915 226.036 151.256L202.866 170.492C194.082 177.739 189 188.556 189 199.973V247.803C189 259.194 194.056 269.985 202.814 277.283L264.01 328.164C278.215 339.971 298.831 339.971 313.035 328.164L374.232 277.283C382.989 269.985 388.071 259.194 388.071 247.777V199.947C388.071 188.556 382.989 177.739 374.232 170.466H374.206ZM370.01 244.623C370.01 252.677 366.413 260.289 360.236 265.45L305.816 310.7C295.781 319.041 281.238 319.041 271.204 310.7L216.783 265.45C210.606 260.315 207.036 252.677 207.036 244.623V203.153C207.036 195.098 210.633 187.461 216.81 182.326L233.203 168.72C239.068 163.872 247.538 163.872 253.376 168.72L274.409 186.21L243.707 211.702C236.122 218.01 236.096 229.661 243.707 235.969L278.345 264.85C284.209 269.724 292.68 269.724 298.544 264.85L333.286 235.969C340.871 229.661 340.871 218.01 333.286 211.702L316.423 197.679C315.589 196.975 314.364 196.975 313.53 197.679L302.949 206.463C301.854 207.375 301.854 209.017 302.949 209.93L315.485 220.356C317.648 222.154 317.648 225.491 315.485 227.289L291.324 247.386C289.656 248.768 287.233 248.768 285.564 247.386L261.482 227.316C259.319 225.517 259.319 222.181 261.482 220.382L280.977 204.195L285.617 200.337L302.61 186.21L316.111 175.002L323.669 168.72C329.533 163.872 338.004 163.872 343.842 168.72L360.21 182.3C366.387 187.435 369.984 195.072 369.984 203.127V244.623H370.01Z" fill="#010101"/>
<path d="M458.963 165.07H502.359C503.479 165.07 504.366 165.983 504.366 167.078V180.215C504.366 181.335 503.453 182.222 502.359 182.222H461.491C452.891 182.222 445.932 189.181 445.932 197.783V211.676C445.932 212.797 446.818 213.683 447.939 213.683H493.132C494.253 213.683 495.139 214.595 495.139 215.69V227.863C495.139 228.984 494.227 229.87 493.132 229.87H447.939C446.818 229.87 445.932 230.782 445.932 231.877V278.196C445.932 279.316 445.019 280.203 443.925 280.203H429.851C428.73 280.203 427.844 279.29 427.844 278.196V196.193C427.844 178.99 441.788 165.044 458.989 165.044" fill="#010101"/>
<path d="M655.767 202.892C650.581 198.226 643.491 195.906 634.5 195.906C634.239 195.906 634.004 195.906 633.77 195.906C633.535 195.906 633.301 195.906 633.066 195.906C624.257 195.906 616.229 199.373 610.339 205.029C609.687 205.629 608.645 205.186 608.645 204.299V200.129C608.645 199.008 607.733 198.122 606.638 198.122H593.502C592.381 198.122 591.495 199.034 591.495 200.129V278.222C591.495 279.343 592.381 280.229 593.502 280.229H607.602C608.697 280.229 609.609 279.317 609.609 278.222V231.799C609.609 228.827 610.078 226.038 611.043 223.38C612.007 220.721 613.31 218.427 615.004 216.472C616.698 214.517 618.757 212.979 621.207 211.858C623.631 210.738 626.394 210.19 629.469 210.19C634.864 210.19 638.852 211.65 641.38 214.569C643.934 217.489 645.29 222.154 645.498 228.619V278.222C645.498 279.343 646.41 280.229 647.505 280.229H661.579C662.7 280.229 663.586 279.317 663.586 278.222V223.849C663.586 214.543 660.98 207.532 655.819 202.892H655.767Z" fill="#010101"/>
<path d="M578.177 200.103V287.658C578.177 304.861 564.233 318.806 547.032 318.806H512.472C511.351 318.806 510.465 317.894 510.465 316.799V303.662C510.465 302.541 511.377 301.655 512.472 301.655H544.503C553.104 301.655 561.028 294.513 561.028 285.911V274.051C561.028 273.165 559.959 272.696 559.307 273.322C553.417 278.952 545.416 282.445 536.606 282.445C536.372 282.445 536.137 282.445 535.876 282.445C535.642 282.445 535.381 282.445 535.147 282.445C526.155 282.445 519.066 280.125 513.853 275.459C508.666 270.793 506.06 263.808 506.06 254.502V200.129C506.06 199.034 506.972 198.122 508.067 198.122H522.141C523.262 198.122 524.148 199.034 524.148 200.129V249.732C524.356 256.196 525.738 260.862 528.266 263.782C530.82 266.701 534.782 268.161 540.177 268.161C543.252 268.161 545.989 267.613 548.439 266.492C550.863 265.372 552.948 263.834 554.642 261.879C556.336 259.924 557.665 257.604 558.604 254.971C559.568 252.313 560.037 249.524 560.037 246.552V200.129C560.037 199.034 560.949 198.122 562.044 198.122H576.144C577.239 198.122 578.151 199.034 578.151 200.129" fill="#010101"/>
<path d="M735.912 167.078V204.326C735.912 205.212 734.844 205.655 734.218 205.056C731.195 202.162 727.624 199.842 723.688 198.252C723.558 198.2 723.428 198.122 723.271 198.07C714.28 194.317 702.864 196.324 702.864 196.324C700.284 196.741 697.703 197.392 695.175 198.383C690.875 200.025 687.07 202.579 683.733 206.098C680.397 209.591 677.713 214.048 675.706 219.444C673.699 224.839 672.683 231.252 672.683 238.654C672.683 244.806 673.491 250.54 675.054 255.884C676.644 261.227 679.016 265.867 682.196 269.777C685.375 273.687 689.363 276.788 694.185 279.082C699.007 281.35 704.636 282.497 711.1 282.497C711.256 282.497 711.439 282.497 711.595 282.497C711.856 282.497 712.116 282.497 712.403 282.497C721.239 282.497 729.24 279.004 735.13 273.348C735.782 272.748 736.824 273.191 736.824 274.078V278.274C736.824 279.395 737.737 280.281 738.831 280.281H751.967C753.088 280.281 753.974 279.369 753.974 278.274V167.078C753.974 165.957 753.062 165.071 751.967 165.071H737.893C736.772 165.071 735.886 165.983 735.886 167.078M696.296 259.429C694.445 256.796 693.064 253.772 692.178 250.384C691.266 246.995 690.823 243.555 690.823 240.062C690.823 236.361 691.214 232.737 692.022 229.192C692.803 225.647 694.133 222.467 695.983 219.678C697.834 216.863 700.205 214.596 703.125 212.849C706.044 211.103 709.614 210.217 713.837 210.217C720.822 210.217 726.347 212.745 730.439 217.828C734.505 222.911 736.564 230 736.564 239.097C736.564 242.694 736.121 246.213 735.208 249.654C734.296 253.095 732.941 256.197 731.09 258.933C729.24 261.696 726.868 263.912 723.949 265.606C721.03 267.3 717.564 268.161 713.55 268.161C709.536 268.161 706.252 267.379 703.385 265.789C700.518 264.199 698.172 262.087 696.322 259.429" fill="#010101"/>
</g>
<defs>
<clipPath id="clip0_138_16">
<rect width="565" height="192" fill="white" transform="translate(189 145)"/>
</clipPath>
</defs>
</svg>
