<svg width="944" height="482" viewBox="0 0 944 482" fill="none" xmlns="http://www.w3.org/2000/svg">
<g clip-path="url(#clip0_139_3797)">
<path d="M831.045 305.572C833.639 305.678 835.757 304.989 837.399 303.508C839.093 302.08 840.417 300.175 841.37 297.793C842.323 295.412 842.983 292.739 843.354 289.776C843.725 286.865 843.911 283.982 843.911 281.125V268.186C843.911 265.116 844.254 262.207 844.943 259.455C845.684 256.703 846.795 254.137 848.278 251.756C849.761 249.375 851.614 247.258 853.837 245.406C856.114 243.501 858.815 241.887 861.938 240.563C859.397 239.505 857.146 238.235 855.188 236.753C853.229 235.271 851.535 233.632 850.105 231.832C847.987 229.187 846.426 226.249 845.419 223.022C844.413 219.74 843.911 216.275 843.911 212.623V199.686C843.911 196.828 843.831 193.944 843.672 191.033C843.567 188.07 843.117 185.398 842.323 183.017C841.528 180.636 840.258 178.731 838.511 177.302C836.763 175.82 834.274 175.132 831.045 175.238L833.746 162.776C839.41 162.776 844.175 163.94 848.041 166.268C851.905 168.544 855.055 171.613 857.491 175.476C859.82 178.968 861.461 182.884 862.414 187.223C863.421 191.51 863.924 195.664 863.924 199.686V212.623C863.924 215.586 864.188 218.206 864.718 220.482C865.3 222.757 866.173 224.688 867.338 226.276C868.873 228.445 871.018 230.033 873.772 231.038C876.577 232.044 879.939 232.547 883.857 232.547V248.422C879.463 248.422 875.81 249.057 872.897 250.327C869.985 251.544 867.788 253.528 866.306 256.28C865.512 257.762 864.902 259.508 864.479 261.518C864.108 263.477 863.924 265.699 863.924 268.186V281.125C863.924 285.252 863.314 289.538 862.097 293.983C860.879 298.428 859.079 302.397 856.696 305.89C854.314 309.541 851.191 312.477 847.325 314.7C843.513 316.975 838.987 318.113 833.746 318.113L831.045 305.572Z" fill="#D82D2D"/>
<path d="M729.579 289.539V203.655H749.592L750.941 215.561C752.053 213.974 753.271 212.518 754.594 211.195C755.918 209.872 757.321 208.682 758.804 207.624C761.345 205.824 764.124 204.449 767.142 203.496C770.16 202.544 773.363 202.067 776.752 202.067C781.094 202.067 785.065 202.702 788.665 203.972C792.264 205.242 795.389 207.253 798.036 210.005C800.63 212.809 802.642 216.407 804.071 220.8C805.554 225.138 806.295 230.43 806.295 236.675V289.539H784.217V236.992C784.217 233.605 783.82 230.827 783.025 228.657C782.285 226.435 781.199 224.689 779.77 223.419C778.34 222.149 776.62 221.276 774.607 220.8C772.596 220.27 770.319 220.006 767.777 220.006C765.66 220.006 763.701 220.244 761.901 220.72C760.153 221.196 758.592 221.911 757.216 222.864C756.104 223.551 755.097 224.371 754.198 225.324C753.298 226.276 752.477 227.334 751.735 228.499V289.539H729.579Z" fill="#D82D2D"/>
<path d="M628.878 245.802C628.878 239.558 629.778 233.791 631.579 228.499C633.379 223.154 636.026 218.524 639.52 214.609C642.961 210.692 647.171 207.624 652.147 205.401C657.177 203.179 662.922 202.067 669.381 202.067C675.84 202.067 681.584 203.179 686.614 205.401C691.644 207.624 695.906 210.692 699.4 214.609C702.841 218.524 705.463 223.154 707.262 228.499C709.063 233.791 709.962 239.558 709.962 245.802V247.47C709.962 253.767 709.063 259.587 707.262 264.932C705.463 270.223 702.841 274.827 699.4 278.744C695.959 282.659 691.723 285.729 686.694 287.951C681.664 290.12 675.946 291.205 669.54 291.205C663.081 291.205 657.31 290.12 652.227 287.951C647.198 285.729 642.961 282.659 639.52 278.744C636.026 274.827 633.379 270.223 631.579 264.932C629.778 259.587 628.878 253.767 628.878 247.47V245.802ZM650.956 247.47C650.956 251.068 651.301 254.455 651.988 257.63C652.677 260.752 653.762 263.477 655.245 265.805C656.728 268.186 658.634 270.064 660.963 271.441C663.345 272.817 666.204 273.505 669.54 273.505C672.77 273.505 675.549 272.817 677.878 271.441C680.208 270.064 682.114 268.186 683.596 265.805C685.025 263.477 686.085 260.752 686.773 257.63C687.461 254.455 687.806 251.068 687.806 247.47V245.802C687.806 242.31 687.461 239.003 686.773 235.881C686.085 232.758 685.025 230.007 683.596 227.626C682.114 225.245 680.208 223.365 677.878 221.99C675.549 220.614 672.716 219.926 669.381 219.926C666.099 219.926 663.292 220.614 660.963 221.99C658.634 223.365 656.728 225.245 655.245 227.626C653.762 230.007 652.677 232.758 651.988 235.881C651.301 239.003 650.956 242.31 650.956 245.802V247.47Z" fill="#D82D2D"/>
<path d="M562.565 271.837H613.154V289.539H532.387V275.886L580.513 221.594H533.499V203.655H611.168V216.91L562.565 271.837Z" fill="#D82D2D"/>
<path d="M442.408 203.655H489.184V271.6H512.454V289.539H442.408V271.6H466.869V221.672H442.408V203.655ZM465.28 181.667C465.28 179.975 465.571 178.414 466.153 176.984C466.788 175.503 467.663 174.233 468.775 173.174C469.886 172.169 471.21 171.375 472.745 170.793C474.334 170.211 476.081 169.92 477.987 169.92C481.904 169.92 485.002 171.031 487.278 173.254C489.608 175.423 490.772 178.228 490.772 181.667C490.772 185.107 489.608 187.939 487.278 190.161C485.002 192.33 481.904 193.415 477.987 193.415C476.081 193.415 474.334 193.124 472.745 192.542C471.21 191.959 469.886 191.139 468.775 190.081C467.663 189.075 466.788 187.859 466.153 186.43C465.571 184.948 465.28 183.36 465.28 181.667Z" fill="#D82D2D"/>
<path d="M400.555 202.067C403.89 202.067 406.961 202.305 409.767 202.781C412.626 203.204 414.93 203.68 416.677 204.21L413.42 226.197C410.509 225.509 407.518 225.006 404.447 224.689C401.429 224.318 398.543 224.134 395.79 224.134C392.931 224.134 390.337 224.398 388.007 224.927C385.731 225.404 383.693 226.144 381.892 227.15C379.722 228.313 377.868 229.795 376.333 231.595C374.798 233.393 373.528 235.51 372.521 237.945V289.539H350.443V203.655H371.012L371.886 215.799L372.045 217.704C375.539 212.836 379.722 209.026 384.593 206.274C389.463 203.469 394.785 202.067 400.555 202.067Z" fill="#D82D2D"/>
<path d="M238.148 245.802C238.148 239.558 239.048 233.791 240.849 228.499C242.649 223.154 245.296 218.524 248.79 214.609C252.231 210.692 256.441 207.624 261.417 205.401C266.447 203.179 272.192 202.067 278.651 202.067C285.11 202.067 290.854 203.179 295.884 205.401C300.914 207.624 305.176 210.692 308.67 214.609C312.111 218.524 314.733 223.154 316.532 228.499C318.333 233.791 319.232 239.558 319.232 245.802V247.47C319.232 253.767 318.333 259.587 316.532 264.932C314.733 270.223 312.111 274.827 308.67 278.744C305.229 282.659 300.993 285.729 295.964 287.951C290.934 290.12 285.216 291.205 278.81 291.205C272.351 291.205 266.58 290.12 261.497 287.951C256.468 285.729 252.231 282.659 248.79 278.744C245.296 274.827 242.649 270.223 240.849 264.932C239.048 259.587 238.148 253.767 238.148 247.47V245.802ZM260.226 247.47C260.226 251.068 260.571 254.455 261.258 257.63C261.947 260.752 263.032 263.477 264.515 265.805C265.998 268.186 267.904 270.064 270.233 271.441C272.615 272.817 275.474 273.505 278.81 273.505C282.04 273.505 284.819 272.817 287.148 271.441C289.478 270.064 291.384 268.186 292.866 265.805C294.295 263.477 295.355 260.752 296.043 257.63C296.731 254.455 297.076 251.068 297.076 247.47V245.802C297.076 242.31 296.731 239.003 296.043 235.881C295.355 232.758 294.295 230.007 292.866 227.626C291.384 225.245 289.478 223.365 287.148 221.99C284.819 220.614 281.986 219.926 278.651 219.926C275.369 219.926 272.562 220.614 270.233 221.99C267.904 223.365 265.998 225.245 264.515 227.626C263.032 230.007 261.947 232.758 261.258 235.881C260.571 239.003 260.226 242.31 260.226 245.802V247.47Z" fill="#D82D2D"/>
<path d="M165.562 215.481C166.674 213.84 167.891 212.332 169.215 210.957C170.591 209.528 172.021 208.284 173.503 207.226C175.78 205.585 178.295 204.315 181.047 203.416C183.801 202.517 186.713 202.067 189.783 202.067C194.284 202.067 198.414 202.754 202.172 204.131C205.932 205.453 209.161 207.543 211.861 210.401C214.561 213.258 216.653 216.936 218.136 221.435C219.671 225.88 220.438 231.25 220.438 237.547V289.538H198.36V237.388C198.36 234.319 197.964 231.673 197.17 229.451C196.429 227.228 195.342 225.429 193.913 224.053C192.483 222.678 190.763 221.672 188.751 221.037C186.74 220.349 184.463 220.006 181.922 220.006C179.962 220.006 178.136 220.19 176.441 220.561C174.747 220.932 173.212 221.487 171.835 222.228C170.564 222.863 169.4 223.63 168.341 224.53C167.336 225.429 166.409 226.435 165.562 227.546V289.538H143.484V167.618H165.562V215.481Z" fill="#D82D2D"/>
<path d="M109.255 318.113C104.013 318.113 99.4602 316.949 95.5953 314.621C91.7833 312.345 88.6861 309.461 86.3036 305.968C83.7622 302.317 81.9091 298.295 80.7444 293.903C79.6326 289.564 79.0767 285.304 79.0767 281.125V268.186C79.0767 261.148 77.4353 256.094 74.1528 253.026C70.8702 249.956 65.8669 248.422 59.1431 248.422V232.547C65.8669 232.547 70.8702 231.012 74.1528 227.943C77.4353 224.874 79.0767 219.767 79.0767 212.623V199.686C79.0767 195.188 79.712 190.557 80.9827 185.795C82.2533 180.979 84.2652 176.799 87.0183 173.253C89.2948 170.184 92.2863 167.671 95.9924 165.713C99.6984 163.755 104.119 162.776 109.255 162.776L111.955 175.238C108.726 175.132 106.237 175.82 104.49 177.302C102.743 178.731 101.472 180.636 100.678 183.017C99.8838 185.398 99.4073 188.07 99.2485 191.033C99.1425 193.944 99.0897 196.828 99.0897 199.686V212.623C99.0897 218.92 97.5278 224.503 94.4041 229.372C91.3333 234.24 86.5418 237.945 80.0297 240.485C86.5947 243.025 91.4127 246.701 94.4835 251.517C97.5542 256.333 99.0897 261.889 99.0897 268.186V281.125C99.0897 283.982 99.2485 286.865 99.5662 289.776C99.9367 292.739 100.599 295.412 101.552 297.793C102.505 300.175 103.802 302.08 105.443 303.508C107.137 304.989 109.308 305.678 111.955 305.572L109.255 318.113Z" fill="#D82D2D"/>
</g>
<defs>
<clipPath id="clip0_139_3797">
<rect width="944" height="482" fill="white"/>
</clipPath>
</defs>
</svg>
