<svg width="944" height="482" viewBox="0 0 944 482" fill="none" xmlns="http://www.w3.org/2000/svg">
<g clip-path="url(#clip0_139_3718)">
<mask id="mask0_139_3718" style="mask-type:luminance" maskUnits="userSpaceOnUse" x="55" y="94" width="833" height="294">
<path d="M888 94H55V388H888V94Z" fill="white"/>
</mask>
<g mask="url(#mask0_139_3718)">
<path d="M888 94.7676H55V388.768H888V94.7676Z" fill="#9E1E29"/>
<path fill-rule="evenodd" clip-rule="evenodd" d="M641.338 241.168H654.876V175.595H641.338V241.168ZM681.136 186.844V204.112H693.306C704.18 204.112 707.852 203.009 707.852 194.782C707.852 188.211 705.572 186.844 694.146 186.844H681.16H681.136ZM667.598 175.595H696.042C709.653 175.595 721.558 175.979 721.558 195.262C721.558 208.046 716.254 212.819 708.764 214.569L725.855 241.168H709.388L693.306 215.361H681.136V241.168H667.598V175.595ZM742.946 220.589C743.474 227.449 744.506 231.095 757.492 231.095C764.357 231.095 769.374 230.087 769.374 223.42C769.374 219.39 767.549 217.208 761.789 215.649L745.874 211.356C737.929 209.245 730.872 205.407 730.872 193.439C730.872 184.013 735.168 174.132 755.476 174.132C775.783 174.132 780.799 183.102 781.087 194.782H767.549C766.901 189.314 766.637 185.644 754.923 185.644C748.082 185.644 744.602 186.915 744.602 192.12C744.602 196.893 747.434 198.26 751.299 199.267L765.917 203.201C775.255 205.647 783.104 209.317 783.104 222.388C783.104 240.88 767.285 242.607 757.516 242.607C736.105 242.607 730.248 234.189 729.456 220.566H742.994L742.946 220.589ZM806.051 187.131H786.296V175.595H839.248V187.131H819.589V241.168H806.051V187.131ZM362.607 310.651V327.943H374.777C387.115 327.943 389.851 327.032 389.851 319.525C389.851 311.658 387.307 310.651 377.418 310.651H362.607ZM362.607 284.868V299.402H377.802C385.939 299.402 387.955 298.395 387.955 291.631C387.955 286.139 386.683 284.844 375.257 284.844H362.631L362.607 284.868ZM381.066 273.619C393.98 273.619 401.013 278.176 401.013 290.648C401.013 300.793 396.356 302.88 393.524 304.079C401.565 307.173 403.582 313.409 403.582 320.268C403.582 331.061 398.637 339.192 380.538 339.192H349.093V273.643H381.09L381.066 273.619ZM440.979 316.959L432.098 318.422C427.249 319.141 423.793 320.148 423.793 325.281C423.793 328.927 425.593 330.965 431.258 330.965C439.035 330.965 440.979 326.744 440.979 320.82V316.983V316.959ZM412.535 305.614C413.159 293.166 420.288 289.784 433.298 289.784C446.308 289.784 453.677 293.334 453.677 303.863V339.168H441.531V335.522C439.083 338.089 434.402 340.367 426.721 340.367C415.199 340.367 411.071 335.235 411.071 327.032C411.071 316.335 418.008 312.282 425.065 311.202L440.979 308.732V305.83C440.979 301.345 438.675 300.05 432.746 300.05C426.433 300.05 425.161 301.513 424.513 305.638H412.535V305.614ZM495.924 311.466C495.924 304.079 495.852 300.218 487.69 300.218C478.617 300.218 477.609 304.966 477.609 316.311V339.168H464.911V290.984H476.985V297.195C480.441 292.543 484.21 289.808 493.067 289.808C505.429 289.808 508.622 295.109 508.622 309.739V339.168H495.9V311.466H495.924ZM520.912 273.619H533.609V308.828L549.26 291.008H564.886L548.06 309.308L565.534 339.192H550.796L539.082 318.254L533.585 323.914V339.192H520.888V273.643L520.912 273.619Z" fill="white"/>
<path fill-rule="evenodd" clip-rule="evenodd" d="M118.682 158.398H285.531V325.161H118.682V158.398ZM299.574 144.367H104.616V339.192H299.574V144.367Z" fill="white"/>
<path fill-rule="evenodd" clip-rule="evenodd" d="M136.517 208.118H267.673V176.243H136.517V208.118ZM136.517 307.293H168.417V275.418H136.517V307.293ZM136.517 257.693H218.033V225.818H136.517V257.693ZM349.213 243.543H363.399V176.243H349.213V243.543ZM388.843 187.611V230.663H400.845C413.999 230.663 417.024 225.626 417.024 208.909C417.024 191.089 415.103 187.611 399.357 187.611H388.843ZM402.669 176.362C423.313 176.362 430.73 185.333 430.73 208.837C430.73 232.342 422.857 241.936 402.573 241.936H375.305V176.362H402.669ZM441.243 176.362H487.33V187.611H454.781V202.961H483.226V214.21H454.781V241.912H441.243V176.338V176.362ZM550.436 220.326C549.524 233.133 542.395 243.375 522.184 243.375C501.973 243.375 492.467 233.589 492.467 209.461C492.467 185.333 501.877 174.899 522.28 174.899C538.386 174.899 548.252 181.759 550.436 196.749H536.898C535.338 190.897 533.442 186.412 522.256 186.412C511.07 186.412 506.173 193.104 506.173 210.636C506.173 224.259 509.822 231.862 522.448 231.862C531.521 231.862 535.818 229.032 536.898 220.326H550.436ZM586.466 176.362H632.553V187.611H600.004V202.961H628.448V214.21H600.004V241.912H586.466V176.338V176.362Z" fill="white"/>
</g>
</g>
<defs>
<clipPath id="clip0_139_3718">
<rect width="833" height="294" fill="white" transform="translate(55 94)"/>
</clipPath>
</defs>
</svg>
