<svg width="944" height="482" viewBox="0 0 944 482" fill="none" xmlns="http://www.w3.org/2000/svg">
<path d="M262.957 337.823C264.126 339.29 264.723 340.956 264.723 342.822C264.723 344.414 264.3 345.856 263.479 347.125C262.659 348.393 261.465 349.413 259.898 350.134C258.356 350.855 256.54 351.228 254.451 351.228H241.941V319.965H253.854C255.993 319.965 257.809 320.313 259.351 321.034C260.868 321.756 262.037 322.726 262.808 323.944C263.579 325.163 263.977 326.531 263.977 328.023C263.977 329.839 263.504 331.331 262.534 332.525C261.564 333.719 260.296 334.614 258.654 335.186C260.321 335.485 261.763 336.38 262.932 337.847L262.957 337.823ZM247.064 333.097H253.406C255.073 333.097 256.416 332.699 257.336 331.953C258.281 331.182 258.754 330.088 258.754 328.645C258.754 327.202 258.281 326.133 257.336 325.337C256.391 324.541 255.073 324.143 253.406 324.143H247.064V333.097ZM258.107 345.806C259.102 344.961 259.599 343.792 259.599 342.299C259.599 340.807 259.077 339.539 258.032 338.643C256.988 337.748 255.595 337.3 253.854 337.3H247.114V347.05H254.053C255.794 347.05 257.162 346.627 258.157 345.781H258.132L258.107 345.806Z" fill="#231F20"/>
<path d="M278.8 324.093V333.296H289.594V337.474H278.8V347.05H290.962V351.228H273.677V319.915H290.962V324.093H278.8Z" fill="#231F20"/>
<path d="M326.305 351.228H321.181L305.761 327.874V351.228H300.637V319.915H305.761L321.181 343.22V319.915H326.305V351.228Z" fill="#231F20"/>
<path d="M359.06 328.968C358.24 327.426 357.12 326.232 355.678 325.436C354.235 324.64 352.569 324.242 350.679 324.242C348.614 324.242 346.774 324.715 345.157 325.635C343.541 326.58 342.272 327.898 341.352 329.59C340.432 331.306 339.984 333.271 339.984 335.534C339.984 337.797 340.432 339.787 341.352 341.503C342.272 343.219 343.516 344.562 345.157 345.483C346.774 346.403 348.614 346.875 350.679 346.875C353.464 346.875 355.728 346.104 357.469 344.537C359.21 342.995 360.254 340.856 360.677 338.195H348.938V334.116H366.174V338.121C365.85 340.558 364.98 342.796 363.587 344.811C362.194 346.85 360.379 348.467 358.14 349.686C355.902 350.905 353.415 351.501 350.704 351.501C347.769 351.501 345.083 350.805 342.645 349.462C340.233 348.094 338.293 346.204 336.875 343.766C335.457 341.354 334.736 338.593 334.736 335.534C334.736 332.475 335.457 329.714 336.875 327.301C338.318 324.889 340.233 322.974 342.695 321.606C345.157 320.238 347.818 319.566 350.728 319.566C354.061 319.566 357.021 320.387 359.608 322.029C362.194 323.67 364.084 325.983 365.253 328.968H359.06Z" fill="#231F20"/>
<path d="M393.433 344.836H380.326L378.062 351.228H372.715L383.907 319.915H389.851L401.043 351.228H395.646L393.383 344.836H393.408H393.433ZM392.015 340.658L386.941 326.133L381.818 340.658H392.015Z" fill="#231F20"/>
<path d="M414.449 347.1H425.044V351.228H409.326V319.965H414.449V347.075V347.1Z" fill="#231F20"/>
<path d="M437.754 319.965V339.912C437.754 342.299 438.376 344.065 439.619 345.259C440.863 346.453 442.604 347.075 444.818 347.075C447.031 347.075 448.797 346.478 450.041 345.259C451.284 344.04 451.906 342.275 451.906 339.912V319.965H457.03V339.812C457.03 342.349 456.457 344.513 455.363 346.279C454.269 348.045 452.776 349.363 450.911 350.233C449.046 351.104 447.006 351.527 444.743 351.527C442.48 351.527 440.44 351.104 438.6 350.233C436.759 349.363 435.292 348.045 434.222 346.279C433.153 344.513 432.606 342.349 432.606 339.812V319.965H437.754Z" fill="#231F20"/>
<path d="M483.343 351.228L476.155 338.718H472.25V351.228H467.127V319.965H477.921C480.309 319.965 482.348 320.388 484.015 321.233C485.681 322.079 486.925 323.198 487.745 324.616C488.566 326.033 488.989 327.6 488.989 329.341C488.989 331.381 488.392 333.246 487.223 334.913C486.029 336.579 484.214 337.698 481.751 338.32L489.486 351.278H483.368L483.343 351.228ZM472.226 334.614H477.896C479.811 334.614 481.279 334.142 482.224 333.172C483.194 332.202 483.691 330.908 483.691 329.317C483.691 327.725 483.219 326.431 482.249 325.511C481.279 324.591 479.836 324.143 477.896 324.143H472.226V334.639V334.614Z" fill="#231F20"/>
<path d="M503.987 319.965V339.912C503.987 342.299 504.608 344.065 505.852 345.259C507.095 346.453 508.836 347.075 511.05 347.075C513.264 347.075 515.03 346.478 516.273 345.259C517.517 344.04 518.138 342.275 518.138 339.912V319.965H523.262V339.812C523.262 342.349 522.69 344.513 521.596 346.279C520.501 348.045 519.009 349.363 517.144 350.233C515.278 351.104 513.239 351.527 510.975 351.527C508.712 351.527 506.673 351.104 504.832 350.233C502.992 349.363 501.524 348.045 500.455 346.279C499.385 344.513 498.838 342.349 498.838 339.812V319.965H503.987Z" fill="#231F20"/>
<path d="M912.476 189.439H222.516V191.23H912.476V189.439Z" fill="#231F20"/>
<path d="M379.803 131.016H374.655V172.402H379.803V131.016Z" fill="#231F20"/>
<path d="M489.536 167.825H467.575V153.549H489.114V148.948H467.575V135.617H489.536V131.016H462.427V172.427H489.536V167.825Z" fill="#231F20"/>
<path d="M424.348 172.427L440.987 131.016H435.068L421.115 166.781L407.162 131.016H401.242L417.956 172.427H424.348Z" fill="#231F20"/>
<path d="M319.813 139.397L343.939 172.427H348.913V131.016H343.74V163.349L319.913 131.016H314.64V172.427H319.813V139.397Z" fill="#231F20"/>
<path d="M271.96 173.173C283.202 173.173 288.898 166.607 288.898 156.31V131.065H283.675V156.26C283.675 163.821 279.571 168.621 271.935 168.621C264.3 168.621 260.271 163.846 260.271 156.26V131.065H255.073V156.385C255.073 166.557 260.768 173.198 271.935 173.198L271.96 173.173Z" fill="#231F20"/>
<path d="M858.977 153.549H880.491V148.948H858.977V135.617H880.939V131.016H853.804V172.427H858.977V153.549Z" fill="#231F20"/>
<path d="M719.548 172.427H724.697V154.917L740.962 131.016H734.944L722.085 150.266L709.251 131.016H703.232L719.548 154.917V172.427Z" fill="#231F20"/>
<path d="M663.463 172.427H668.611V135.617H681.768V131.016H650.38V135.617H663.463V172.427Z" fill="#231F20"/>
<path d="M520.427 155.987H528.734L539.23 172.427H545.298L534.131 155.564C539.777 155.067 544.925 150.963 544.925 143.527C544.925 136.09 539.454 131.041 531.893 131.041H515.279V172.427H520.427V155.987ZM520.427 135.617H531.296C536.196 135.617 539.603 138.776 539.603 143.502C539.603 148.227 536.171 151.436 531.296 151.436H520.427V135.617Z" fill="#231F20"/>
<path d="M809.085 173.172C821.322 173.172 829.679 163.995 829.679 151.758C829.679 139.521 821.297 130.344 809.085 130.344C796.873 130.344 788.542 139.521 788.542 151.758C788.542 163.995 796.849 173.172 809.085 173.172ZM809.085 134.945C818.338 134.945 824.356 142.083 824.356 151.783C824.356 161.483 818.338 168.596 809.085 168.596C799.833 168.596 793.864 161.408 793.864 151.783C793.864 142.158 799.759 134.945 809.085 134.945Z" fill="#231F20"/>
<path d="M626.255 131.016H621.107V172.402H626.255V131.016Z" fill="#231F20"/>
<path d="M582.68 168.571C576.86 168.571 572.383 165.711 569.697 162.627L566.588 166.606C569.996 170.462 575.343 173.172 582.456 173.172C593.623 173.172 597.727 166.979 597.727 161.01C597.727 145.565 573.204 150.888 573.204 141.586C573.204 137.681 576.81 135.02 581.71 135.02C586.237 135.02 590.589 136.512 593.698 139.969L596.807 136.189C593.325 132.532 588.425 130.344 582.158 130.344C573.975 130.344 567.881 135.069 567.881 141.884C567.881 156.633 592.405 150.689 592.405 161.359C592.405 164.592 590.042 168.546 582.655 168.546L582.68 168.571Z" fill="#231F20"/>
<path d="M305.064 275.27C303.522 275.27 299.518 287.432 272.234 287.432C262.31 287.432 263.255 284.597 263.255 277.633V220.23C263.255 209.958 271.886 212.917 271.886 210.182C271.886 208.764 271.164 208.54 269.622 208.54C267.857 208.54 265.021 209.013 258.281 209.013C252.511 209.013 248.83 208.54 246.343 208.54C244.801 208.54 243.98 208.764 243.98 210.082C243.98 212.445 253.904 211.624 253.904 217.767V277.658C253.904 283.204 253.68 286.512 250.596 287.93C246.815 289.82 245.646 289.571 245.398 291.014C245.398 291.959 246.119 292.208 247.163 292.208C251.889 292.208 256.838 291.86 261.564 291.735C270.543 291.511 279.521 292.208 288.5 292.208C293.698 292.208 296.31 292.432 300.065 288.204C302.9 285.119 305.96 280.991 305.96 276.738C305.96 276.514 305.86 275.32 305.015 275.32H305.039L305.064 275.27Z" fill="#231F20"/>
<path d="M328.817 282.11V218.688C328.817 209.834 337.323 212.545 337.323 209.709C337.323 208.764 336.975 208.516 335.084 208.516C331.428 208.516 327.772 208.988 324.091 208.988C319.739 208.988 315.461 208.516 311.108 208.516C310.163 208.516 309.939 208.739 309.939 209.834C309.939 212.42 319.39 210.058 319.515 218.688V279.151C319.515 290.84 310.287 286.96 310.287 290.368C310.287 291.537 310.636 292.134 312.775 292.134C314.416 292.134 316.903 291.661 324.116 291.661C329.19 291.661 334.288 292.134 336.975 292.134C338.989 292.134 339.337 291.785 339.337 290.965C339.337 287.433 328.817 290.144 328.817 282.11Z" fill="#231F20"/>
<path d="M423.279 208.54C421.637 208.54 419.846 209.013 414.176 209.013C411.589 209.013 408.978 208.54 406.366 208.54C405.172 208.54 404.6 208.889 404.6 210.082C404.6 212.793 412.161 210.555 412.161 215.977C412.634 218.464 411.216 222.245 410.52 224.011L389.976 274.674C389.379 276.091 389.031 277.982 387.862 277.982C386.568 277.982 385.723 275.271 383.136 269.003L362.468 220.33C361.995 219.285 361.423 217.37 361.423 215.728C361.423 211.475 366.373 211.351 366.273 209.709C366.273 208.988 365.328 208.516 364.632 208.516C362.99 208.516 358.488 208.988 355.305 208.988C351.773 208.988 348.092 208.516 344.436 208.516C343.391 208.516 342.794 209.112 342.794 210.157C342.794 212.744 348.938 210.505 351.873 217.594L381.047 286.562C382.116 289.05 383.509 293.999 385.424 293.999C387.19 293.999 388.011 290.094 389.329 287.134L418.727 217.569C422.035 209.66 425.343 212.619 425.343 210.008C425.343 208.938 424.622 208.466 423.328 208.466H423.304L423.279 208.54Z" fill="#231F20"/>
<path d="M491.7 275.27C490.158 275.27 486.154 287.432 458.87 287.432C448.946 287.432 449.891 284.597 449.891 277.633V255.895C449.891 254.13 449.543 252.115 452.03 252.115H469.515C479.439 252.115 475.409 262.511 479.09 262.511C479.911 262.511 480.384 262.039 480.384 260.969C480.384 257.786 480.16 254.702 480.16 251.618C480.16 247.837 480.384 243.808 480.384 239.679C480.384 238.734 480.035 237.441 479.09 237.441C476.255 237.441 479.439 246.892 467.152 246.892H454.393C449.667 246.892 449.891 246.892 449.891 242.888V220.926C449.891 213.017 449.667 213.489 460.984 213.489C465.709 213.489 477.996 212.768 481.055 216.797C482.945 219.508 481.055 225.179 483.891 225.179C484.587 225.179 486.253 224.234 486.253 211.127C486.253 209.709 486.029 208.54 485.059 208.54C481.403 208.54 470.534 209.013 468.172 209.013C463.222 209.013 457.079 208.54 434.744 208.54C431.337 208.54 430.616 209.013 430.616 209.958C430.616 211.375 433.202 211.599 434.147 211.848C440.539 212.793 440.539 218.464 440.539 223.786V277.633C440.539 283.179 440.316 286.487 437.232 287.905C433.451 289.795 432.282 289.547 432.033 290.989C432.033 291.934 432.755 292.183 433.799 292.183C438.525 292.183 443.474 291.835 448.2 291.71C457.178 291.487 466.132 292.183 475.136 292.183C480.334 292.183 482.945 292.407 486.701 288.179C489.536 285.095 492.596 280.966 492.596 276.713C492.596 276.489 492.496 275.295 491.65 275.295L491.7 275.27Z" fill="#231F20"/>
<path d="M688.235 207.471C664.035 207.471 644.908 225.304 644.908 249.877C644.908 274.45 660.627 292.979 686.245 292.979C711.863 292.979 730.889 275.843 730.889 249.28C730.889 224.832 712.36 207.471 688.259 207.471M691.194 289.423C667.815 289.423 653.514 268.282 653.514 246.445C653.514 227.791 664.855 211.351 684.703 211.351C707.734 211.351 722.259 232.268 722.259 253.757C722.259 275.246 708.455 289.423 691.194 289.423Z" fill="#231F20"/>
<path d="M783.095 207.471C758.895 207.471 739.769 225.304 739.769 249.877C739.769 274.45 755.488 292.979 781.105 292.979C806.723 292.979 825.75 275.843 825.75 249.28C825.75 224.832 807.22 207.471 783.12 207.471M786.055 289.423C762.675 289.423 748.374 268.282 748.374 246.445C748.374 227.791 759.716 211.351 779.538 211.351C802.569 211.351 817.094 232.268 817.094 253.757C817.094 275.246 803.291 289.423 786.03 289.423H786.055Z" fill="#231F20"/>
<path d="M891.062 275.27C889.52 275.27 885.516 287.432 858.232 287.432C848.333 287.432 849.253 284.597 849.253 277.633V220.23C849.253 209.958 857.884 212.917 857.884 210.182C857.884 208.764 857.162 208.54 855.645 208.54C853.879 208.54 851.044 209.013 844.304 209.013C838.534 209.013 834.853 208.54 832.365 208.54C830.823 208.54 830.003 208.764 830.003 210.082C830.003 212.445 839.901 211.624 839.901 217.767V277.658C839.901 283.204 839.678 286.512 836.594 287.93C832.813 289.82 831.644 289.571 831.395 291.014C831.395 291.959 832.117 292.208 833.161 292.208C837.887 292.208 842.836 291.86 847.587 291.735C856.565 291.511 865.544 292.208 874.523 292.208C879.721 292.208 882.307 292.432 886.088 288.204C888.923 285.119 891.982 280.991 891.982 276.738C891.982 276.514 891.858 275.32 891.037 275.32L891.062 275.27Z" fill="#231F20"/>
<path d="M597.404 216.226C597.404 212.694 599.991 212.694 603.771 212.694C617.351 212.694 628.344 220.255 628.344 234.531C628.344 245.151 621.256 250.946 609.218 250.946C604.965 250.946 602.478 250.225 601.533 250.225C600.936 250.225 600.339 250.449 600.339 251.27C600.339 253.409 607.204 253.981 608.372 253.981C633.518 253.981 637.074 236.024 637.074 231.298C637.074 213.689 620.435 208.516 605.413 208.516C599.742 208.516 597.852 208.988 591.932 208.988C585.093 208.988 580.939 208.516 579.895 208.516C578.949 208.516 578.353 209.336 578.353 210.282C578.353 214.535 588.028 207.322 588.028 221.499V278.056C588.028 291.164 578.8 287.508 578.8 290.691C578.8 291.736 579.994 292.109 580.69 292.109C584.098 292.109 588.003 291.636 593.549 291.636C600.513 291.636 602.279 292.109 606.308 292.109C609.268 292.109 609.74 291.512 609.74 290.691C609.74 286.687 597.354 292.83 597.354 275.793V216.176L597.404 216.226Z" fill="#231F20"/>
<path d="M540.722 249.404C548.979 246.096 555.595 238.187 555.595 228.984C555.595 206.202 529.48 208.565 527.615 208.565C521.471 208.565 514.756 209.037 507.891 209.037C501.873 209.037 502.445 208.565 500.331 208.565C498.913 208.565 497.968 209.286 497.968 209.983C497.968 214.012 508.14 209.162 508.14 220.478V280.593C508.14 289.571 499.51 287.905 499.51 290.865C499.51 291.586 499.982 292.158 500.679 292.158C505.181 292.158 509.657 291.685 514.159 291.685C523.958 291.685 526.694 292.158 527.739 292.158C528.684 292.158 529.754 292.382 529.754 291.213C529.754 287.184 517.467 290.865 517.467 280.692V255.771C517.467 254.602 516.746 252.463 520.551 252.463C533.783 252.463 531.992 252.115 536.245 258.731L549.352 279.399C553.854 286.139 558.43 292.158 567.061 292.158C568.105 292.158 574.746 292.158 574.746 290.74C574.746 287.905 568.976 292.282 560.445 279.299L540.722 249.429V249.404ZM517.467 216.797C517.467 212.196 519.954 212.445 524.182 212.445C535.748 212.445 546.741 217.295 546.741 231.695C546.741 246.096 535.399 248.484 530.326 248.484C524.779 248.484 517.442 249.081 517.442 246.842V216.847L517.467 216.797Z" fill="#231F20"/>
<path d="M74.6796 181.928L71.8691 181.207C72.2173 181.505 72.5407 181.779 72.8143 182.052C72.8391 182.077 72.8889 182.127 72.9137 182.152C73.0878 182.326 73.2371 182.475 73.3614 182.624C73.4858 182.773 73.6101 182.898 73.7096 183.047C73.7345 183.097 73.7594 183.122 73.8091 183.171C74.2817 183.818 74.6547 184.514 74.6547 185.161V181.903L74.6796 181.928Z" fill="#231F20"/>
<path d="M65.4522 137.805C65.3278 137.805 64.1091 137.507 63.5122 137.358C62.9153 137.209 62.1692 136.86 61.2738 136.86C60.5276 136.86 57.2197 138.576 57.2197 138.576C57.369 138.651 59.5079 137.905 59.9307 137.805C60.3784 137.756 60.3287 137.805 60.5774 137.805C60.6023 138.278 61.0002 138.402 61.5971 138.402C62.194 138.402 62.592 138.029 62.6915 137.88C63.3879 138.104 64.4573 138.129 64.9548 138.054C65.3527 138.004 65.5766 137.88 65.4771 137.83L65.4522 137.805Z" fill="#231F20"/>
<path d="M114.673 328.695C114.673 328.695 114.748 328.794 114.797 328.844C115.021 329.043 115.195 329.242 115.369 329.441C115.519 329.615 115.668 329.789 115.842 329.988C115.867 330.038 115.917 330.087 115.966 330.137C116.563 330.933 117.036 331.803 117.036 332.649V328.545L113.504 327.65C113.952 327.998 114.35 328.371 114.698 328.695" fill="#231F20"/>
<path d="M105.446 273.106C105.296 273.106 103.729 272.708 102.983 272.559C102.212 272.385 101.292 271.913 100.198 271.913C99.2525 271.913 95.099 274.101 95.099 274.101C95.298 274.176 97.9592 273.231 98.5064 273.131C99.0784 273.057 99.0287 273.131 99.3272 273.131C99.3769 273.728 99.8495 273.853 100.596 273.877C101.342 273.877 101.839 273.405 101.988 273.206C102.859 273.479 104.177 273.504 104.824 273.43C105.321 273.38 105.595 273.206 105.47 273.131L105.446 273.106Z" fill="#231F20"/>
<path d="M99.0783 216.549C98.1581 216.623 97.5611 216.748 96.6409 216.872C95.7455 216.972 95.1486 217.021 94.4273 217.146L94.2781 217.792C95.5466 217.643 95.3973 218.141 95.1237 219.434L93.7061 224.234C93.333 225.702 93.134 226.249 91.7412 226.423L91.5422 227.069C92.3133 226.995 93.5071 226.846 94.2781 226.846H96.815L96.9145 226.199C95.5714 226.199 95.6709 225.801 95.9445 224.16L97.2129 219.086C97.387 217.892 97.7104 217.419 98.9788 217.27L99.0534 216.623L99.0783 216.549Z" fill="#231F20"/>
<path d="M92.5124 219.583L92.7363 216.922C91.1942 217.394 89.7019 217.817 88.1102 218.091C86.8169 218.34 85.4489 218.514 84.4541 218.563L84.3048 219.086C85.5235 219.011 85.5982 219.558 85.1505 221.001L83.4841 226.075C83.0861 227.268 82.9618 227.791 81.3949 228.114L81.171 228.636C82.7131 228.388 83.2851 228.238 84.2551 228.039C85.3743 227.816 86.4687 227.592 87.3889 227.393L87.5381 226.771C86.0956 227.069 85.7474 227.045 86.0707 225.851L87.0158 222.966L87.5879 222.866C88.533 222.717 88.6822 223.438 88.5827 224.458L89.105 224.383C89.2045 223.662 89.304 222.991 89.4035 222.294C89.5278 221.573 89.6771 220.827 89.8263 220.105L89.304 220.18C88.9061 221.498 88.5081 221.996 87.7868 222.145L87.1402 222.269L87.7122 220.105C88.0107 218.837 88.2345 218.762 89.3786 218.539C91.1445 218.165 91.7663 217.842 91.7663 219.707L92.4876 219.558L92.5124 219.583Z" fill="#231F20"/>
<path d="M106.988 226.87C106.863 226.273 106.789 226.05 106.59 224.781C106.366 223.314 105.023 216.598 105.023 216.598L103.879 216.449C103.879 216.449 101.988 220.628 100.546 223.737C100.073 224.806 99.4516 226.199 98.2826 226.199L98.1831 226.846C98.7054 226.87 99.2277 226.87 99.7749 226.92C100.347 226.97 100.919 227.044 101.491 227.119L101.59 226.472C101.093 226.373 100.198 226.273 100.571 225.428C100.844 224.831 100.969 224.632 101.168 224.209L101.416 223.687C101.416 223.687 102.038 223.687 102.834 223.786C103.63 223.886 104.401 224.06 104.401 224.06L104.55 224.707C104.6 224.98 104.675 225.751 104.699 226.025C104.749 226.796 103.928 226.846 103.431 226.746L103.332 227.393C104.202 227.492 104.998 227.666 105.669 227.791C106.54 227.99 107.012 228.164 107.833 228.412L107.933 227.766C107.634 227.641 107.087 227.194 106.988 226.821V226.87ZM102.884 222.916C102.287 222.866 101.74 222.841 101.74 222.841L103.481 219.235L104.252 223.115C104.252 223.115 103.605 223.015 102.884 222.941V222.916Z" fill="#231F20"/>
<path d="M146.434 218.837L146.359 218.24C145.712 218.165 145.389 218.19 144.867 218.115C144.295 218.041 143.822 217.941 143.2 217.916L143.275 218.513C143.748 218.588 144.121 218.787 144.369 219.259C144.668 219.782 144.792 220.553 144.867 221.175L145.165 223.512C145.389 225.577 145.439 226.671 143.35 226.771C141.41 226.87 140.639 225.577 140.44 223.388L140.166 220.677C140.017 219.284 140.017 218.439 141.26 218.414L141.211 217.817C140.191 217.817 139.445 217.817 138.624 217.842C137.928 217.867 137.157 217.842 136.037 217.966L136.087 218.563C137.405 218.563 137.405 219.284 137.555 220.702L137.853 223.537C138.176 227.094 140.539 228.014 142.852 227.915C146.434 227.765 146.135 226.223 145.762 223.139L145.563 221.597C145.514 220.926 145.339 220.254 145.514 219.657C145.663 219.135 146.011 218.886 146.409 218.886L146.434 218.837Z" fill="#231F20"/>
<path d="M155.96 228.04L152.851 223.463L154.094 221.623C154.542 220.902 154.816 220.454 155.537 220.454L155.313 219.807C154.84 219.807 154.542 219.832 154.045 219.807C153.572 219.782 153.149 219.733 152.577 219.633L152.627 220.28C153.224 220.354 153.846 220.703 153.597 221.125C153.398 221.424 153.274 221.648 153.05 221.921L152.428 222.767L151.582 221.474C151.309 221.076 151.284 220.951 151.234 220.578C151.184 220.056 151.707 220.155 152.055 220.18L152.005 219.484C151.358 219.409 150.662 219.335 149.916 219.185C149.17 219.036 148.449 218.862 147.777 218.663V219.285C148.125 219.509 148.424 219.534 148.747 220.006C148.996 220.354 149.269 220.703 149.443 221.1L151.334 223.961L149.717 226.448C149.319 227.07 148.871 227.691 148.125 227.592V228.239C148.697 228.313 149.17 228.413 149.717 228.487C150.314 228.612 150.786 228.711 151.533 228.86L151.483 228.239C151.01 228.139 150.513 228.015 150.463 227.343C150.413 226.871 150.811 226.174 151.06 225.826L151.781 224.732L153.124 226.771C153.298 227.045 153.846 227.791 153.846 228.089C153.846 228.288 153.771 228.438 153.647 228.487C153.522 228.537 152.975 228.537 152.851 228.512L152.925 229.109C153.721 229.258 154.567 229.358 155.288 229.457C156.208 229.582 156.681 229.706 157.676 229.855L157.576 229.258C156.905 229.159 156.482 228.587 155.935 227.915L155.96 228.04Z" fill="#231F20"/>
<path d="M208.289 110.397C208.289 110.397 174.961 105 121.636 105C68.3118 105 35.0089 110.397 35.0089 110.397C35.0089 110.397 16.9522 242.962 69.3067 322.501C87.0401 349.462 121.537 375.925 121.636 376C121.736 375.925 156.233 349.437 173.966 322.501C226.321 242.962 208.289 110.397 208.289 110.397ZM67.1926 179.217C59.5073 175.262 54.0107 166.134 59.184 156.683C63.9344 148.053 64.2578 144.571 63.437 143.252C62.6163 141.934 57.2689 142.457 57.2689 142.457C57.2689 142.457 56.5973 142.68 55.7517 142.755V140.467C55.7517 140.467 55.2543 139.497 54.6325 139.969C54.6325 139.969 55.0056 140.193 55.0304 140.865C55.0553 141.561 54.9807 142.805 54.9807 142.805C54.8563 144.347 54.5081 145.764 54.0356 147.033C54.2097 147.282 54.5828 147.555 54.7569 147.779C54.8563 147.878 55.304 148.451 55.0553 149.222C54.7569 149.943 54.2594 151.012 54.0107 151.311C53.7123 151.659 53.6625 152.355 53.5382 152.355C53.5382 152.306 53.1651 151.584 52.8915 151.311C52.8666 151.236 52.7423 151.186 52.6179 151.112C52.2697 151.858 51.7971 152.306 51.5236 152.48C51.1007 152.704 50.3049 152.778 50.0313 152.753C49.7328 152.704 49.3349 152.977 48.9369 153.151C48.9369 153.002 49.0115 152.679 48.9618 152.355C48.9618 152.107 48.5887 151.957 48.5638 151.41C48.5638 151.261 48.5141 150.092 49.1359 149.396C48.4644 149.271 47.7928 148.824 47.6685 148.5C49.0862 147.953 48.9369 146.038 50.2551 145.839C50.7277 145.764 52.1951 146.386 52.8169 146.511C53.3392 145.068 53.6128 143.625 53.7371 142.432C53.1153 142.133 52.6428 141.611 52.593 140.591C52.593 140.591 47.6436 139.248 45.8777 142.059C45.8777 142.059 41.6247 134.821 58.2637 136.288C58.2637 136.288 60.925 133.901 64.7552 134.697C73.3856 136.487 76.5692 134.249 77.6386 133.055C77.6386 133.055 73.9825 140.019 70.6498 142.531C67.5408 144.894 60.2286 157.131 69.058 158.25C66.8195 153.922 65.8247 150.192 71.4705 153.698C71.4705 153.698 78.8573 159.021 83.0109 148.227C83.0109 148.227 82.0658 146.137 85.0504 145.366C88.0101 144.571 106.763 144.894 115.866 138.104C115.866 138.104 114.946 144.347 112.16 151.41L105.719 150.44L111.489 153.027C110.121 156.235 108.38 159.518 106.141 162.379L100.57 159.344L104.997 163.747C102.261 166.905 98.854 169.442 94.6756 170.611L90.5221 162.851L92.6113 171.059C91.119 171.283 89.5521 171.382 87.8608 171.258C87.239 171.208 86.5675 171.108 85.9209 171.034C90.547 176.083 94.4767 182.102 94.6756 188.071C94.6756 188.071 91.7159 180.958 85.697 180.087L86.9903 183.494C86.9903 183.494 81.2948 180.311 78.0366 180.982C77.9371 180.982 77.8376 181.007 77.7381 181.032C75.052 186.603 76.9671 193.742 76.9671 193.742C81.2201 194.637 85.1996 196.9 85.1996 196.9C77.9122 196.129 75.1764 195.806 70.1026 196.278C67.4413 196.502 64.208 198.691 64.208 198.691C64.5562 194.239 74.4053 192.249 74.4053 192.249C75.0769 185.832 69.7046 181.057 67.1429 179.167L67.1926 179.217ZM164.067 290.243L155.984 289.024L163.246 292.283C161.53 296.287 159.342 300.415 156.531 304.047L149.542 300.241L155.113 305.763C151.656 309.717 147.403 312.901 142.155 314.368L136.957 304.619L139.594 314.94C137.728 315.239 135.763 315.338 133.649 315.189C132.853 315.139 132.033 315.015 131.212 314.891C137.032 321.233 141.956 328.794 142.205 336.305C142.205 336.305 138.499 327.401 130.913 326.282L132.555 330.535C132.555 330.535 125.392 326.555 121.288 327.376C121.164 327.401 121.039 327.401 120.915 327.451C117.557 334.415 119.945 343.418 119.945 343.418C125.292 344.513 130.292 347.373 130.292 347.373C121.139 346.403 117.707 346.03 111.315 346.577C107.957 346.875 103.903 349.611 103.903 349.611C104.351 344.04 116.737 341.528 116.737 341.528C117.607 333.47 110.842 327.476 107.609 325.113C97.9587 320.114 91.0444 308.698 97.5359 296.809C103.48 285.965 103.928 281.588 102.883 279.921C101.863 278.255 95.1482 278.926 95.1482 278.926C95.1482 278.926 94.3026 279.2 93.2331 279.3V276.439C93.2331 276.439 92.6113 275.196 91.8403 275.818C91.8403 275.818 92.3128 276.091 92.3377 276.937C92.3875 277.782 92.2631 279.374 92.2631 279.374C92.1139 281.289 91.6662 283.13 91.0941 284.697C91.3428 284.995 91.7657 285.368 92.0144 285.642C92.1636 285.791 92.6859 286.487 92.3875 287.457C91.9895 288.378 91.4175 289.721 91.0693 290.094C90.6962 290.541 90.6464 291.387 90.4723 291.412C90.4723 291.362 89.9998 290.442 89.6765 290.119C89.6267 290.044 89.5024 289.969 89.3531 289.895C88.9303 290.84 88.3334 291.412 87.9603 291.611C87.4131 291.909 86.4183 292.009 86.0701 291.934C85.697 291.885 85.1747 292.233 84.6773 292.407C84.6524 292.233 84.7519 291.81 84.7022 291.387C84.7022 291.089 84.2296 290.915 84.1799 290.218C84.1799 290.044 84.1301 288.552 84.9011 287.681C84.0555 287.532 83.2347 286.96 83.0606 286.537C84.8514 285.841 84.6524 283.453 86.2939 283.204C86.866 283.13 88.7562 283.901 89.5024 284.05C90.1739 282.234 90.4723 280.419 90.6464 278.926C89.8754 278.553 89.2536 277.882 89.2039 276.589C89.2039 276.589 82.986 274.922 80.7725 278.429C80.7725 278.429 75.4251 269.326 96.342 271.191C96.342 271.191 99.6997 268.182 104.5 269.177C115.344 271.415 119.348 268.605 120.666 267.088C120.666 267.088 116.065 275.818 111.912 279.001C108.007 281.961 98.8043 297.331 109.922 298.724C107.136 293.277 105.843 288.626 112.956 293.004C112.956 293.004 122.258 299.719 127.456 286.139C127.456 286.139 126.287 283.503 130.018 282.558C133.774 281.563 157.277 281.961 168.718 273.455C168.718 273.455 167.574 281.314 164.067 290.193V290.268V290.243ZM169.763 248.011C169.763 248.011 168.668 247.414 166.803 246.569L167.922 249.503C167.922 249.503 167.151 248.981 165.783 248.235L166.355 249.777C166.355 249.777 165.261 250.424 164.515 250.573C163.794 250.722 144.369 233.536 122.109 254.776C119.721 257.04 119.398 257.835 116.438 254.776C96.8643 234.68 73.9577 250.921 73.9577 250.921L72.739 250.125L73.4105 248.384C72.0674 249.081 71.3213 249.578 71.3213 249.578L72.7638 246.046C70.6995 246.942 69.5305 247.638 69.5305 247.638L70.7244 244.952C69.4559 245.449 68.7595 245.798 68.7595 245.798L81.8668 213.241C99.7992 197.373 120.293 212.395 120.293 212.395C120.293 212.395 142.379 196.676 157.899 213.067L170.335 245.847L168.519 245.051L169.738 247.961H169.763V248.011ZM195.853 151.435L189.411 150.465L195.181 153.052C193.813 156.26 192.072 159.518 189.834 162.403L184.263 159.369L188.69 163.771C185.954 166.93 182.547 169.467 178.368 170.636L174.215 162.876L176.304 171.084C174.812 171.307 173.245 171.407 171.553 171.283C170.907 171.233 170.26 171.133 169.613 171.059C174.24 176.108 178.194 182.127 178.368 188.096C178.368 188.096 175.409 180.982 169.39 180.112L170.683 183.519C170.683 183.519 164.987 180.336 161.729 181.007C161.63 181.007 161.53 181.032 161.431 181.057C158.745 186.628 160.66 193.766 160.66 193.766C164.913 194.662 168.892 196.925 168.892 196.925C161.605 196.154 158.869 195.831 153.795 196.303C151.134 196.527 147.901 198.716 147.901 198.716C148.249 194.264 158.098 192.274 158.098 192.274C158.77 185.857 153.397 181.082 150.835 179.192C143.15 175.237 137.654 166.109 142.827 156.658C147.577 148.028 147.901 144.546 147.08 143.228C146.259 141.909 140.912 142.432 140.912 142.432C140.912 142.432 140.24 142.655 139.395 142.73V140.442C139.395 140.442 138.897 139.472 138.275 139.944C138.275 139.944 138.648 140.168 138.673 140.84C138.698 141.511 138.624 142.78 138.624 142.78C138.499 144.322 138.151 145.74 137.678 147.008C137.853 147.257 138.201 147.53 138.4 147.754C138.499 147.854 138.947 148.426 138.698 149.197C138.4 149.918 137.927 150.987 137.654 151.286C137.355 151.634 137.305 152.33 137.181 152.33C137.181 152.281 136.808 151.559 136.534 151.286C136.485 151.211 136.385 151.162 136.261 151.087C135.913 151.833 135.44 152.281 135.166 152.455C134.744 152.679 133.948 152.753 133.674 152.728C133.376 152.679 132.978 152.952 132.58 153.126C132.58 152.977 132.63 152.654 132.605 152.306C132.605 152.057 132.232 151.908 132.207 151.361C132.207 151.211 132.157 150.042 132.779 149.346C132.107 149.222 131.436 148.774 131.311 148.451C132.729 147.903 132.58 145.988 133.898 145.789C134.346 145.74 135.838 146.336 136.46 146.461C136.982 145.018 137.256 143.576 137.38 142.382C136.758 142.083 136.286 141.561 136.236 140.541C136.236 140.541 131.286 139.198 129.496 142.009C129.496 142.009 125.243 134.771 141.882 136.239C141.882 136.239 144.568 133.851 148.373 134.647C157.004 136.438 160.187 134.199 161.257 133.005C161.257 133.005 157.601 139.969 154.293 142.481C151.184 144.844 143.871 157.081 152.701 158.2C150.462 153.873 149.468 150.142 155.138 153.649C155.138 153.649 162.525 158.971 166.679 148.177C166.679 148.177 165.758 146.088 168.718 145.317C171.703 144.521 190.431 144.844 199.534 138.054C199.534 138.054 198.614 144.297 195.828 151.361V151.41L195.853 151.435Z" fill="#231F20"/>
<path d="M136.361 224.756C136.087 226.845 135.341 227.641 133.351 228.262C131.809 228.785 131.61 227.84 131.511 226.099L131.237 221.497C131.163 220.08 131.063 219.383 132.307 218.961L132.257 218.239C131.312 218.463 130.417 218.762 129.571 219.085C128.924 219.309 128.427 219.557 127.581 219.98L127.631 220.652C128.999 220.129 128.899 220.876 128.974 222.293L129.273 227.939C129.347 229.332 129.372 229.904 128.178 230.6V231.247C128.974 230.824 129.894 230.401 130.616 230.078C131.412 229.78 134.272 228.71 136.958 228.138L136.883 224.656L136.336 224.731L136.361 224.756Z" fill="#231F20"/>
<path d="M108.555 217.568L108.132 220.826L108.704 221.025C109.052 219.633 109.176 218.538 110.246 218.936C111.166 219.26 110.967 219.832 110.843 221.05L110.196 226.572C110.047 228.089 109.972 228.512 108.654 228.164L108.53 228.785C109.4 229.084 110.171 229.333 110.917 229.631C111.589 229.905 112.335 230.253 113.206 230.7L113.28 230.029C112.186 229.382 112.061 228.761 112.236 227.243L112.808 221.697C112.932 220.354 113.081 219.931 113.902 220.329C114.748 220.752 114.723 222.045 114.698 223.488L115.27 223.712L115.543 220.503C115.543 220.503 114.175 219.483 112.385 218.737C110.669 217.991 108.555 217.543 108.555 217.543V217.568Z" fill="#231F20"/>
<path d="M156.507 182.052C156.507 182.052 156.557 182.126 156.606 182.151C156.78 182.325 156.93 182.474 157.079 182.624C157.203 182.773 157.328 182.897 157.427 183.047C157.452 183.096 157.477 183.121 157.527 183.171C157.999 183.818 158.372 184.514 158.372 185.161V181.902L155.562 181.181C155.91 181.48 156.233 181.753 156.507 182.027" fill="#231F20"/>
<path d="M149.17 137.805C149.045 137.805 147.827 137.507 147.205 137.358C146.608 137.209 145.862 136.86 144.967 136.86C144.22 136.86 140.912 138.576 140.912 138.576C141.062 138.651 143.201 137.905 143.623 137.805C144.071 137.756 144.046 137.805 144.27 137.805C144.295 138.278 144.693 138.402 145.29 138.402C145.887 138.402 146.285 138.029 146.384 137.88C147.081 138.104 148.15 138.129 148.648 138.054C149.045 138.004 149.269 137.88 149.17 137.83" fill="#231F20"/>
</svg>
