<svg width="944" height="482" viewBox="0 0 944 482" fill="none" xmlns="http://www.w3.org/2000/svg">
<path d="M277.932 143.49C277.932 135.945 277.932 128.215 277.747 121.491H294.082C294.506 124.006 294.744 132.556 294.744 135.204C298.133 128.109 305.229 119.426 321.802 119.426C338.376 119.426 350.926 129.777 350.926 152.729V208.719H334.087V154.794C334.087 142.272 329.295 133.721 316.507 133.721C301.257 133.721 294.771 144.919 294.771 162.047V208.719H277.932V143.437V143.49Z" fill="#6D51A1"/>
<path d="M376.793 168.348C376.899 184.761 385.159 196.992 399.43 196.992C412.509 196.992 416.666 190.48 419.366 184.311H436.284C432.922 195.377 423.523 210.811 398.927 210.811C371.233 210.811 359.795 188.679 359.795 166.124C359.795 139.89 373.06 119.453 399.88 119.453C428.394 119.453 437.793 141.849 437.793 161.095C437.793 163.795 437.793 165.966 437.555 168.348H376.819H376.793ZM420.769 156.912C420.611 143.358 413.992 132.424 399.668 132.424C385.345 132.424 378.699 142.59 377.296 156.912H420.769Z" fill="#6D51A1"/>
<path d="M453.997 121.491C467.102 161.015 474.886 184.893 477.004 193.603H477.19C479.837 183.914 485.847 164.033 499.35 121.491H516.294L485.318 212.478C476.554 237.919 469.909 244.59 451.455 244.59C448.834 244.59 445.233 244.431 441.712 244.008V229.686C443.803 229.95 446.372 230.136 448.728 230.136C459.371 230.136 463.607 225.609 468.4 212.002L435.887 121.517H454.05L453.997 121.491Z" fill="#6D51A1"/>
<path d="M531.094 183.544C533.451 192.571 540.255 197.866 551.534 197.866C563.58 197.866 568.293 192.783 568.293 185.37C568.293 177.958 564.322 174.225 548.489 170.387C522.887 164.139 517.777 156.277 517.777 144.364C517.777 132.451 526.858 119.453 550.025 119.453C573.191 119.453 582.458 132.769 583.543 144.84H567.34C566.175 139.678 562.31 132.16 549.31 132.16C537.899 132.16 534.457 137.587 534.457 142.961C534.457 149.049 537.872 152.067 553.52 155.774C580.498 162.154 585.555 171.207 585.555 184.126C585.555 199.242 573.641 210.811 550.978 210.811C528.314 210.811 516.559 199.11 514.388 183.544H531.068H531.094Z" fill="#6D51A1"/>
<path d="M662.733 189.05C662.733 197.045 663.421 206.337 663.924 208.772H647.827C647.138 206.866 646.635 202.63 646.45 197.918C643.379 203.557 636.627 210.837 619.974 210.837C599.296 210.837 590.506 197.362 590.506 184.046C590.506 164.483 605.942 155.535 631.809 155.535H646.238V148.493C646.238 141.107 643.829 132.345 628.473 132.345C614.732 132.345 612.322 139.016 610.84 145.74H594.637C595.828 133.033 603.665 119.399 629.055 119.479C650.765 119.558 662.759 128.321 662.759 148.361V189.103L662.733 189.05ZM646.318 166.76H633.027C616.188 166.76 607.636 171.498 607.636 183.04C607.636 191.591 613.408 197.945 623.76 197.945C643.67 197.945 646.318 184.47 646.318 169.46V166.76Z" fill="#6D51A1"/>
<path d="M654.71 92C661.091 92 666.253 97.1622 666.253 103.542C666.253 109.922 661.091 115.084 654.71 115.084C648.329 115.084 643.167 109.922 643.167 103.542C643.167 97.1622 648.329 92 654.71 92Z" fill="#EC1069"/>
<g clip-path="url(#clip0_138_3671)">
<mask id="mask0_138_3671" style="mask-type:luminance" maskUnits="userSpaceOnUse" x="165" y="281" width="614" height="115">
<path d="M779 281H165V396H779V281Z" fill="white"/>
</mask>
<g mask="url(#mask0_138_3671)">
<path d="M327.36 396V306.595H341.568V319.573L340.181 316.329C342.338 312.804 345.263 310.08 348.959 308.157C352.656 306.155 356.929 305.153 361.781 305.153C367.71 305.153 373.061 306.675 377.837 309.72C382.611 312.764 386.385 316.85 389.155 321.977C392.005 327.104 393.43 332.872 393.43 339.281C393.43 345.61 392.043 351.378 389.272 356.585C386.498 361.792 382.727 365.918 377.95 368.962C373.177 371.926 367.748 373.408 361.666 373.408C357.121 373.408 352.926 372.487 349.075 370.645C345.302 368.722 342.299 365.998 340.066 362.473L342.491 359.349V396H327.36ZM359.932 358.988C363.398 358.988 366.479 358.147 369.174 356.465C371.869 354.783 373.948 352.459 375.411 349.495C376.951 346.531 377.721 343.126 377.721 339.281C377.721 335.435 376.951 332.071 375.411 329.187C373.948 326.223 371.869 323.899 369.174 322.217C366.479 320.455 363.398 319.573 359.932 319.573C356.621 319.573 353.619 320.415 350.923 322.097C348.305 323.779 346.226 326.143 344.686 329.187C343.223 332.151 342.491 335.516 342.491 339.281C342.491 343.126 343.223 346.531 344.686 349.495C346.226 352.459 348.305 354.783 350.923 356.465C353.619 358.147 356.621 358.988 359.932 358.988Z" fill="black"/>
<path d="M399.201 371.966V306.595H414.332V371.966H399.201ZM399.201 299.265V282.442H414.332V299.265H399.201Z" fill="black"/>
<path d="M422.536 396.001V306.596H436.744V319.574L435.357 316.33C437.513 312.805 440.439 310.081 444.136 308.158C447.831 306.156 452.105 305.154 456.957 305.154C462.886 305.154 468.237 306.676 473.013 309.721C477.787 312.765 481.558 316.851 484.331 321.978C487.181 327.105 488.606 332.873 488.606 339.282C488.606 345.611 487.219 351.379 484.447 356.586C481.674 361.793 477.903 365.919 473.126 368.963C468.352 371.927 462.924 373.409 456.842 373.409C452.297 373.409 448.102 372.488 444.252 370.645C440.478 368.723 437.475 365.999 435.241 362.474L437.667 359.349V396.001H422.536ZM455.108 358.989C458.573 358.989 461.655 358.148 464.35 356.466C467.044 354.783 469.123 352.46 470.587 349.496C472.126 346.532 472.897 343.127 472.897 339.282C472.897 335.436 472.126 332.072 470.587 329.188C469.123 326.224 467.044 323.9 464.35 322.218C461.655 320.455 458.573 319.574 455.108 319.574C451.797 319.574 448.794 320.416 446.099 322.098C443.481 323.78 441.402 326.143 439.862 329.188C438.399 332.152 437.667 335.517 437.667 339.282C437.667 343.127 438.399 346.532 439.862 349.496C441.402 352.46 443.481 354.783 446.099 356.466C448.794 358.148 451.797 358.989 455.108 358.989Z" fill="black"/>
<path d="M524.151 373.408C517.683 373.408 512.022 371.886 507.172 368.842C502.32 365.798 498.546 361.672 495.851 356.465C493.156 351.258 491.809 345.489 491.809 339.161C491.809 332.592 493.156 326.784 495.851 321.737C498.624 316.609 502.359 312.564 507.056 309.6C511.83 306.635 517.143 305.153 522.995 305.153C527.923 305.153 532.236 305.995 535.933 307.677C539.704 309.359 542.901 311.683 545.519 314.646C548.136 317.611 550.139 321.015 551.525 324.861C552.912 328.626 553.604 332.712 553.604 337.118C553.604 338.239 553.528 339.401 553.373 340.603C553.296 341.804 553.104 342.846 552.796 343.727H504.283V331.71H544.249L537.088 337.358C537.78 333.673 537.588 330.388 536.509 327.504C535.509 324.62 533.814 322.337 531.427 320.655C529.117 318.973 526.306 318.131 522.995 318.131C519.838 318.131 517.027 318.973 514.564 320.655C512.099 322.257 510.212 324.661 508.903 327.865C507.671 330.989 507.209 334.795 507.517 339.281C507.209 343.286 507.709 346.851 509.019 349.976C510.406 353.02 512.406 355.383 515.025 357.066C517.719 358.748 520.801 359.589 524.267 359.589C527.73 359.589 530.657 358.828 533.043 357.306C535.509 355.784 537.433 353.741 538.819 351.177L551.062 357.426C549.831 360.55 547.907 363.314 545.288 365.718C542.669 368.121 539.551 370.003 535.933 371.366C532.39 372.728 528.462 373.408 524.151 373.408Z" fill="black"/>
<path d="M583.216 373.408C576.515 373.408 570.665 371.766 565.66 368.481C560.73 365.117 557.342 360.591 555.494 354.903L566.813 349.255C568.431 352.94 570.665 355.824 573.513 357.907C576.439 359.99 579.673 361.031 583.216 361.031C585.987 361.031 588.181 360.39 589.799 359.109C591.416 357.826 592.226 356.145 592.226 354.062C592.226 352.78 591.879 351.738 591.186 350.937C590.57 350.056 589.684 349.335 588.529 348.774C587.45 348.133 586.258 347.612 584.947 347.212L574.668 344.208C569.355 342.605 565.312 340.162 562.541 336.878C559.844 333.593 558.497 329.708 558.497 325.221C558.497 321.216 559.46 317.731 561.386 314.767C563.387 311.722 566.121 309.359 569.587 307.677C573.128 305.995 577.171 305.153 581.713 305.153C587.644 305.153 592.879 306.635 597.423 309.6C601.966 312.564 605.2 316.73 607.126 322.097L595.574 327.745C594.497 324.781 592.687 322.417 590.147 320.655C587.605 318.892 584.755 318.011 581.599 318.011C579.057 318.011 577.055 318.612 575.592 319.814C574.129 321.015 573.397 322.578 573.397 324.5C573.397 325.702 573.705 326.743 574.321 327.625C574.938 328.506 575.784 329.227 576.863 329.788C578.018 330.348 579.326 330.869 580.789 331.35L590.84 334.474C595.998 336.076 599.964 338.48 602.737 341.684C605.584 344.889 607.01 348.814 607.01 353.461C607.01 357.386 606.008 360.871 604.007 363.915C602.005 366.879 599.232 369.203 595.689 370.885C592.148 372.567 587.989 373.408 583.216 373.408Z" fill="black"/>
<path d="M612.858 371.966V281H627.99V319.454L625.91 317.17C627.374 313.245 629.76 310.281 633.072 308.278C636.459 306.195 640.387 305.154 644.853 305.154C649.474 305.154 653.553 306.195 657.096 308.278C660.716 310.361 663.527 313.285 665.528 317.05C667.53 320.735 668.532 325.021 668.532 329.908V371.966H653.401V333.633C653.401 330.749 652.861 328.266 651.783 326.183C650.706 324.1 649.203 322.498 647.279 321.376C645.43 320.174 643.235 319.574 640.695 319.574C638.23 319.574 636.035 320.174 634.111 321.376C632.184 322.498 630.684 324.1 629.606 326.183C628.529 328.266 627.99 330.749 627.99 333.633V371.966H612.858Z" fill="black"/>
<path d="M675.557 371.966V306.595H690.689V371.966H675.557ZM675.557 299.265V282.442H690.689V299.265H675.557Z" fill="black"/>
<path d="M706.17 371.966V320.655H695.083V306.596H706.17V304.433C706.17 299.466 707.133 295.26 709.06 291.815C711.06 288.29 713.833 285.606 717.376 283.764C720.918 281.921 725.113 281 729.965 281C730.889 281 731.89 281.08 732.968 281.24C734.123 281.32 735.086 281.441 735.856 281.601V295.18C735.086 295.02 734.355 294.939 733.66 294.939C733.045 294.859 732.468 294.819 731.929 294.819C728.542 294.819 725.923 295.62 724.074 297.223C722.226 298.745 721.302 301.148 721.302 304.433V306.596H735.278V320.655H721.302V371.966H706.17Z" fill="black"/>
<path d="M771.49 372.687C764.405 372.687 758.9 370.685 754.974 366.679C751.124 362.593 749.197 356.865 749.197 349.495V320.655H738.339V306.596H739.494C742.576 306.596 744.963 305.754 746.655 304.072C748.35 302.39 749.197 299.946 749.197 296.742V291.695H764.329V306.596H778.767V320.655H764.329V348.654C764.329 350.817 764.674 352.66 765.368 354.182C766.137 355.704 767.293 356.865 768.834 357.667C770.45 358.468 772.49 358.869 774.955 358.869C775.495 358.869 776.11 358.828 776.803 358.748C777.574 358.668 778.305 358.588 778.998 358.508V371.966C777.919 372.127 776.688 372.287 775.301 372.447C773.916 372.608 772.645 372.687 771.49 372.687Z" fill="black"/>
<path d="M165 281H191.318V396H165V281Z" fill="#9146FF"/>
<path d="M194.205 281H220.523L233.766 334.596C234.425 337.263 234.424 340.066 233.761 342.732L220.523 396H194.205L207.443 342.732C208.106 340.066 208.107 337.263 207.448 334.596L194.205 281Z" fill="#9146FF"/>
<path d="M222.62 281H249.716L281.707 329.45C285.361 334.983 285.351 342.34 281.684 347.862L249.716 396H222.62L248.4 346.37C250.894 341.569 250.9 335.756 248.418 330.95L222.62 281Z" fill="#9146FF"/>
</g>
</g>
<defs>
<clipPath id="clip0_138_3671">
<rect width="614" height="115" fill="white" transform="translate(165 281)"/>
</clipPath>
</defs>
</svg>
