<svg width="944" height="482" viewBox="0 0 944 482" fill="none" xmlns="http://www.w3.org/2000/svg">
<g clip-path="url(#clip0_139_3796)">
<path d="M177.453 211.735H147.692V241.531H177.453V211.735Z" fill="#223F81"/>
<path d="M177.453 175.445H147.692V205.241H177.453V175.445Z" fill="#24B082"/>
<path d="M177.453 139.67H147.692V169.466H177.453V139.67Z" fill="#24B082"/>
<path d="M142.594 175.703H112.833V205.498H142.594V175.703Z" fill="white"/>
<path d="M142.594 139.67H112.833V169.466H142.594V139.67Z" fill="#24B082"/>
<path d="M142.594 211.735H112.833V241.531H142.594V211.735Z" fill="#223F81"/>
<path d="M107.761 175.703H78V205.498H107.761V175.703Z" fill="#223F81"/>
<path d="M107.761 139.67H78V169.466H107.761V139.67Z" fill="#223F81"/>
<path d="M107.761 211.735H78V241.531H107.761V211.735Z" fill="#223F81"/>
<path d="M235.688 220.267C232.496 215.782 230.9 209.674 230.9 201.993C230.9 193.642 232.496 187.224 235.688 182.739C238.907 178.255 243.489 176.012 249.462 176.012C255.435 176.012 259.709 178.255 262.927 182.739C265.913 187.224 267.406 193.642 267.406 201.993C267.406 210.344 265.81 216.195 262.618 220.267C259.4 224.752 254.817 226.994 248.844 226.994C243.283 226.994 238.907 224.752 235.714 220.267M231.209 160.135C225.88 162.171 221.606 165.11 218.388 168.95C212.209 177.069 209.094 187.765 209.094 201.039C209.094 214.313 212.183 225.834 218.388 233.747C224.592 241.866 232.805 245.938 243.051 245.938C248.175 245.938 252.86 244.959 257.16 243.052C261.202 240.912 264.626 237.587 267.406 233.103V264.857C267.406 267.847 268.462 270.398 270.624 272.537C272.761 274.677 275.31 275.759 278.322 275.759H289.212V195.884C289.212 180.909 284.836 170.703 276.082 165.264C267.329 159.8 257.829 157.094 247.583 157.094C242.022 157.094 236.589 158.099 231.234 160.135" fill="#343333"/>
<path d="M363.718 159.001C360.526 159.001 357.9 160.084 355.866 162.223C353.832 164.362 352.828 166.94 352.828 169.929V213.54C352.828 218.669 351.284 222.406 348.194 224.777C345.105 227.123 341.629 228.308 337.793 228.308C333.957 228.308 330.533 227.123 327.547 224.777C324.56 222.432 323.067 218.695 323.067 213.54V159.001H300.643V209.029C300.643 223.798 304.428 233.515 312.022 238.232C319.591 242.923 327.984 245.5 337.175 245.938C346.572 245.938 355.223 243.593 363.126 238.876C371.03 234.185 374.969 224.236 374.969 209.055V159.001H363.744H363.718Z" fill="#343333"/>
<path d="M407.794 222.071C405.889 220.267 404.91 217.844 404.91 214.829C404.91 212.612 405.657 210.395 407.15 208.179C408.875 206.581 411.63 205.266 415.491 204.261L422.855 202.766C428.21 201.555 432.354 200.24 435.341 198.848V206.4C435.341 212.045 433.642 216.478 430.218 219.7C426.794 222.922 422.082 224.52 416.109 224.52C412.479 224.52 409.699 223.721 407.768 222.097M395.307 164.053C390.184 168.1 387.198 173.229 386.348 179.466H407.794C408.875 177.249 410.574 175.755 412.917 174.93C415.26 174.131 417.937 173.718 420.924 173.718C423.704 173.718 426.742 174.182 430.063 175.084C433.384 175.987 435.032 177.945 435.032 180.987C435.032 185.008 430.346 187.637 420.924 188.848C418.993 189.054 417.294 189.286 415.8 189.595C414.307 189.905 413.02 190.059 411.964 190.059C403.855 191.271 397.187 193.694 391.935 197.302C386.709 200.936 384.083 206.967 384.083 215.447C384.083 224.52 386.966 231.015 392.733 234.933C398.5 238.85 405.219 240.835 412.917 240.835C416.779 240.835 421.181 240.577 426.201 240.088C431.222 239.572 435.984 238.232 440.464 236.015C444.738 234.005 448.419 230.731 451.509 226.195C454.598 221.659 456.143 215.37 456.143 207.302V179.801C456.143 172.559 453.053 166.914 446.849 162.867C440.876 159.053 431.891 157.12 419.945 157.12C409.261 157.12 401.048 159.439 395.282 164.079" fill="#343333"/>
<path d="M480.858 165.11C473.264 170.033 469.479 179.75 469.479 194.287V244.315H491.903V189.776C491.903 184.647 493.396 180.91 496.383 178.538C499.369 176.193 502.793 175.007 506.629 175.007C510.465 175.007 513.941 176.193 517.03 178.538C520.119 180.884 521.69 184.621 521.69 189.776V233.386C521.69 236.583 522.694 239.212 524.728 241.248C526.762 243.284 529.362 244.289 532.58 244.289H543.805V194.261C543.805 179.286 539.84 169.363 531.962 164.44C524.058 159.517 515.408 157.068 506.011 157.068C496.82 157.481 488.453 160.161 480.858 165.084" fill="#343333"/>
<path d="M559.999 134V228.283C559.999 238.129 564.118 243.361 572.33 244.005C580.543 244.65 588.189 244.753 595.243 244.315V227.639H588.524C584.25 227.639 582.114 225.834 582.114 222.174V174.724H584.353C587.34 174.724 589.914 173.718 592.051 171.682C594.188 169.646 595.243 167.043 595.243 163.821V159.336H582.114V144.903C582.114 141.913 581.032 139.335 578.895 137.196C576.759 135.057 574.313 134 571.532 134H559.999Z" fill="#343333"/>
<path d="M612.75 159.001V244.314H632.213V169.929C632.213 166.94 631.286 164.388 629.433 162.223C627.579 160.084 625.339 159.001 622.765 159.001H612.75Z" fill="#343333"/>
<path d="M679.352 220.267C676.134 216.195 674.538 210.112 674.538 201.993C674.538 193.23 676.031 186.812 679.018 182.74C682.21 178.255 686.69 176.012 692.482 176.012C698.275 176.012 703.064 178.255 706.256 182.74C709.474 187.224 711.07 193.642 711.07 201.993C711.07 209.674 709.474 215.782 706.256 220.267C703.064 224.752 698.687 226.994 693.126 226.994C687.153 226.994 682.545 224.752 679.352 220.267ZM665.888 165.265C657.134 170.703 652.758 180.935 652.758 195.885V275.734H663.648C666.634 275.734 669.183 274.677 671.346 272.512C673.483 270.373 674.564 267.821 674.564 264.805V233.051C677.138 237.536 680.537 240.861 684.81 243C688.878 244.908 693.564 245.887 698.919 245.887C708.959 245.887 717.172 241.815 723.582 233.696C729.993 225.345 733.185 214.442 733.185 200.988C733.185 187.534 729.967 177.25 723.582 168.899C720.39 165.058 716.065 162.12 710.607 160.084C705.149 158.048 699.768 157.042 694.413 157.042C684.167 157.042 674.667 159.775 665.914 165.213" fill="#343333"/>
<path d="M747.114 134V244.34H768.894V200.395C768.894 192.92 770.49 187.044 773.708 182.765C776.901 178.487 781.483 176.347 787.482 176.347C793.043 176.347 797.419 178.59 800.612 183.075C802.543 185.858 803.753 188.59 804.293 191.245C804.834 193.926 805.091 196.864 805.091 200.06V244.315H826.537V194.596C826.537 184.776 824.503 177.069 820.461 171.502C816.394 165.96 811.373 161.888 805.4 159.311C798.99 156.759 792.27 156.321 785.216 158.022C778.162 159.749 772.73 163.795 768.894 170.213V144.903C768.894 141.913 767.813 139.335 765.676 137.196C763.539 135.057 760.964 134 757.978 134H747.088H747.114Z" fill="#343333"/>
<path d="M632.213 134H612.75V153.485H632.213V134Z" fill="#343333"/>
<path d="M845.562 159.156V244.469H865.026V170.058C865.026 167.069 864.099 164.491 862.245 162.352C860.392 160.213 858.178 159.156 855.577 159.156H845.562Z" fill="#343333"/>
<path d="M865 134.129H845.537V153.614H865V134.129Z" fill="#343333"/>
<path d="M85.3114 331.768C83.3805 330.891 81.8615 329.706 80.7802 328.159C79.6989 326.613 79.1325 324.834 79.0811 322.824H84.2301C84.4103 324.551 85.1311 326.02 86.3669 327.205C87.6284 328.391 89.4563 328.984 91.8506 328.984C94.2449 328.984 95.9441 328.417 97.2828 327.257C98.5958 326.097 99.2652 324.628 99.2652 322.824C99.2652 321.406 98.879 320.246 98.1066 319.37C97.3343 318.494 96.356 317.824 95.1974 317.36C94.0389 316.896 92.4685 316.406 90.4861 315.865C88.0403 315.22 86.0837 314.602 84.6162 313.957C83.1488 313.339 81.8873 312.334 80.8575 310.968C79.8019 309.601 79.287 307.771 79.287 305.478C79.287 303.467 79.8019 301.663 80.8317 300.116C81.8615 298.57 83.3032 297.359 85.1569 296.508C87.0105 295.658 89.1474 295.245 91.5417 295.245C94.9915 295.245 97.8492 296.121 100.038 297.848C102.252 299.575 103.487 301.869 103.771 304.756H98.4671C98.2868 303.338 97.5402 302.101 96.253 301.019C94.94 299.936 93.2151 299.395 91.0525 299.395C89.0444 299.395 87.3967 299.91 86.1352 300.967C84.8737 302.024 84.2301 303.467 84.2301 305.349C84.2301 306.689 84.6162 307.797 85.3628 308.648C86.1094 309.498 87.062 310.143 88.1691 310.581C89.2761 311.019 90.8465 311.535 92.8546 312.076C95.3004 312.746 97.257 313.416 98.7503 314.06C100.243 314.731 101.505 315.736 102.561 317.076C103.616 318.442 104.157 320.298 104.157 322.618C104.157 324.422 103.668 326.123 102.715 327.721C101.762 329.319 100.346 330.608 98.4671 331.587C96.5877 332.567 94.3994 333.056 91.8506 333.056C89.3018 333.056 87.2422 332.618 85.3114 331.768Z" fill="#343333"/>
<path d="M128.718 331.304C126.504 330.067 124.779 328.314 123.517 326.02C122.256 323.726 121.638 321.097 121.638 318.081C121.638 315.066 122.281 312.488 123.569 310.194C124.856 307.9 126.606 306.174 128.846 304.936C131.06 303.725 133.558 303.106 136.312 303.106C139.067 303.106 141.564 303.725 143.778 304.936C145.992 306.148 147.769 307.9 149.056 310.169C150.343 312.437 150.987 315.066 150.987 318.081C150.987 321.097 150.318 323.726 149.005 326.02C147.692 328.288 145.89 330.067 143.624 331.304C141.358 332.541 138.861 333.159 136.106 333.159C133.352 333.159 130.932 332.541 128.718 331.304ZM140.998 327.695C142.517 326.896 143.753 325.659 144.679 324.035C145.606 322.412 146.095 320.427 146.095 318.081C146.095 315.736 145.632 313.751 144.731 312.128C143.804 310.504 142.62 309.292 141.127 308.493C139.633 307.694 138.037 307.308 136.312 307.308C134.587 307.308 132.94 307.694 131.472 308.493C130.005 309.292 128.821 310.504 127.945 312.128C127.07 313.751 126.606 315.736 126.606 318.081C126.606 320.427 127.044 322.437 127.894 324.087C128.769 325.711 129.928 326.922 131.369 327.721C132.811 328.52 134.407 328.907 136.132 328.907C137.857 328.907 139.479 328.494 141.024 327.695" fill="#343333"/>
<path d="M174.389 293.415H169.549V332.67H174.389V293.415Z" fill="#343333"/>
<path d="M205.592 328.236L214.603 303.596H219.752L208.347 332.669H202.735L191.33 303.596H196.53L205.592 328.236Z" fill="#343333"/>
<path d="M236.872 297.925C236.229 297.281 235.92 296.508 235.92 295.58C235.92 294.652 236.229 293.879 236.872 293.26C237.516 292.616 238.288 292.307 239.215 292.307C240.142 292.307 240.863 292.616 241.481 293.26C242.099 293.879 242.408 294.678 242.408 295.58C242.408 296.482 242.099 297.281 241.481 297.925C240.863 298.57 240.116 298.879 239.215 298.879C238.314 298.879 237.516 298.57 236.872 297.925ZM241.532 332.669H236.718V303.596H241.532V332.669Z" fill="#343333"/>
<path d="M284.681 306.276C286.869 308.416 287.976 311.509 287.976 315.529V332.669H283.214V316.225C283.214 313.339 282.493 311.096 281.051 309.575C279.609 308.029 277.627 307.282 275.104 307.282C272.581 307.282 270.547 308.081 269.028 309.679C267.509 311.277 266.763 313.596 266.763 316.638V332.721H261.948V303.647H266.763V307.797C267.715 306.328 269.028 305.168 270.65 304.343C272.298 303.518 274.1 303.132 276.082 303.132C279.609 303.132 282.467 304.214 284.681 306.354" fill="#343333"/>
<path d="M326.62 304.781C328.499 305.864 329.915 307.256 330.842 308.931V303.622H335.708V333.339C335.708 335.994 335.142 338.365 334.009 340.427C332.876 342.489 331.254 344.113 329.169 345.273C327.058 346.433 324.612 347.026 321.831 347.026C318.021 347.026 314.829 346.124 312.28 344.319C309.731 342.515 308.238 340.067 307.775 336.948H312.538C313.078 338.726 314.159 340.144 315.833 341.226C317.506 342.309 319.489 342.85 321.831 342.85C324.483 342.85 326.646 342.025 328.319 340.35C329.993 338.675 330.842 336.355 330.842 333.339V327.231C329.89 328.932 328.474 330.35 326.594 331.484C324.715 332.618 322.527 333.185 320.029 333.185C317.532 333.185 315.112 332.54 313.001 331.278C310.89 330.015 309.242 328.21 308.032 325.916C306.822 323.623 306.23 320.994 306.23 318.055C306.23 315.117 306.822 312.488 308.032 310.22C309.242 307.977 310.89 306.225 313.001 304.988C315.112 303.75 317.455 303.132 320.029 303.132C322.604 303.132 324.741 303.673 326.62 304.781ZM329.529 312.359C328.654 310.735 327.444 309.498 325.951 308.622C324.457 307.771 322.784 307.333 320.982 307.333C319.18 307.333 317.532 307.745 316.065 308.596C314.571 309.447 313.387 310.684 312.512 312.308C311.636 313.931 311.199 315.839 311.199 318.029C311.199 320.22 311.636 322.205 312.512 323.854C313.387 325.504 314.571 326.767 316.065 327.618C317.558 328.494 319.18 328.906 320.982 328.906C322.784 328.906 324.432 328.468 325.951 327.618C327.47 326.767 328.654 325.504 329.529 323.854C330.405 322.205 330.842 320.298 330.842 318.081C330.842 315.864 330.405 313.983 329.529 312.359Z" fill="#343333"/>
<path d="M428.854 295.709L418.144 332.695H412.737L404.138 302.926L395.23 332.695L389.876 332.747L379.552 295.709H384.701L392.733 327.051L401.667 295.709H407.073L415.543 326.948L423.653 295.709H428.854Z" fill="#343333"/>
<path d="M466.698 304.472C468.475 305.4 469.839 306.818 470.843 308.699C471.847 310.581 472.362 312.849 472.362 315.556V332.695H467.6V316.251C467.6 313.365 466.879 311.122 465.437 309.602C463.995 308.055 462.013 307.282 459.49 307.282C456.967 307.282 454.933 308.081 453.414 309.679C451.921 311.277 451.174 313.597 451.174 316.638V332.721H446.36V293.467H451.174V307.797C452.127 306.328 453.44 305.168 455.113 304.344C456.787 303.519 458.666 303.132 460.751 303.132C462.837 303.132 464.922 303.596 466.698 304.55" fill="#343333"/>
<path d="M492.444 310.22C493.654 307.977 495.301 306.225 497.413 304.988C499.524 303.75 501.841 303.132 504.441 303.132C507.041 303.132 509.204 303.673 511.057 304.781C512.937 305.864 514.327 307.256 515.254 308.931V303.622H520.145V332.695H515.254V327.282C514.301 328.984 512.885 330.375 510.98 331.509C509.101 332.618 506.887 333.185 504.389 333.185C501.892 333.185 499.472 332.54 497.387 331.278C495.301 330.015 493.654 328.21 492.444 325.916C491.234 323.623 490.642 320.994 490.642 318.055C490.642 315.117 491.234 312.488 492.444 310.22ZM513.915 312.359C513.04 310.735 511.83 309.498 510.337 308.622C508.843 307.771 507.17 307.333 505.368 307.333C503.566 307.333 501.918 307.745 500.425 308.596C498.932 309.447 497.747 310.684 496.872 312.308C495.997 313.931 495.559 315.839 495.559 318.029C495.559 320.22 495.997 322.205 496.872 323.854C497.747 325.504 498.932 326.767 500.425 327.618C501.918 328.494 503.566 328.906 505.368 328.906C507.17 328.906 508.818 328.468 510.337 327.618C511.855 326.767 513.014 325.504 513.915 323.854C514.79 322.205 515.228 320.298 515.228 318.081C515.228 315.864 514.79 313.983 513.915 312.359Z" fill="#343333"/>
<path d="M546.354 307.591V324.731C546.354 326.149 546.637 327.154 547.255 327.721C547.847 328.314 548.903 328.597 550.396 328.597H553.949V332.695H549.598C546.92 332.695 544.886 332.077 543.548 330.84C542.209 329.602 541.54 327.566 541.54 324.731V307.591H537.781V303.622H541.54V296.302H546.354V303.622H553.923V307.591H546.354Z" fill="#343333"/>
<path d="M635.766 295.967V332.695H630.952V305.297L618.749 332.695H615.376L603.121 305.246V332.695H598.307V295.967H603.482L617.05 326.329L630.617 295.967H635.766Z" fill="#343333"/>
<path d="M656.13 310.22C657.34 307.977 658.988 306.225 661.099 304.988C663.21 303.75 665.527 303.132 668.127 303.132C670.728 303.132 672.89 303.673 674.744 304.781C676.623 305.864 678.014 307.256 678.94 308.931V303.622H683.806V332.695H678.94V327.282C677.988 328.984 676.572 330.375 674.667 331.509C672.787 332.618 670.573 333.185 668.076 333.185C665.579 333.185 663.159 332.54 661.073 331.278C658.988 330.015 657.34 328.21 656.13 325.916C654.92 323.623 654.328 320.994 654.328 318.055C654.328 315.117 654.92 312.488 656.13 310.22ZM677.576 312.359C676.701 310.735 675.491 309.498 673.997 308.622C672.504 307.771 670.831 307.333 669.029 307.333C667.226 307.333 665.579 307.745 664.111 308.596C662.618 309.447 661.434 310.684 660.558 312.308C659.683 313.931 659.245 315.839 659.245 318.029C659.245 320.22 659.683 322.205 660.558 323.854C661.434 325.504 662.618 326.767 664.111 327.618C665.604 328.494 667.226 328.906 669.029 328.906C670.831 328.906 672.478 328.468 673.997 327.618C675.516 326.767 676.701 325.504 677.576 323.854C678.451 322.205 678.889 320.298 678.889 318.081C678.889 315.864 678.451 313.983 677.576 312.359Z" fill="#343333"/>
<path d="M710.015 307.591V324.731C710.015 326.149 710.298 327.154 710.916 327.721C711.508 328.314 712.564 328.597 714.057 328.597H717.61V332.695H713.259C710.581 332.695 708.547 332.077 707.209 330.84C705.87 329.602 705.201 327.566 705.201 324.731V307.591H701.442V303.622H705.201V296.302H710.015V303.622H717.584V307.591H710.015Z" fill="#343333"/>
<path d="M741.501 307.591V324.731C741.501 326.149 741.785 327.154 742.402 327.721C742.995 328.314 744.05 328.597 745.543 328.597H749.096V332.695H744.745C742.068 332.695 740.034 332.077 738.695 330.84C737.356 329.602 736.687 327.566 736.687 324.731V307.591H732.928V303.622H736.687V296.302H741.501V303.622H749.07V307.591H741.501Z" fill="#343333"/>
<path d="M793.455 319.937H770.233C770.413 322.798 771.391 325.04 773.168 326.639C774.944 328.262 777.107 329.061 779.655 329.061C781.741 329.061 783.491 328.572 784.882 327.592C786.272 326.613 787.25 325.324 787.816 323.7H793.017C792.245 326.51 790.674 328.778 788.357 330.53C786.014 332.283 783.131 333.159 779.655 333.159C776.901 333.159 774.429 332.541 772.267 331.304C770.104 330.067 768.379 328.314 767.143 326.02C765.907 323.752 765.29 321.097 765.29 318.081C765.29 315.066 765.882 312.437 767.092 310.169C768.302 307.9 769.975 306.174 772.164 304.936C774.326 303.725 776.849 303.106 779.655 303.106C782.462 303.106 784.856 303.699 786.967 304.911C789.078 306.122 790.726 307.772 791.858 309.885C792.991 311.999 793.583 314.37 793.583 317.025C793.583 317.953 793.532 318.906 793.429 319.937M787.405 311.277C786.581 309.962 785.474 308.931 784.083 308.261C782.693 307.565 781.148 307.23 779.449 307.23C777.004 307.23 774.944 308.004 773.219 309.576C771.494 311.122 770.516 313.287 770.284 316.045H788.615C788.615 314.215 788.203 312.617 787.405 311.303" fill="#343333"/>
<path d="M820.616 304.446C822.186 303.518 824.091 303.08 826.357 303.08V308.055H825.069C819.663 308.055 816.96 310.993 816.96 316.869V332.695H812.146V303.621H816.96V308.338C817.809 306.689 819.019 305.374 820.59 304.472" fill="#343333"/>
<path d="M848.42 332.025C846.644 331.251 845.253 330.195 844.224 328.829C843.194 327.463 842.627 325.916 842.524 324.138H847.493C847.622 325.581 848.317 326.767 849.527 327.695C850.737 328.622 852.333 329.086 854.316 329.086C856.144 329.086 857.611 328.674 858.667 327.875C859.722 327.05 860.263 326.045 860.263 324.808C860.263 323.571 859.696 322.591 858.564 321.973C857.431 321.354 855.68 320.735 853.312 320.143C851.149 319.576 849.398 319.009 848.034 318.416C846.669 317.823 845.511 316.972 844.533 315.812C843.554 314.653 843.065 313.158 843.065 311.276C843.065 309.781 843.503 308.415 844.378 307.178C845.253 305.941 846.515 304.961 848.137 304.24C849.759 303.518 851.612 303.157 853.698 303.157C856.916 303.157 859.516 303.982 861.498 305.58C863.481 307.204 864.536 309.446 864.665 312.281H859.851C859.748 310.761 859.13 309.549 858.023 308.621C856.916 307.694 855.423 307.255 853.543 307.255C851.818 307.255 850.428 307.616 849.398 308.364C848.369 309.111 847.854 310.091 847.854 311.276C847.854 312.23 848.163 313.029 848.781 313.647C849.398 314.266 850.171 314.756 851.123 315.142C852.05 315.503 853.363 315.916 855.011 316.38C857.096 316.947 858.795 317.514 860.108 318.055C861.421 318.596 862.528 319.421 863.481 320.529C864.408 321.638 864.897 323.055 864.948 324.834C864.948 326.432 864.511 327.849 863.635 329.138C862.76 330.427 861.499 331.406 859.902 332.128C858.306 332.849 856.452 333.21 854.367 333.21C852.153 333.21 850.145 332.824 848.369 332.076" fill="#343333"/>
</g>
<defs>
<clipPath id="clip0_139_3796">
<rect width="787" height="213" fill="white" transform="translate(78 134)"/>
</clipPath>
</defs>
</svg>
