<svg width="944" height="482" viewBox="0 0 944 482" fill="none" xmlns="http://www.w3.org/2000/svg">
<g clip-path="url(#clip0_138_1203)">
<path d="M402.724 214.175L395.197 221.348C390.079 215.924 384.326 213.215 377.933 213.215C372.51 213.215 367.958 215.054 364.276 218.732C360.595 222.411 358.754 226.969 358.754 232.401C358.754 240.195 361.89 245.83 368.151 249.321C371.145 250.986 374.469 251.818 378.126 251.818C381.577 251.818 384.713 251.099 387.528 249.659C389.882 248.427 392.438 246.433 395.201 243.686L402.498 251.282C398.605 255.069 394.905 257.778 391.397 259.415C387.504 261.207 383.027 262.101 377.957 262.101C369.177 262.101 361.989 259.34 356.391 253.813C350.798 248.286 348.002 241.136 348.002 232.364C348.002 220.854 352.931 212.335 362.789 206.809C367.525 204.146 372.633 202.82 378.112 202.82C388.022 202.82 396.228 206.606 402.729 214.179L402.724 214.175Z" fill="#808285"/>
<path d="M497.306 260.68H484.539L467.083 235.624V260.68H456.255V204.236H467.083V223.653L482.425 204.236H495.385L475.622 229.405L497.311 260.68H497.306Z" fill="#808285"/>
<path d="M611.364 204.236L598.653 260.68H588.325L577.916 224.189L567.7 260.68H557.485L544.694 204.236H555.333L563.435 240.266L573.533 204.236H582.482L592.698 240.266L600.725 204.236H611.364Z" fill="#0F385A"/>
<path d="M673.765 260.68H663.05V204.236H673.765V260.68Z" fill="#0F385A"/>
<path d="M761.05 204.236L740.887 250.398H759.741V260.68H725.215L745.298 214.829H726.863V204.236H761.04H761.05Z" fill="#0F385A"/>
<path d="M844.423 204.236L824.26 250.398H843.114V260.68H808.588L828.671 214.829H810.236V204.236H844.413H844.423Z" fill="#0F385A"/>
<path d="M99.7794 214.786H89.4884V260.68H78.6184V214.786H68.5957V204.236H99.7794V214.786Z" fill="#808285"/>
<path d="M188.143 260.68H176.43L163.682 236.738H162.684V260.68H151.931V204.236H163.338C168.356 204.236 172.042 204.556 174.396 205.195C178.209 206.193 181.105 208.281 183.077 211.456C184.692 214.043 185.497 217.105 185.497 220.638C185.497 228.065 181.914 233.06 174.745 235.619L188.147 260.676L188.143 260.68ZM175.046 220.487C175.046 217.895 173.874 216.164 171.525 215.29C170.451 214.904 168.488 214.711 165.631 214.711H162.684V226.301H166.054C168.888 226.301 170.931 226.019 172.179 225.454C174.095 224.584 175.051 222.928 175.051 220.487H175.046Z" fill="#808285"/>
<path d="M358.378 313.282C356.349 313.282 354.55 312.778 352.987 311.776C351.424 310.77 350.2 309.359 349.32 307.538C348.44 305.718 347.997 303.573 347.997 301.108C347.997 298.644 348.44 296.485 349.32 294.664C350.2 292.844 351.424 291.428 352.987 290.417C354.55 289.41 356.349 288.902 358.378 288.902C359.653 288.902 360.826 289.1 361.894 289.49C362.963 289.885 363.904 290.436 364.723 291.146C365.543 291.856 366.216 292.689 366.743 293.63C367.27 294.575 367.633 295.6 367.835 296.706H365.571C365.401 295.878 365.11 295.116 364.695 294.429C364.281 293.738 363.758 293.136 363.132 292.623C362.506 292.106 361.791 291.706 360.995 291.419C360.199 291.132 359.324 290.991 358.378 290.991C356.848 290.991 355.463 291.386 354.23 292.176C352.997 292.966 352.017 294.114 351.288 295.619C350.558 297.124 350.196 298.954 350.196 301.108C350.196 303.263 350.558 305.097 351.288 306.598C352.017 308.103 353.001 309.241 354.239 310.022C355.478 310.803 356.857 311.193 358.378 311.193C359.324 311.193 360.195 311.052 360.995 310.765C361.791 310.478 362.506 310.078 363.132 309.561C363.758 309.048 364.281 308.442 364.695 307.745C365.11 307.049 365.401 306.292 365.571 305.473H367.835C367.642 306.569 367.284 307.585 366.757 308.526C366.23 309.467 365.557 310.295 364.738 311.01C363.918 311.725 362.972 312.284 361.899 312.684C360.826 313.084 359.649 313.282 358.373 313.282H358.378Z" fill="#010101"/>
<path d="M379.063 313.329C377.533 313.329 376.177 312.943 374.996 312.171C373.814 311.4 372.891 310.332 372.228 308.959C371.564 307.59 371.229 306.014 371.229 304.241C371.229 302.468 371.564 300.845 372.228 299.476C372.891 298.107 373.814 297.035 374.996 296.264C376.177 295.492 377.533 295.106 379.063 295.106C380.593 295.106 381.977 295.492 383.154 296.264C384.331 297.035 385.249 298.107 385.913 299.481C386.577 300.859 386.911 302.444 386.911 304.236C386.911 306.028 386.577 307.581 385.913 308.954C385.249 310.323 384.326 311.395 383.154 312.167C381.977 312.938 380.617 313.324 379.063 313.324V313.329ZM379.063 311.4C380.273 311.4 381.304 311.08 382.151 310.436C382.994 309.791 383.644 308.931 384.091 307.844C384.538 306.762 384.759 305.558 384.759 304.241C384.759 302.924 384.538 301.687 384.091 300.6C383.644 299.514 382.994 298.648 382.147 298.004C381.295 297.36 380.268 297.04 379.068 297.04C377.867 297.04 376.86 297.364 376.012 298.013C375.17 298.662 374.52 299.528 374.073 300.61C373.626 301.692 373.404 302.905 373.404 304.241C373.404 305.577 373.626 306.772 374.073 307.849C374.52 308.926 375.165 309.787 376.012 310.431C376.86 311.076 377.877 311.395 379.068 311.395L379.063 311.4Z" fill="#010101"/>
<path d="M391.072 312.962V295.37H393.162V299.321H392.908C393.162 298.357 393.563 297.558 394.113 296.932C394.66 296.306 395.295 295.836 396.02 295.53C396.745 295.225 397.489 295.069 398.251 295.069C399.56 295.069 400.648 295.469 401.514 296.264C402.38 297.059 402.926 298.113 403.147 299.42H402.78C402.992 298.527 403.373 297.76 403.92 297.111C404.466 296.462 405.139 295.963 405.93 295.606C406.721 295.248 407.592 295.074 408.538 295.074C409.592 295.074 410.539 295.305 411.377 295.765C412.215 296.226 412.878 296.913 413.363 297.821C413.848 298.729 414.088 299.853 414.088 301.189V312.967H411.951V301.241C411.951 299.806 411.57 298.748 410.802 298.07C410.035 297.388 409.098 297.05 407.978 297.05C407.125 297.05 406.377 297.228 405.723 297.591C405.068 297.953 404.56 298.461 404.193 299.119C403.825 299.778 403.642 300.554 403.642 301.448V312.967H401.504V301.048C401.504 299.806 401.147 298.828 400.426 298.117C399.711 297.407 398.779 297.05 397.644 297.05C396.849 297.05 396.109 297.233 395.436 297.6C394.758 297.967 394.222 298.498 393.817 299.199C393.412 299.9 393.21 300.742 393.21 301.716V312.967H391.072V312.962Z" fill="#010101"/>
<path d="M419.187 319.627V295.374H421.258V298.737H421.451C421.705 298.154 422.068 297.585 422.534 297.035C423 296.484 423.598 296.028 424.327 295.666C425.057 295.304 425.937 295.125 426.968 295.125C428.423 295.125 429.703 295.506 430.805 296.263C431.907 297.021 432.764 298.084 433.38 299.452C433.997 300.816 434.303 302.402 434.303 304.208C434.303 306.014 433.997 307.632 433.385 308.996C432.773 310.36 431.916 311.428 430.819 312.19C429.718 312.957 428.442 313.338 426.982 313.338C425.961 313.338 425.085 313.154 424.36 312.787C423.631 312.421 423.033 311.96 422.567 311.4C422.101 310.84 421.733 310.266 421.465 309.669H421.324V319.627H419.187ZM426.695 311.386C427.844 311.386 428.823 311.075 429.628 310.454C430.438 309.833 431.055 308.977 431.488 307.891C431.916 306.8 432.133 305.567 432.133 304.184C432.133 302.801 431.921 301.578 431.492 300.501C431.069 299.429 430.447 298.587 429.633 297.975C428.818 297.364 427.839 297.058 426.691 297.058C425.542 297.058 424.577 297.359 423.762 297.957C422.948 298.559 422.331 299.396 421.903 300.468C421.479 301.541 421.263 302.778 421.263 304.18C421.263 305.581 421.474 306.842 421.903 307.924C422.327 309.006 422.948 309.852 423.762 310.464C424.577 311.075 425.551 311.381 426.691 311.381L426.695 311.386Z" fill="#010101"/>
<path d="M440.602 289.223V312.967H438.465V289.223H440.602Z" fill="#010101"/>
<path d="M446.774 291.993C446.35 291.993 445.983 291.842 445.672 291.546C445.362 291.25 445.211 290.892 445.211 290.478C445.211 290.064 445.366 289.711 445.672 289.42C445.978 289.128 446.345 288.982 446.774 288.982C447.202 288.982 447.565 289.128 447.875 289.42C448.181 289.711 448.337 290.064 448.337 290.478C448.337 290.892 448.181 291.25 447.875 291.546C447.565 291.842 447.202 291.993 446.774 291.993ZM445.705 312.962V295.37H447.843V312.962H445.705Z" fill="#010101"/>
<path d="M457.682 313.329C456.608 313.329 455.624 313.127 454.739 312.722C453.85 312.318 453.144 311.72 452.621 310.93C452.094 310.14 451.83 309.176 451.83 308.037C451.83 307.158 452 306.419 452.334 305.822C452.668 305.229 453.144 304.74 453.751 304.364C454.363 303.987 455.083 303.686 455.921 303.465C456.754 303.244 457.677 303.065 458.689 302.938C459.687 302.811 460.53 302.703 461.208 302.614C461.89 302.525 462.408 302.374 462.761 302.167C463.119 301.96 463.293 301.64 463.293 301.203V300.822C463.293 300.036 463.129 299.359 462.799 298.799C462.469 298.235 461.994 297.802 461.373 297.492C460.751 297.186 459.993 297.031 459.099 297.031C458.204 297.031 457.503 297.167 456.858 297.435C456.213 297.708 455.686 298.061 455.271 298.503C454.857 298.945 454.565 299.434 454.396 299.975L452.306 299.434C452.626 298.446 453.125 297.637 453.803 297.002C454.485 296.372 455.281 295.897 456.194 295.587C457.107 295.271 458.063 295.116 459.066 295.116C459.81 295.116 460.558 295.215 461.316 295.417C462.069 295.62 462.757 295.944 463.373 296.396C463.99 296.847 464.489 297.449 464.866 298.197C465.242 298.945 465.431 299.867 465.431 300.963V312.962H463.326V310.159H463.185C462.94 310.7 462.573 311.212 462.083 311.697C461.594 312.181 460.987 312.572 460.257 312.877C459.527 313.178 458.67 313.334 457.682 313.334V313.329ZM457.997 311.419C459.094 311.419 460.036 311.184 460.826 310.718C461.617 310.253 462.229 309.618 462.653 308.823C463.077 308.028 463.293 307.148 463.293 306.193V303.691C463.143 303.827 462.898 303.959 462.549 304.072C462.206 304.19 461.806 304.293 461.354 304.383C460.902 304.472 460.44 304.552 459.974 304.613C459.508 304.679 459.07 304.735 458.666 304.787C457.686 304.905 456.848 305.093 456.147 305.351C455.446 305.61 454.909 305.963 454.537 306.41C454.165 306.857 453.977 307.431 453.977 308.131C453.977 308.832 454.151 309.411 454.504 309.9C454.857 310.389 455.333 310.765 455.94 311.024C456.547 311.283 457.23 311.415 457.997 311.415V311.419Z" fill="#010101"/>
<path d="M472.671 302.064V312.962H470.534V295.37H472.591L472.605 299.481H472.224C472.713 297.953 473.476 296.842 474.521 296.151C475.561 295.46 476.762 295.116 478.108 295.116C479.309 295.116 480.373 295.37 481.291 295.874C482.209 296.377 482.929 297.111 483.452 298.075C483.974 299.034 484.233 300.224 484.233 301.636V312.967H482.096V301.795C482.096 300.328 481.686 299.176 480.867 298.338C480.048 297.501 478.951 297.078 477.581 297.078C476.658 297.078 475.82 297.275 475.077 297.666C474.333 298.061 473.744 298.625 473.316 299.368C472.888 300.112 472.671 301.01 472.671 302.064Z" fill="#010101"/>
<path d="M496.223 313.301C494.693 313.301 493.337 312.915 492.156 312.143C490.974 311.372 490.051 310.304 489.388 308.94C488.724 307.576 488.39 306.005 488.39 304.232C488.39 302.459 488.719 300.855 489.388 299.481C490.051 298.112 490.974 297.04 492.156 296.268C493.337 295.497 494.693 295.111 496.223 295.111C497.136 295.111 497.974 295.243 498.737 295.511C499.495 295.779 500.173 296.137 500.761 296.593C501.35 297.049 501.844 297.567 502.235 298.141C502.626 298.714 502.908 299.307 503.078 299.923L501.02 300.417C500.912 300.036 500.728 299.646 500.47 299.246C500.211 298.846 499.876 298.484 499.472 298.155C499.067 297.825 498.596 297.557 498.05 297.35C497.508 297.143 496.896 297.04 496.214 297.04C495.023 297.04 494.006 297.36 493.159 298.004C492.316 298.649 491.666 299.509 491.219 300.586C490.772 301.664 490.55 302.877 490.55 304.227C490.55 305.577 490.772 306.758 491.219 307.835C491.666 308.912 492.311 309.773 493.159 310.408C494.006 311.047 495.023 311.363 496.214 311.363C496.906 311.363 497.527 311.259 498.078 311.052C498.629 310.845 499.109 310.572 499.514 310.234C499.919 309.895 500.248 309.519 500.512 309.11C500.771 308.7 500.954 308.301 501.063 307.905L503.12 308.399C502.96 309.015 502.682 309.618 502.282 310.201C501.882 310.784 501.388 311.311 500.79 311.777C500.197 312.242 499.509 312.614 498.742 312.882C497.97 313.155 497.127 313.286 496.214 313.286L496.223 313.301Z" fill="#010101"/>
<path d="M514.324 313.329C512.677 313.329 511.25 312.943 510.04 312.172C508.835 311.4 507.903 310.333 507.249 308.968C506.594 307.604 506.27 306.033 506.27 304.26C506.27 302.487 506.594 300.897 507.249 299.519C507.903 298.145 508.812 297.063 509.984 296.283C511.151 295.502 512.498 295.111 514.018 295.111C515.04 295.111 516.005 295.295 516.914 295.662C517.822 296.029 518.632 296.579 519.338 297.317C520.044 298.056 520.6 298.973 521.005 300.074C521.409 301.174 521.612 302.454 521.612 303.921V304.782H507.625V302.934H520.449L519.475 303.62C519.475 302.346 519.253 301.212 518.811 300.22C518.368 299.227 517.742 298.446 516.928 297.877C516.113 297.308 515.144 297.026 514.018 297.026C512.893 297.026 511.923 297.317 511.085 297.901C510.248 298.484 509.593 299.265 509.122 300.234C508.656 301.207 508.421 302.284 508.421 303.475V304.509C508.421 305.892 508.661 307.096 509.141 308.126C509.617 309.157 510.304 309.961 511.189 310.535C512.079 311.109 513.119 311.396 514.324 311.396C515.162 311.396 515.906 311.264 516.551 310.996C517.191 310.732 517.737 310.365 518.18 309.904C518.622 309.444 518.947 308.931 519.159 308.366L521.216 308.874C520.948 309.683 520.506 310.427 519.875 311.104C519.249 311.786 518.462 312.322 517.521 312.722C516.579 313.122 515.515 313.319 514.324 313.319V313.329Z" fill="#010101"/>
<path d="M539.266 312.962L532.713 289.218H534.996L539.224 305.008C539.417 305.718 539.6 306.438 539.774 307.167C539.949 307.896 540.123 308.63 540.292 309.368C540.462 310.107 540.622 310.86 540.772 311.622H540.485C540.636 310.855 540.791 310.107 540.956 309.368C541.121 308.63 541.295 307.896 541.474 307.167C541.653 306.438 541.841 305.718 542.029 305.008L546.257 289.218H548.903L553.097 305.008C553.29 305.718 553.474 306.438 553.653 307.167C553.832 307.896 554.011 308.63 554.18 309.368C554.349 310.107 554.514 310.86 554.674 311.622H554.34C554.5 310.855 554.665 310.107 554.834 309.368C555.004 308.63 555.178 307.896 555.362 307.167C555.545 306.438 555.724 305.718 555.903 305.008L560.13 289.218H562.442L555.856 312.962H553.163L548.841 297.026C548.564 296.038 548.3 295.003 548.051 293.926C547.801 292.849 547.561 291.678 547.326 290.413H547.806C547.57 291.621 547.335 292.764 547.095 293.832C546.855 294.9 546.591 295.963 546.304 297.026L541.982 312.962H539.271H539.266Z" fill="#010101"/>
<path d="M566.806 291.993C566.382 291.993 566.015 291.842 565.704 291.546C565.393 291.25 565.243 290.892 565.243 290.478C565.243 290.064 565.398 289.711 565.704 289.42C566.01 289.128 566.377 288.982 566.806 288.982C567.234 288.982 567.596 289.128 567.907 289.42C568.213 289.711 568.369 290.064 568.369 290.478C568.369 290.892 568.213 291.25 567.907 291.546C567.596 291.842 567.234 291.993 566.806 291.993ZM565.737 312.962V295.37H567.874V312.962H565.737Z" fill="#010101"/>
<path d="M579.163 295.37V297.232H570.68V295.37H579.163ZM573.387 291.052H575.524V308.85C575.524 309.688 575.713 310.304 576.089 310.699C576.466 311.094 577.05 311.259 577.836 311.193C578.005 311.183 578.203 311.165 578.434 311.136C578.66 311.108 578.872 311.08 579.065 311.047L579.418 312.896C579.182 312.961 578.923 313.008 578.636 313.037C578.349 313.065 578.067 313.088 577.789 313.103C576.395 313.178 575.313 312.849 574.545 312.115C573.773 311.381 573.387 310.346 573.387 309.006V291.047V291.052Z" fill="#010101"/>
<path d="M584.728 302.064V312.962H582.591V289.218H584.728V299.481H584.281C584.77 297.953 585.533 296.842 586.578 296.151C587.619 295.46 588.814 295.116 590.165 295.116C591.366 295.116 592.43 295.37 593.348 295.874C594.266 296.377 594.986 297.111 595.509 298.075C596.031 299.034 596.29 300.224 596.29 301.636V312.967H594.153V301.795C594.153 300.328 593.743 299.176 592.924 298.338C592.105 297.501 591.008 297.078 589.638 297.078C588.716 297.078 587.878 297.275 587.134 297.666C586.39 298.061 585.801 298.625 585.373 299.368C584.945 300.112 584.728 301.01 584.728 302.064Z" fill="#010101"/>
<path d="M608.28 313.329C606.75 313.329 605.395 312.943 604.213 312.171C603.031 311.4 602.109 310.332 601.445 308.959C600.781 307.59 600.447 306.014 600.447 304.241C600.447 302.468 600.776 300.845 601.445 299.476C602.109 298.107 603.031 297.035 604.213 296.264C605.395 295.492 606.75 295.106 608.28 295.106C609.81 295.106 611.194 295.492 612.371 296.264C613.548 297.035 614.466 298.107 615.13 299.481C615.794 300.859 616.128 302.444 616.128 304.236C616.128 306.028 615.794 307.581 615.13 308.954C614.466 310.323 613.544 311.395 612.371 312.167C611.194 312.938 609.834 313.324 608.28 313.324V313.329ZM608.28 311.4C609.49 311.4 610.521 311.08 611.369 310.436C612.211 309.791 612.861 308.931 613.304 307.844C613.751 306.762 613.972 305.558 613.972 304.241C613.972 302.924 613.746 301.687 613.304 300.6C612.856 299.514 612.207 298.648 611.359 298.004C610.507 297.36 609.481 297.04 608.28 297.04C607.08 297.04 606.072 297.364 605.225 298.013C604.382 298.662 603.733 299.528 603.286 300.61C602.838 301.692 602.617 302.905 602.617 304.241C602.617 305.577 602.838 306.772 603.286 307.849C603.733 308.926 604.378 309.787 605.225 310.431C606.072 311.076 607.089 311.395 608.28 311.395V311.4Z" fill="#010101"/>
<path d="M626.415 313.221C625.224 313.221 624.164 312.967 623.242 312.463C622.314 311.96 621.594 311.222 621.072 310.248C620.549 309.274 620.29 308.094 620.29 306.701V295.37H622.427V306.541C622.427 308.009 622.837 309.161 623.656 309.999C624.475 310.836 625.572 311.259 626.942 311.259C627.865 311.259 628.703 311.062 629.447 310.671C630.19 310.276 630.779 309.707 631.207 308.959C631.64 308.211 631.852 307.318 631.852 306.273V295.375H633.989V312.967H631.918V308.856H632.299C631.8 310.398 631.024 311.509 629.978 312.195C628.929 312.882 627.742 313.221 626.415 313.221Z" fill="#010101"/>
<path d="M645.231 295.37V297.232H636.748V295.37H645.231ZM639.455 291.052H641.592V308.85C641.592 309.688 641.781 310.304 642.157 310.699C642.534 311.094 643.118 311.259 643.904 311.193C644.073 311.183 644.271 311.165 644.502 311.136C644.728 311.108 644.939 311.08 645.132 311.047L645.486 312.896C645.25 312.961 644.991 313.008 644.704 313.037C644.417 313.065 644.134 313.088 643.857 313.103C642.463 313.178 641.38 312.849 640.613 312.115C639.841 311.381 639.455 310.346 639.455 309.006V291.047V291.052Z" fill="#010101"/>
<path d="M667.207 313.282C665.178 313.282 663.379 312.778 661.816 311.776C660.253 310.77 659.029 309.359 658.149 307.538C657.264 305.718 656.826 303.573 656.826 301.108C656.826 298.644 657.269 296.485 658.149 294.664C659.029 292.844 660.253 291.428 661.816 290.417C663.379 289.41 665.178 288.902 667.207 288.902C668.482 288.902 669.655 289.1 670.723 289.49C671.792 289.885 672.733 290.436 673.553 291.146C674.372 291.856 675.045 292.689 675.572 293.63C676.099 294.575 676.462 295.6 676.664 296.706H674.4C674.231 295.878 673.939 295.116 673.524 294.429C673.11 293.738 672.588 293.136 671.961 292.623C671.335 292.106 670.62 291.706 669.824 291.419C669.028 291.132 668.153 290.991 667.207 290.991C665.677 290.991 664.293 291.386 663.059 292.176C661.826 292.966 660.847 294.114 660.117 295.619C659.387 297.124 659.025 298.954 659.025 301.108C659.025 303.263 659.387 305.097 660.117 306.598C660.847 308.103 661.83 309.241 663.069 310.022C664.307 310.803 665.686 311.193 667.207 311.193C668.153 311.193 669.024 311.052 669.824 310.765C670.62 310.478 671.335 310.078 671.961 309.561C672.588 309.048 673.11 308.442 673.524 307.745C673.939 307.049 674.231 306.292 674.4 305.473H676.664C676.471 306.569 676.114 307.585 675.586 308.526C675.059 309.467 674.386 310.295 673.567 311.01C672.748 311.725 671.801 312.284 670.728 312.684C669.655 313.084 668.478 313.282 667.202 313.282H667.207Z" fill="#010101"/>
<path d="M687.887 313.329C686.357 313.329 685.001 312.943 683.82 312.171C682.638 311.4 681.716 310.332 681.052 308.959C680.388 307.59 680.054 306.014 680.054 304.241C680.054 302.468 680.383 300.845 681.052 299.476C681.716 298.107 682.638 297.035 683.82 296.264C685.001 295.492 686.357 295.106 687.887 295.106C689.417 295.106 690.801 295.492 691.978 296.264C693.155 297.035 694.073 298.107 694.737 299.481C695.401 300.859 695.735 302.444 695.735 304.236C695.735 306.028 695.401 307.581 694.737 308.954C694.073 310.323 693.15 311.395 691.978 312.167C690.801 312.938 689.441 313.324 687.887 313.324V313.329ZM687.887 311.4C689.097 311.4 690.128 311.08 690.976 310.436C691.818 309.791 692.468 308.931 692.91 307.844C693.358 306.762 693.579 305.558 693.579 304.241C693.579 302.924 693.353 301.687 692.91 300.6C692.463 299.514 691.813 298.648 690.966 298.004C690.114 297.36 689.088 297.04 687.887 297.04C686.687 297.04 685.679 297.364 684.832 298.013C683.989 298.662 683.34 299.528 682.892 300.61C682.445 301.692 682.224 302.905 682.224 304.241C682.224 305.577 682.445 306.772 682.892 307.849C683.34 308.926 683.985 309.787 684.832 310.431C685.679 311.076 686.696 311.395 687.887 311.395V311.4Z" fill="#010101"/>
<path d="M699.897 312.962V295.37H701.987V299.321H701.733C701.987 298.357 702.387 297.558 702.938 296.932C703.484 296.306 704.12 295.836 704.845 295.53C705.57 295.225 706.314 295.069 707.076 295.069C708.385 295.069 709.472 295.469 710.339 296.264C711.205 297.059 711.751 298.113 711.972 299.42H711.605C711.817 298.527 712.198 297.76 712.744 297.111C713.29 296.462 713.959 295.963 714.754 295.606C715.545 295.248 716.416 295.074 717.363 295.074C718.417 295.074 719.363 295.305 720.201 295.765C721.039 296.226 721.703 296.913 722.188 297.821C722.673 298.729 722.913 299.853 722.913 301.189V312.967H720.776V301.241C720.776 299.806 720.394 298.748 719.627 298.07C718.86 297.388 717.918 297.05 716.802 297.05C715.95 297.05 715.202 297.228 714.547 297.591C713.893 297.953 713.385 298.461 713.017 299.119C712.65 299.778 712.467 300.554 712.467 301.448V312.967H710.329V301.048C710.329 299.806 709.971 298.828 709.251 298.117C708.536 297.407 707.603 297.05 706.469 297.05C705.673 297.05 704.934 297.233 704.261 297.6C703.588 297.967 703.046 298.498 702.642 299.199C702.237 299.9 702.034 300.742 702.034 301.716V312.967H699.897V312.962Z" fill="#010101"/>
<path d="M728.011 319.627V295.374H730.083V298.737H730.276C730.53 298.154 730.892 297.585 731.358 297.035C731.824 296.484 732.422 296.028 733.152 295.666C733.882 295.304 734.762 295.125 735.793 295.125C737.248 295.125 738.528 295.506 739.63 296.263C740.731 297.021 741.588 298.084 742.205 299.452C742.822 300.816 743.128 302.402 743.128 304.208C743.128 306.014 742.822 307.632 742.21 308.996C741.598 310.36 740.741 311.428 739.644 312.19C738.542 312.957 737.267 313.338 735.807 313.338C734.786 313.338 733.91 313.154 733.185 312.787C732.455 312.421 731.857 311.96 731.391 311.4C730.925 310.84 730.558 310.266 730.29 309.669H730.148V319.627H728.011ZM735.52 311.386C736.669 311.386 737.648 311.075 738.453 310.454C739.263 309.833 739.879 308.977 740.312 307.891C740.741 306.8 740.957 305.567 740.957 304.184C740.957 302.801 740.745 301.578 740.317 300.501C739.893 299.429 739.272 298.587 738.458 297.975C737.643 297.364 736.664 297.058 735.515 297.058C734.367 297.058 733.402 297.359 732.587 297.957C731.773 298.559 731.156 299.396 730.728 300.468C730.304 301.541 730.087 302.778 730.087 304.18C730.087 305.581 730.299 306.842 730.728 307.924C731.151 309.006 731.773 309.852 732.587 310.464C733.402 311.075 734.376 311.381 735.515 311.381L735.52 311.386Z" fill="#010101"/>
<path d="M747.289 312.962V295.37H749.346V298.14H749.488C749.841 297.237 750.443 296.508 751.305 295.958C752.166 295.407 753.155 295.13 754.271 295.13C754.44 295.13 754.624 295.135 754.822 295.144C755.019 295.153 755.179 295.158 755.306 295.158V297.308C755.231 297.289 755.076 297.261 754.836 297.237C754.596 297.209 754.332 297.195 754.045 297.195C753.16 297.195 752.369 297.388 751.667 297.769C750.966 298.15 750.415 298.681 750.015 299.363C749.615 300.045 749.417 300.835 749.417 301.739V312.957H747.28L747.289 312.962Z" fill="#010101"/>
<path d="M764.929 313.329C763.399 313.329 762.043 312.943 760.861 312.171C759.68 311.4 758.757 310.332 758.093 308.959C757.429 307.59 757.095 306.014 757.095 304.241C757.095 302.468 757.425 300.845 758.093 299.476C758.757 298.107 759.68 297.035 760.861 296.264C762.043 295.492 763.399 295.106 764.929 295.106C766.459 295.106 767.843 295.492 769.02 296.264C770.197 297.035 771.115 298.107 771.779 299.481C772.442 300.859 772.777 302.444 772.777 304.236C772.777 306.028 772.442 307.581 771.779 308.954C771.115 310.323 770.192 311.395 769.02 312.167C767.843 312.938 766.482 313.324 764.929 313.324V313.329ZM764.929 311.4C766.139 311.4 767.17 311.08 768.017 310.436C768.86 309.791 769.509 308.931 769.952 307.844C770.399 306.762 770.62 305.558 770.62 304.241C770.62 302.924 770.394 301.687 769.952 300.6C769.505 299.514 768.855 298.648 768.008 298.004C767.156 297.36 766.129 297.04 764.929 297.04C763.728 297.04 762.721 297.364 761.874 298.013C761.031 298.662 760.381 299.528 759.934 300.61C759.487 301.692 759.265 302.905 759.265 304.241C759.265 305.577 759.487 306.772 759.934 307.849C760.381 308.926 761.026 309.787 761.874 310.431C762.721 311.076 763.738 311.395 764.929 311.395V311.4Z" fill="#010101"/>
<path d="M776.934 312.962V295.37H779.024V299.321H778.77C779.024 298.357 779.424 297.558 779.975 296.932C780.521 296.306 781.156 295.836 781.881 295.53C782.606 295.225 783.35 295.069 784.113 295.069C785.422 295.069 786.509 295.469 787.375 296.264C788.241 297.059 788.788 298.113 789.009 299.42H788.642C788.853 298.527 789.235 297.76 789.781 297.111C790.327 296.462 790.995 295.963 791.791 295.606C792.582 295.248 793.453 295.074 794.399 295.074C795.454 295.074 796.4 295.305 797.238 295.765C798.076 296.226 798.74 296.913 799.224 297.821C799.709 298.729 799.949 299.853 799.949 301.189V312.967H797.812V301.241C797.812 299.806 797.431 298.748 796.664 298.07C795.896 297.388 794.955 297.05 793.839 297.05C792.987 297.05 792.238 297.228 791.584 297.591C790.93 297.953 790.421 298.461 790.054 299.119C789.687 299.778 789.503 300.554 789.503 301.448V312.967H787.366V301.048C787.366 299.806 787.008 298.828 786.288 298.117C785.572 297.407 784.64 297.05 783.506 297.05C782.71 297.05 781.971 297.233 781.298 297.6C780.624 297.967 780.083 298.498 779.678 299.199C779.273 299.9 779.071 300.742 779.071 301.716V312.967H776.934V312.962Z" fill="#010101"/>
<path d="M806.121 291.993C805.697 291.993 805.33 291.842 805.019 291.546C804.709 291.25 804.558 290.892 804.558 290.478C804.558 290.064 804.713 289.711 805.019 289.42C805.325 289.128 805.693 288.982 806.121 288.982C806.549 288.982 806.912 289.128 807.223 289.42C807.529 289.711 807.684 290.064 807.684 290.478C807.684 290.892 807.529 291.25 807.223 291.546C806.912 291.842 806.549 291.993 806.121 291.993ZM805.052 312.962V295.37H807.19V312.962H805.052Z" fill="#010101"/>
<path d="M817.952 313.329C816.77 313.329 815.725 313.146 814.812 312.779C813.898 312.412 813.15 311.876 812.571 311.161C811.992 310.45 811.611 309.58 811.432 308.545L813.489 308.164C813.715 309.246 814.204 310.065 814.962 310.61C815.72 311.156 816.709 311.433 817.919 311.433C819.261 311.433 820.329 311.132 821.129 310.535C821.934 309.933 822.335 309.185 822.335 308.282C822.335 307.558 822.09 306.97 821.6 306.504C821.111 306.043 820.39 305.7 819.43 305.478L816.558 304.792C815.028 304.42 813.88 303.842 813.112 303.061C812.345 302.28 811.964 301.287 811.964 300.088C811.964 299.11 812.227 298.249 812.759 297.501C813.291 296.753 814.021 296.17 814.953 295.747C815.88 295.328 816.949 295.116 818.15 295.116C819.275 295.116 820.254 295.295 821.082 295.657C821.911 296.019 822.589 296.532 823.116 297.195C823.643 297.858 824.011 298.649 824.222 299.561L822.245 299.961C822.01 299.091 821.567 298.371 820.913 297.811C820.259 297.247 819.336 296.965 818.145 296.965C816.954 296.965 815.998 297.247 815.24 297.816C814.487 298.385 814.106 299.114 814.106 300.008C814.106 300.751 814.365 301.358 814.878 301.824C815.391 302.289 816.182 302.652 817.246 302.906L820.004 303.559C821.515 303.922 822.645 304.481 823.394 305.248C824.142 306.015 824.519 306.984 824.519 308.164C824.519 309.185 824.241 310.083 823.681 310.86C823.121 311.636 822.349 312.242 821.36 312.675C820.372 313.108 819.228 313.329 817.933 313.329H817.952Z" fill="#010101"/>
<path d="M835.827 313.329C834.179 313.329 832.753 312.943 831.543 312.172C830.338 311.4 829.406 310.333 828.751 308.968C828.097 307.604 827.772 306.033 827.772 304.26C827.772 302.487 828.097 300.897 828.751 299.519C829.406 298.145 830.314 297.063 831.486 296.283C832.654 295.502 834 295.111 835.521 295.111C836.542 295.111 837.507 295.295 838.416 295.662C839.325 296.029 840.134 296.579 840.841 297.317C841.547 298.056 842.102 298.973 842.507 300.074C842.912 301.174 843.114 302.454 843.114 303.921V304.782H829.128V302.934H841.952L840.977 303.62C840.977 302.346 840.756 301.212 840.313 300.22C839.871 299.227 839.245 298.446 838.43 297.877C837.616 297.308 836.646 297.026 835.521 297.026C834.396 297.026 833.426 297.317 832.588 297.901C831.75 298.484 831.096 299.265 830.625 300.234C830.159 301.207 829.923 302.284 829.923 303.475V304.509C829.923 305.892 830.163 307.096 830.644 308.126C831.119 309.157 831.806 309.961 832.692 310.535C833.581 311.109 834.622 311.396 835.827 311.396C836.665 311.396 837.409 311.264 838.054 310.996C838.694 310.732 839.24 310.365 839.682 309.904C840.125 309.444 840.45 308.931 840.662 308.366L842.719 308.874C842.451 309.683 842.008 310.427 841.377 311.104C840.751 311.786 839.965 312.322 839.023 312.722C838.082 313.122 837.018 313.319 835.827 313.319V313.329Z" fill="#010101"/>
<path fill-rule="evenodd" clip-rule="evenodd" d="M264.958 195.844V244.829L233.972 260.68L264.958 195.844Z" fill="#0F385A"/>
<path fill-rule="evenodd" clip-rule="evenodd" d="M268.527 195.844V244.829L299.518 260.68L268.527 195.844Z" fill="#010101"/>
<path fill-rule="evenodd" clip-rule="evenodd" d="M281.444 286.852C281.444 286.499 281.454 286.146 281.487 285.793C276.784 287.045 271.845 287.708 266.747 287.708C235.041 287.708 209.346 262.03 209.346 230.356C209.346 203.333 228.04 180.694 253.212 174.607H253.222C255.368 174.085 257.557 173.69 259.794 173.422C261.041 176.009 263.687 177.787 266.752 177.787C269.816 177.787 272.453 176.009 273.7 173.422C274.19 172.415 274.463 171.277 274.463 170.082C274.463 169.198 274.317 168.347 274.03 167.552C273.131 164.932 270.852 162.951 268.056 162.476C267.632 162.401 267.194 162.368 266.752 162.368C263.376 162.368 260.509 164.527 259.459 167.552C257.115 167.796 254.813 168.168 252.553 168.657C221.953 175.167 198.999 202.326 198.999 234.848C198.999 272.233 229.335 302.539 266.752 302.539C273.912 302.539 280.809 301.433 287.282 299.373C283.718 296.367 281.449 291.866 281.449 286.847L281.444 286.852Z" fill="#0D6E8F"/>
<path fill-rule="evenodd" clip-rule="evenodd" d="M280.936 168.652C280.983 169.127 281.011 169.602 281.011 170.087C281.011 171.667 280.747 173.191 280.272 174.612C305.449 180.684 324.143 203.337 324.143 230.36C324.143 246.993 317.058 261.974 305.736 272.444C303.89 274.156 301.932 275.742 299.88 277.2C299.767 277.176 299.649 277.153 299.536 277.134C298.994 277.044 298.43 276.993 297.865 276.993C293.628 276.993 290.026 279.655 288.623 283.394C288.223 284.467 288.002 285.629 288.002 286.847C288.002 291.339 291.015 295.14 295.139 296.32C296.005 296.574 296.923 296.706 297.869 296.706C302.605 296.706 306.56 293.366 307.52 288.921C309.775 287.219 311.912 285.384 313.927 283.427C326.619 271.132 334.5 253.907 334.5 234.852C334.5 202.331 311.545 175.167 280.945 168.652H280.936Z" fill="#0F385A"/>
<path d="M866.93 217.543C865.636 217.543 864.421 217.298 863.282 216.809C862.142 216.32 861.144 215.642 860.283 214.782C859.421 213.921 858.744 212.919 858.254 211.785C857.764 210.647 857.52 209.434 857.52 208.14C857.52 206.846 857.764 205.633 858.254 204.495C858.744 203.356 859.421 202.359 860.283 201.498C861.144 200.638 862.147 199.96 863.282 199.471C864.421 198.982 865.636 198.737 866.93 198.737C868.225 198.737 869.458 198.982 870.593 199.471C871.732 199.96 872.73 200.638 873.592 201.498C874.453 202.359 875.131 203.361 875.616 204.495C876.101 205.633 876.346 206.846 876.346 208.14C876.346 209.434 876.105 210.647 875.616 211.785C875.131 212.924 874.458 213.921 873.592 214.782C872.73 215.642 871.727 216.32 870.593 216.809C869.454 217.298 868.234 217.543 866.93 217.543ZM866.93 216.282C868.441 216.282 869.811 215.915 871.049 215.181C872.283 214.448 873.267 213.465 873.992 212.232C874.721 211 875.084 209.631 875.084 208.135C875.084 206.64 874.721 205.271 873.992 204.038C873.262 202.806 872.283 201.823 871.049 201.089C869.816 200.355 868.441 199.988 866.93 199.988C865.419 199.988 864.068 200.355 862.839 201.089C861.61 201.823 860.627 202.806 859.897 204.038C859.162 205.271 858.795 206.64 858.795 208.135C858.795 209.631 859.162 211 859.897 212.232C860.631 213.465 861.61 214.448 862.839 215.181C864.068 215.915 865.433 216.282 866.93 216.282ZM863.79 212.402V203.737H867.674C868.215 203.737 868.696 203.846 869.124 204.062C869.548 204.278 869.887 204.584 870.127 204.974C870.372 205.37 870.489 205.84 870.489 206.39C870.489 206.941 870.367 207.402 870.117 207.811C869.868 208.22 869.529 208.54 869.096 208.77C868.663 209.001 868.173 209.118 867.622 209.118H864.435V208.116H867.443C868.004 208.116 868.446 207.961 868.771 207.646C869.096 207.336 869.256 206.912 869.256 206.386C869.256 205.859 869.096 205.421 868.771 205.139C868.446 204.857 868.013 204.72 867.462 204.72H864.939V212.397H863.79V212.402ZM869.519 212.402L867.415 208.427H868.677L870.828 212.402H869.519Z" fill="#010101"/>
</g>
<defs>
<clipPath id="clip0_138_1203">
<rect width="944" height="254" fill="white" transform="translate(0 114)"/>
</clipPath>
</defs>
</svg>
