<svg width="944" height="482" viewBox="0 0 944 482" fill="none" xmlns="http://www.w3.org/2000/svg">
<path d="M694.123 132.351L693.254 139.025C693.254 139.025 698.479 141.742 705.344 141.742C707.252 141.742 711.303 141.341 713.092 140.683C719.275 138.422 722.283 133.939 722.283 128.429C722.283 122.92 718.407 119.696 711.929 118.54L707.252 117.707C703.548 117.101 700.477 116.217 700.477 111.915C700.477 108.212 703.962 105.446 708.75 105.446C711.471 105.446 714.706 106.391 716.443 108.487L716.558 111.097H719.163L719.741 104.342C716.033 102.914 712.503 102.413 708.922 102.413C700.537 102.413 693.661 105.781 693.661 114.614C693.661 119.365 697.063 123.347 703.962 124.503L709.619 125.44C713.551 126.109 715.004 128.872 715.004 131.236C715.004 136.266 710.83 138.746 705.918 138.746C702.911 138.746 698.409 137.039 696.612 134.504L696.437 132.351H694.123Z" fill="black"/>
<path d="M566.506 173.659C566.785 173.923 577.261 168.655 581.104 172.871C585.602 177.76 579.728 196.545 567.616 220.484C555.847 243.701 545.285 262.851 542.799 270.216C540.28 277.681 545.684 274.96 551.356 272.056C562.645 266.264 610.311 226.521 616.37 223.38C619.777 221.618 592.351 254.311 565.429 282.57C534.552 314.921 504.741 350.998 461.984 350.998C417.131 350.998 397.316 314.423 397.316 314.423C397.316 314.423 408.217 357.686 464.48 357.686C528.939 357.686 577.548 290.001 612.793 249.159C641.344 216.093 666.123 186.902 683.602 176.551C701.099 166.19 720.251 172.607 720.251 172.607C692.975 155.769 659.083 180.236 631.803 204.434C609.163 224.529 570.158 251.084 567.616 253.114C564.296 255.75 609.215 177.607 596.249 166.287C591.442 162.078 564.359 171.607 566.506 173.659Z" fill="black"/>
<path d="M846.203 105.465V103.13H835.481V105.453C837.784 105.453 838.973 105.836 838.339 106.944C837.761 107.948 829.79 121.205 829.79 121.205C829.79 121.205 822.731 108.907 821.96 107.55C821.24 106.29 821.375 105.327 825.124 105.457V103.134H807.656V105.468C811.793 105.364 812.158 106.483 813.116 108.071C814.07 109.662 823.909 126.012 823.909 126.012V134.578C823.853 138.549 823.626 138.928 818.989 138.824V141.147H836.979V138.764C832.294 138.932 832.059 138.552 832.059 134.582C832.059 134.582 832.007 124.808 832.059 124.239C832.059 124.239 840.873 109.324 841.649 108.1C842.431 106.877 843.068 105.472 846.203 105.472" fill="black"/>
<path d="M469.4 134.504C469.4 138.485 469.165 138.924 464.48 138.757V141.144H477.718V138.757C473.037 138.924 472.802 138.485 472.802 134.504V111.807L499.494 141.82L503.679 140.571V109.759C503.679 105.788 503.918 105.349 508.595 105.506V103.13H495.35V105.506C500.045 105.349 500.269 105.788 500.269 109.759V130.697L498.95 129.314L476.283 103.245L464.48 103.13V105.506C469.165 105.349 469.4 105.788 469.4 109.759V134.504Z" fill="black"/>
<path d="M524.762 134.504C524.706 138.486 524.467 138.924 519.846 138.805V141.14H537.824V138.753C533.151 138.921 532.912 138.482 532.912 134.5V109.755C532.912 105.785 533.121 105.431 537.824 105.45V103.126H519.846V105.457C524.467 105.346 524.706 105.785 524.762 109.755V134.5V134.504Z" fill="black"/>
<path d="M563.673 110.484C563.14 109.264 562.328 107.829 562.555 106.502C562.742 105.502 564.996 105.45 567.009 105.45V103.126H548.341V105.45C550.141 105.45 552.91 106.398 554.297 109.428L568.168 141.136H572.476C572.476 141.136 582.006 119.09 586.85 108.045C588.002 105.614 588.58 105.45 591.304 105.45V103.126H577.947V105.45C581.458 105.45 582.736 105.859 582.736 106.937C582.736 107.502 582.229 108.595 581.879 109.815L572.748 131.85L563.673 110.48V110.484Z" fill="black"/>
<path d="M606.025 135.445C606.025 137.876 605.149 138.638 601.884 138.816V141.14H632.545L633.119 132.534H630.868L629.72 136.995C629.72 136.995 624.551 137.66 614.183 137.66V122.752H620.843C621.879 122.752 623.72 122.856 623.902 124.12C624.163 125.232 623.947 126.883 623.947 126.883H626.373L627.268 116.291H624.968C624.864 117.562 624.696 118.053 624.338 118.99C624.077 119.99 623.265 119.99 622.456 119.99H614.183V108.223C614.183 107.547 614.35 106.829 614.574 106.234C616.251 106.234 623.66 106.175 625.74 106.342C627.003 106.454 628.337 106.673 628.4 107.55C628.512 108.77 628.632 110.354 628.632 110.354H630.834L631.408 105.179L631.635 103.134H601.057V105.461C605.473 105.68 605.905 106.071 606.025 109.491V135.448V135.445Z" fill="black"/>
<path d="M649.084 134.504C649.021 138.486 648.794 138.924 644.161 138.805V141.14H662.154V138.753C657.47 138.921 657.231 138.482 657.231 134.5V107.539C657.231 107.156 657.47 106.279 657.47 106.279C658.889 105.944 659.281 105.907 660.932 105.907C665.441 105.907 668.896 109.458 668.896 113.986C668.896 119.027 667.305 122.039 660.567 122.659L660.432 123.667L672.541 141.136H683.356V138.802C681.899 138.646 680.17 137.489 679.301 136.322L668.941 123.169C675.03 122.012 677.345 117.845 677.106 112.532C676.786 105.461 669.597 103.126 663.205 103.126H644.161V105.457C648.794 105.346 649.021 105.785 649.084 109.755V134.5V134.504Z" fill="black"/>
<path d="M739.791 134.504C739.713 138.486 739.497 138.924 734.875 138.805V141.14H752.842V138.753C748.162 138.921 747.938 138.482 747.938 134.5V109.755C747.938 105.785 748.162 105.346 752.842 105.502V103.126H734.875V105.457C739.497 105.346 739.713 105.785 739.791 109.755V134.5V134.504Z" fill="black"/>
<path d="M785.679 106.829H793.826C797.009 106.892 796.439 107.223 796.841 109.985C796.957 110.759 796.957 110.629 796.957 111.406H799.211C799.513 108.086 799.964 103.13 799.964 103.13H763.646C763.646 103.13 763.937 108.699 763.822 111.406H766.136C766.252 110.023 766.315 109.547 766.427 108.602C767.131 107.394 767.642 107 769.047 106.833H777.529V134.507C777.469 138.485 777.238 138.928 772.613 138.813V141.136H790.591V138.761C785.918 138.928 785.679 138.489 785.679 134.511V106.836V106.829Z" fill="black"/>
<path d="M410.863 105.375V103.13H428.472V105.375C426.467 105.375 425.193 105.55 424.652 105.892C424.376 106.048 424.186 106.364 424.097 106.829C423.836 107.952 423.739 123.626 423.739 123.626C423.739 126.912 423.769 128.946 423.847 129.715C424.022 131.407 424.447 132.775 425.159 133.801C425.867 134.846 426.94 135.679 428.405 136.318C429.859 136.957 431.715 137.285 433.962 137.285C436.544 137.285 438.598 136.846 440.13 135.995C441.658 135.143 442.753 134.028 443.406 132.663C444.058 131.295 444.378 128.7 444.378 124.86C444.378 124.86 444.371 111.71 444.352 110.669C444.296 108.402 444.173 107.03 443.965 106.565C443.83 106.268 443.618 106.056 443.324 105.918C442.705 105.61 441.371 105.424 439.302 105.375V103.13H452.242V105.375C450.509 105.375 449.417 105.506 448.977 105.788C448.757 105.929 448.575 106.201 448.429 106.61C448.295 107.015 448.124 108.543 448.027 112.071C447.941 115.309 447.837 126.079 447.837 126.079C447.837 127.689 447.717 129.366 447.471 131.091C447.229 132.82 446.737 134.292 446.014 135.519C445.276 136.746 444.244 137.861 442.902 138.842C441.564 139.831 439.977 140.579 438.132 141.077C436.299 141.586 434.174 141.831 431.763 141.831C428.934 141.831 426.296 141.467 423.847 140.735C422.058 140.196 420.609 139.474 419.476 138.564C418.335 137.653 417.478 136.634 416.886 135.511C416.289 134.388 415.928 133.303 415.797 132.251C415.708 131.611 415.659 129.857 415.659 127.027C415.659 127.027 415.637 110.197 415.548 108.186C415.492 107.39 415.38 106.81 415.208 106.45C415.115 106.256 414.884 106.022 414.508 105.758L410.863 105.375Z" fill="black"/>
<path d="M503.101 203.903C502.87 203.877 513.343 173.12 522.548 171.101C532.331 168.956 527.929 180.927 525.898 184.459C524.493 186.89 525.425 187.121 527.46 185.325C530.918 182.269 539.02 172.8 534.597 168.16C533.192 166.688 530.613 165.777 526.733 165.777C516.589 165.777 502.952 172.681 489.554 203.103C489.554 203.103 476.417 202.869 464.928 204.862C464.872 196.727 460.243 191.441 451.56 191.441C437.096 191.441 416.87 206.115 406.391 224.216C395.911 242.314 399.142 256.988 413.61 256.988C428.077 256.988 448.299 242.314 458.782 224.216C460.918 220.528 462.472 216.985 463.489 213.676C467.104 213.197 476.764 212.156 485.354 212.784C486.033 212.833 475.821 239.909 468.99 253.274C463.504 264.003 446.89 284.146 424.682 274.149C420.128 272.104 420.474 274.911 427.511 277.279C437.122 280.514 454.906 283.194 473.35 260.914C484.367 247.608 499.326 213.465 499.326 213.465C499.326 213.465 532.006 216.115 537.69 189.909C537.69 189.909 532.249 207.829 503.101 203.906M420.236 248.865C412.063 248.865 410.96 237.831 417.769 224.216C424.581 210.602 436.727 199.568 444.9 199.568C450.069 199.568 452.409 203.981 451.709 210.669C446.368 214.019 441.303 217.97 441.303 217.97C440.748 218.405 440.856 218.632 441.546 218.472L450.542 216.305C449.804 218.788 448.753 221.447 447.371 224.216C440.558 237.831 428.409 248.865 420.236 248.865Z" fill="black"/>
<path d="M867.013 285.455C867.013 285.455 857.089 292.697 844 290.987C828.277 288.923 806.654 267.297 801.559 262.435C799.495 260.453 836.133 252.17 843.855 235.191C848.457 225.075 837.788 222.172 837.788 222.172C833.528 243.099 812.729 250.46 795.082 259.275C795.082 259.275 787.699 256.776 779.657 261.907C776.347 264.007 810.224 189.366 815.352 179.581C815.624 179.054 798.269 185.099 797.713 185.909C796.435 187.708 798.399 186.679 797.859 188.801C796.141 195.352 780.443 227.205 780.443 227.205C769.881 227.205 738.14 240.757 734.015 243.117C729.878 245.489 740.209 229.046 736.206 226.544C732.188 224.023 727.806 224.7 718.44 227.068C710.625 229.042 699.53 234.99 694.164 237.719C693.642 229.343 688.51 223.978 679.257 223.978C663.079 223.978 640.461 240.392 628.732 260.635C617.011 280.886 620.623 297.296 636.808 297.296C652.994 297.296 675.612 280.886 687.336 260.635C690.731 254.769 692.837 249.226 693.724 244.303C702.191 238.835 721.567 230.849 723.088 233.381C725.454 237.34 698.338 287.321 693.37 296.794C693.277 296.965 693.556 297.102 694.141 296.924C700.373 295.02 707.987 292.128 709.466 289.05C716.413 274.606 740.753 234.578 764.459 238.909C767.712 239.511 777.719 233.087 777.003 235.094C775.211 240.102 753.819 284.25 746.596 296.37C744.934 299.136 760.363 292.753 762.249 289.165C769.144 276.004 778.274 269.271 783.376 269.271C789.156 269.271 813.131 298.337 839.04 298.337C858.434 298.337 868.232 285.979 867.013 285.455ZM644.221 288.21C635.079 288.21 633.845 275.867 641.459 260.635C649.081 245.411 662.669 233.065 671.807 233.065C678.153 233.065 680.688 239.009 679.1 247.735C674.427 251.928 670.268 256.003 670.268 256.003C669.764 256.497 669.865 256.639 670.495 256.319L677.907 252.493C677.095 255.066 675.988 257.802 674.572 260.635C666.951 275.867 653.366 288.21 644.221 288.21Z" fill="black"/>
<path d="M236.247 315.59C235.956 314.702 235.64 314.289 234.973 313.947C234.074 313.486 232.256 313.839 232.088 313.891C232.088 313.891 228.357 315.107 227.336 315.438C227.273 315.196 227.202 314.951 227.124 314.702C227.079 314.564 227.031 314.43 226.982 314.296C228.104 313.932 231.887 312.69 231.894 312.69C232.058 312.635 233.735 311.85 234.19 310.954C234.369 310.601 234.454 310.285 234.454 309.939C234.454 309.631 234.387 309.296 234.25 308.88C233.318 306.032 231.35 303.5 228.402 301.363C225.451 299.225 222.428 298.139 219.424 298.132C218.493 298.132 218.001 298.31 217.471 298.834C216.752 299.545 216.521 301.374 216.521 301.556V306.53C216.29 306.519 216.059 306.512 215.82 306.512C215.582 306.512 215.351 306.519 215.12 306.53V301.548C215.116 301.374 214.889 299.545 214.169 298.834C213.637 298.31 213.145 298.132 212.213 298.132C209.205 298.139 206.187 299.225 203.239 301.363C200.287 303.5 198.319 306.032 197.388 308.876C197.25 309.296 197.183 309.631 197.183 309.939C197.183 310.285 197.268 310.601 197.447 310.954C197.902 311.854 199.579 312.635 199.747 312.69C199.747 312.69 203.757 313.995 204.662 314.289C204.614 314.427 204.565 314.564 204.521 314.702C204.442 314.947 204.372 315.185 204.312 315.423C203.011 315.003 199.56 313.895 199.553 313.891C199.389 313.836 197.57 313.486 196.668 313.947C196.005 314.289 195.684 314.702 195.401 315.59C194.477 318.449 194.578 321.646 195.703 325.108C196.829 328.561 198.632 331.212 201.062 332.974C201.819 333.525 202.322 333.673 203.064 333.565C204.059 333.409 205.326 332.06 205.434 331.915C205.434 331.915 207.871 328.565 208.497 327.699C208.605 327.781 208.721 327.87 208.836 327.952C209.008 328.074 209.176 328.19 209.343 328.301C208.617 329.298 206.325 332.454 206.321 332.458C206.228 332.591 205.464 333.96 205.464 334.952C205.464 335.041 205.471 335.131 205.486 335.209C205.605 335.949 205.903 336.38 206.656 336.926C209.09 338.685 212.176 339.577 215.82 339.577C219.465 339.577 222.547 338.685 224.981 336.926C225.734 336.38 226.032 335.949 226.155 335.209C226.17 335.131 226.17 335.041 226.17 334.952C226.17 333.96 225.41 332.591 225.316 332.454C225.316 332.454 223.039 329.327 222.294 328.305C222.465 328.19 222.633 328.074 222.804 327.952C222.92 327.87 223.032 327.784 223.144 327.699C223.863 328.688 226.207 331.915 226.215 331.919C226.319 332.06 227.582 333.409 228.585 333.565C229.323 333.673 229.822 333.525 230.579 332.978C233.008 331.212 234.812 328.561 235.938 325.108C237.067 321.646 237.168 318.449 236.243 315.59M217.691 304.129C217.691 303.958 217.963 302.619 218.452 301.95C219.789 300.11 221.612 301.366 223.222 302.47C224.444 303.314 225.607 304.117 226.479 303.66L226.87 303.459L226.796 303.891C226.785 303.954 226.777 304.017 226.777 304.084C226.777 304.972 227.828 305.768 228.935 306.612C230.102 307.504 231.384 308.478 231.384 309.687C231.384 310.092 231.238 310.519 230.91 310.977C230.411 311.664 229.185 312.341 229.08 312.367C229.08 312.367 227.146 313.006 226.52 313.211C225.894 311.932 225.059 310.91 224.034 310.162C223.617 309.858 223.345 309.783 222.942 309.846C222.436 309.921 221.735 310.62 221.623 310.765C221.623 310.765 220.367 312.497 219.245 314.033C219.137 313.947 219.029 313.869 218.914 313.795C220.035 312.259 221.273 310.508 221.273 310.508C221.366 310.371 221.754 309.62 221.754 309.107C221.754 309.058 221.754 309.014 221.742 308.973C221.675 308.571 221.515 308.341 221.098 308.036C220.132 307.341 218.996 306.88 217.691 306.66C217.691 305.991 217.691 304.129 217.691 304.129ZM221.448 318.029C221.336 316.72 220.777 315.542 219.92 314.639C220.531 313.798 221.291 312.754 221.291 312.754C221.344 312.694 221.832 312.259 222.171 312.148C223.002 311.88 223.308 312.564 223.714 313.724C223.967 314.445 224.232 315.185 224.769 315.449C224.683 315.62 224.627 315.802 224.627 316.01C224.627 316.449 224.78 316.944 224.921 317.434C225.089 317.981 225.212 318.434 225.212 318.788C225.212 319.196 225.048 319.475 224.605 319.62C224.265 319.728 223.617 319.661 223.527 319.643C223.52 319.643 222.361 319.271 221.448 318.977C221.463 318.825 221.467 318.669 221.467 318.512C221.467 318.353 221.459 318.189 221.444 318.029M217.766 309.415C218.999 309.441 219.752 309.523 219.752 310.389C219.752 310.746 219.488 311.341 219.443 311.419C219.435 311.426 218.69 312.497 218.075 313.345C217.404 313.051 216.663 312.884 215.888 312.876C215.861 312.876 215.835 312.873 215.813 312.873C215.015 312.873 214.263 313.036 213.577 313.33C212.958 312.486 212.176 311.415 212.176 311.415C212.138 311.345 211.874 310.757 211.874 310.389C211.874 309.523 212.623 309.441 213.86 309.415C214.613 309.393 215.392 309.374 215.813 308.958C216.234 309.374 217.013 309.393 217.766 309.415ZM202.572 312.371C202.449 312.341 201.223 311.664 200.723 310.977C199.389 309.136 201.148 307.798 202.698 306.612C203.883 305.712 205.002 304.861 204.838 303.891L204.77 303.459L205.158 303.66C206.03 304.117 207.189 303.314 208.415 302.47C210.025 301.366 211.844 300.11 213.182 301.95C213.674 302.623 213.938 303.961 213.938 304.11V306.664C212.641 306.88 211.505 307.341 210.54 308.036C210.115 308.341 209.958 308.571 209.895 308.973C209.887 309.014 209.884 309.058 209.884 309.107C209.884 309.62 210.267 310.371 210.364 310.512C210.364 310.512 211.643 312.263 212.746 313.776C212.619 313.858 212.504 313.943 212.384 314.033C211.263 312.49 210.01 310.761 210.01 310.761C209.899 310.62 209.198 309.921 208.687 309.846C208.281 309.783 208.017 309.858 207.599 310.162C206.578 310.91 205.747 311.928 205.121 313.203C204.383 312.958 202.572 312.371 202.572 312.371ZM210.178 318.977C209.254 319.278 208.091 319.646 208.091 319.646C208.016 319.661 207.364 319.728 207.021 319.62C206.578 319.475 206.414 319.196 206.414 318.788C206.414 318.434 206.537 317.981 206.701 317.434C206.846 316.944 206.995 316.449 206.995 316.01C206.995 315.802 206.939 315.62 206.857 315.449C207.39 315.185 207.659 314.445 207.908 313.724C208.318 312.564 208.628 311.88 209.455 312.148C209.798 312.259 210.275 312.69 210.342 312.757C210.349 312.765 211.102 313.806 211.71 314.639C210.964 315.423 210.446 316.419 210.249 317.527C210.193 317.847 210.159 318.178 210.159 318.512C210.159 318.669 210.171 318.825 210.182 318.977M205.937 329.164C205.87 329.275 204.841 330.227 204.04 330.487C201.871 331.19 201.137 329.108 200.488 327.268C199.993 325.866 199.527 324.543 198.55 324.398L198.118 324.331L198.431 324.026C199.136 323.334 198.733 321.992 198.304 320.568C197.742 318.698 197.112 316.583 199.277 315.88C200.082 315.62 201.472 315.791 201.58 315.832C201.58 315.832 203.287 316.378 204.066 316.628C203.891 317.888 203.984 319.077 204.338 320.178C204.495 320.672 204.662 320.895 205.031 321.081C205.486 321.316 206.462 321.163 206.641 321.107C206.641 321.107 208.594 320.483 210.335 319.921C210.368 320.052 210.405 320.182 210.45 320.308C208.695 320.881 206.772 321.524 206.772 321.524C206.6 321.583 205.713 322.029 205.486 322.49C205.303 322.855 205.296 323.134 205.456 323.628C205.848 324.825 206.559 325.922 207.577 326.907C207.081 327.587 205.926 329.175 205.933 329.164M208.971 324.412C208.244 323.858 207.756 323.438 207.756 322.97C207.756 322.81 207.815 322.639 207.946 322.457C208.154 322.167 208.717 321.843 208.803 321.806C208.81 321.803 209.917 321.42 210.804 321.13C211.591 322.624 213.029 323.725 214.743 324.052C214.736 324.948 214.669 326.071 214.669 326.071C214.661 326.145 214.524 326.784 214.315 327.074C213.804 327.777 213.152 327.401 212.131 326.703C211.501 326.271 210.86 325.851 210.268 325.952C210.182 325.357 209.578 324.877 208.967 324.412M222.834 331.16C222.916 331.26 223.509 332.532 223.509 333.372C223.509 335.644 221.295 335.696 219.342 335.744C217.852 335.781 216.447 335.815 216.007 336.692L215.813 337.082L215.615 336.692C215.179 335.815 213.771 335.781 212.28 335.744C210.327 335.696 208.113 335.644 208.113 333.372C208.113 332.532 208.702 331.26 208.777 331.171C208.777 331.171 209.988 329.506 210.413 328.922C211.605 329.513 212.802 329.814 213.994 329.814C214.512 329.814 214.777 329.725 215.068 329.435C215.433 329.074 215.586 328.097 215.593 327.915V324.152C215.664 324.152 215.735 324.156 215.809 324.156H215.854C215.914 324.152 215.97 324.152 216.025 324.148V327.918C216.033 328.097 216.182 329.071 216.555 329.435C216.845 329.725 217.106 329.814 217.628 329.814C218.821 329.814 220.021 329.513 221.206 328.922C221.75 329.669 222.834 331.156 222.834 331.16ZM222.648 324.412C222.044 324.877 221.437 325.357 221.351 325.952C220.758 325.851 220.114 326.271 219.484 326.703C218.47 327.401 217.818 327.777 217.307 327.074C217.095 326.788 216.961 326.152 216.95 326.059V324.037C218.63 323.695 220.039 322.609 220.814 321.137C221.709 321.427 222.827 321.806 222.827 321.806C222.894 321.84 223.464 322.167 223.677 322.457C223.807 322.639 223.87 322.81 223.87 322.97C223.87 323.438 223.375 323.858 222.648 324.412ZM233.191 324.026L233.508 324.331L233.072 324.398C232.099 324.543 231.633 325.866 231.138 327.268C230.489 329.108 229.751 331.19 227.586 330.487C226.781 330.231 225.756 329.275 225.693 329.179C225.693 329.179 224.459 327.483 224.042 326.907C225.055 325.922 225.767 324.825 226.162 323.628C226.241 323.394 226.278 323.208 226.278 323.037C226.278 322.847 226.229 322.684 226.133 322.49C225.901 322.029 225.018 321.583 224.843 321.524C224.843 321.524 222.909 320.877 221.168 320.312C221.213 320.182 221.25 320.052 221.284 319.918C223.009 320.475 224.981 321.107 224.981 321.107C225.16 321.163 226.136 321.316 226.591 321.081C226.96 320.895 227.128 320.672 227.284 320.178C227.638 319.081 227.731 317.903 227.564 316.642C228.335 316.393 230.027 315.836 230.027 315.836C230.15 315.791 231.544 315.62 232.349 315.88C234.514 316.583 233.881 318.698 233.322 320.568C232.897 321.992 232.494 323.338 233.191 324.026Z" fill="black"/>
<path d="M262.972 320.479C262.972 320.479 262.976 320.479 262.979 320.472ZM171.017 322.937C182.085 337.005 196.78 349.433 214.751 359.909L216.052 360.668L217.352 359.909C235.327 349.433 250.018 337.005 261.083 322.937L264.228 318.754C272.587 307.136 278.763 294.191 282.631 280.19L282.638 280.202L282.769 279.688C283.142 278.324 283.499 276.952 283.824 275.569V275.554L283.827 275.547L284.14 274.231L284.125 274.216C284.934 270.625 285.568 267.111 286.071 263.68C286.078 263.743 286.078 263.803 286.086 263.866C287.349 275.666 291.374 281.161 298.761 281.161C304.254 281.161 307.601 279.042 308.987 274.681C309.099 274.328 309.263 273.84 309.46 273.261C310.504 270.201 312.244 265.078 312.244 262.189C312.244 261.966 312.244 261.739 312.248 261.513C312.267 259.025 312.285 256.256 309.326 255.356C309.196 255.241 309.069 255.14 308.939 255.055C309.96 254.445 310.765 253.921 311.242 253.479C312.524 252.296 313.884 249.263 315.46 245.746C316.355 243.753 317.279 241.69 318.181 240.017C318.229 239.927 318.297 239.801 318.39 239.641C324.923 227.915 326.876 217.461 323.883 210.193C323.864 210.156 323.849 210.119 323.827 210.085C323.786 210.003 323.726 209.933 323.667 209.87C321.882 204.721 319.933 200.824 312.203 195.356C308.894 193.017 305.733 191.106 303.195 189.567C300.587 187.991 298.407 186.667 297.084 185.511C300.158 185.887 303.166 186.76 306.08 187.612C310.086 188.775 314.231 189.984 318.688 189.984C327.177 189.984 331.475 187.054 334.922 184.701C337.054 183.247 338.738 182.102 340.825 182.102C341.093 182.102 341.321 181.912 341.369 181.652C341.421 181.392 341.28 181.132 341.03 181.035C340.035 180.641 339.006 179.764 337.814 178.745C335.615 176.867 332.723 174.414 327.99 173.205C327.975 173.135 327.964 173.064 327.949 172.994C327.282 169.956 325.702 166.93 323.328 164.086C325.512 164.629 328.269 165.168 330.573 165.168C334.292 165.168 336.789 163.963 339.208 162.8C339.834 162.495 340.49 162.182 341.16 161.889C341.567 161.714 341.82 161.305 341.802 160.866C341.779 160.424 341.492 160.041 341.071 159.9C339.144 159.253 336.863 157.119 334.653 155.056C332.283 152.843 330.047 150.754 327.859 149.988C326.462 149.494 325.038 149.267 323.376 149.267C322.631 149.267 321.915 149.308 321.226 149.353C320.574 149.39 319.959 149.431 319.351 149.431C318.595 149.431 317.969 149.371 317.38 149.245C317.033 149.167 316.94 149.089 316.936 149.089C316.914 149.055 316.877 148.929 316.847 148.836C316.485 147.62 315.859 146.653 312.472 146.178C325.139 142.148 333.945 137.53 339.286 132.136C345.409 125.946 346.203 119.403 346.21 114.391C346.21 114.231 346.203 114.071 346.195 113.908V113.77C346.195 113.77 346.188 113.722 346.188 113.711C346.087 112.276 345.726 110.867 345.156 109.513C343.933 103.193 340.821 97.271 338.645 93.1332C337.683 91.3003 336.852 89.724 336.491 88.6756C336.211 87.8689 335.932 87.0249 335.645 86.1699C334.449 82.5785 333.215 78.8608 331.717 76.7008C330.569 75.0427 327.979 73.0091 325.694 71.2135C324.256 70.0796 322.892 69.0089 322.098 68.1984C321.919 68.0162 321.639 67.979 321.416 68.1092C321.196 68.2393 321.095 68.5032 321.17 68.7449C321.446 69.6446 321.159 70.3844 320.827 71.2432C320.559 71.9421 320.275 72.6634 320.275 73.5333C320.275 74.5111 320.991 75.6227 321.684 76.6971C322.027 77.2287 322.59 78.0987 322.623 78.4333C322.348 78.3775 321.699 77.8459 321.174 77.4146C319.918 76.3811 318.196 74.9684 316.042 74.723C315.602 74.6747 315.173 74.6189 314.752 74.5594C315.785 72.8121 316.262 70.7934 316.262 69.2208C316.262 67.5366 316.623 66.4734 317.044 65.2502L317.212 64.7632C317.365 64.3022 317.19 63.7929 316.776 63.5289C316.366 63.265 315.829 63.3096 315.472 63.6405C315.464 63.6479 315.319 63.778 314.659 63.778C314.089 63.778 313.396 63.6851 312.658 63.5847C311.834 63.4732 310.985 63.3616 310.191 63.3616C308.476 63.3616 305.029 64.41 302.726 66.7448C302.707 66.7633 302.692 66.7894 302.674 66.808C302.666 66.8154 302.655 66.8228 302.651 66.8265C301.328 68.1686 301.101 68.875 301.101 70.5443C301.101 73.8493 302.402 76.3922 304.202 79.9129C305.096 81.664 306.11 83.6418 307.157 86.0881C310.18 93.174 313.772 94.1183 325.69 97.2412C326.555 97.468 327.468 97.7097 328.43 97.9625C329.134 98.1484 329.846 98.3751 330.55 98.6279C330.997 104.063 329 110.29 325.325 114.908C319.157 122.656 309.784 126.682 300.721 130.578C300.274 130.771 299.819 130.965 299.368 131.162L303.699 127.161C306.162 124.886 306.639 122.425 307.023 120.455C307.291 119.068 307.504 117.975 308.301 117.243C310.88 114.86 313.139 110.569 314.149 107.591C314.86 105.483 313.91 101.714 313.064 98.3863C312.68 96.8732 312.285 95.308 312.285 94.6723C312.285 94.2485 312.032 93.8655 311.644 93.6945C311.249 93.5235 310.798 93.6016 310.489 93.8916C309.997 94.3451 309.076 94.7913 308.011 95.3043C305.685 96.4308 302.51 97.9662 300.292 101.294C299.689 98.8138 298.25 96.4717 296.036 94.4232C293.655 92.2223 289.753 90.7612 286.313 89.4749C283.958 88.5938 281.733 87.761 280.891 86.984C280.577 86.6941 280.123 86.6197 279.735 86.7907C279.344 86.9617 279.09 87.3447 279.09 87.7685C279.09 88.5864 278.796 90.2854 278.487 92.081C278.025 94.7689 277.499 97.8175 277.499 100.163C277.499 101.386 277.987 102.788 279.135 104.848C279.172 104.915 279.217 104.978 279.266 105.034C279.895 105.751 280.626 106.628 281.379 107.625C283.145 110.554 285.009 113.807 285.009 116.778C285.009 126.756 277.112 131.842 269.289 132.456C268.462 132.522 267.638 132.552 266.848 132.552C258.381 132.552 254.371 128.786 253.26 127.518C253.45 126.373 253.23 125.202 252.634 124.258C252.034 123.299 251.102 122.644 249.992 122.41L249.921 122.395L252.749 109.811L254.557 102.119C254.617 101.862 254.564 101.591 254.415 101.372C254.266 101.152 254.031 101.007 253.771 100.97C251.71 100.676 249.593 100.308 247.543 99.9515C243.85 99.3083 240.03 98.6428 236.206 98.3566C236.098 98.3491 235.99 98.364 235.893 98.39L230.128 99.5351L229.651 106.502C228.22 106.424 226.792 106.361 225.365 106.309L225.756 97.4123C225.767 97.1594 225.674 96.9178 225.503 96.7319C225.331 96.546 225.093 96.4382 224.843 96.4308C221.821 96.3304 218.78 96.2783 215.802 96.2783C212.824 96.2783 209.779 96.3304 206.761 96.4308C206.507 96.4382 206.269 96.546 206.101 96.7319C205.929 96.9178 205.84 97.1594 205.847 97.4123L206.235 106.309C204.867 106.361 203.496 106.42 202.121 106.495L201.651 99.5351L195.699 98.3863C195.602 98.364 195.502 98.3491 195.398 98.3566C191.578 98.6428 187.758 99.3083 184.064 99.9515C182.015 100.308 179.898 100.68 177.837 100.97C177.572 101.007 177.337 101.152 177.188 101.372C177.039 101.591 176.987 101.862 177.05 102.119L178.858 109.8L181.69 122.403L181.638 122.414C180.557 122.641 179.629 123.295 179.026 124.254C178.366 125.303 178.161 126.622 178.47 127.879C178.996 130.032 180.781 131.597 182.719 131.597C182.969 131.597 183.218 131.571 183.431 131.526L184.333 131.366C183.837 131.682 183.297 132.039 182.723 132.437C180.542 133.047 177.688 133.519 174.073 133.519C163.936 133.519 156.527 123.942 156.527 119.871C156.527 117.979 156.829 116.231 157.149 114.384C157.548 112.101 157.999 109.513 157.999 106.06C157.999 103.39 157.339 101.457 156.758 99.7544C155.946 97.3676 155.245 95.308 156.396 91.7427C156.475 91.5048 156.378 91.2445 156.165 91.1107C155.957 90.9732 155.677 90.9992 155.491 91.1702C152.886 93.5756 152.42 94.0068 147.78 95.6947C143.412 97.2858 139.149 101.543 138.683 106.22C137.777 105.071 136.592 104.026 135.623 103.446C133.432 102.141 131.289 101.94 129.403 101.766C127.767 101.613 126.358 101.479 125.102 100.721C124.856 100.576 124.543 100.636 124.372 100.862C124.201 101.089 124.23 101.409 124.439 101.598C125.736 102.796 125.736 109.119 125.736 111.502C125.736 114.283 129.336 117.499 131.714 119.622C132.057 119.927 132.373 120.213 132.649 120.466C133.108 120.89 133.518 121.514 134.036 122.302C135.552 124.619 137.755 127.983 144.288 131.236C131.155 130.035 112.42 120.83 107.083 104.532C106.688 103.323 106.804 102.275 107.43 101.413C108.459 99.9961 110.832 99.1187 113.616 99.1187C116.814 99.1187 120.049 100.364 120.049 102.747C120.049 102.967 120.179 103.167 120.381 103.253C120.582 103.342 120.817 103.301 120.977 103.152C123.138 101.16 123.466 98.0777 122.676 96.0664C122.401 95.3675 121.998 94.8024 121.502 94.3935C122.81 93.9994 124.1 93.3265 125.203 92.6313C125.464 92.5309 127.92 91.2929 128.069 91.1925C130.983 89.2407 135.046 84.311 135.046 80.7122C135.046 80.1843 135.59 79.3069 136.164 78.3812C137.3 76.5558 138.858 74.0501 138.858 70.5145C138.858 67.5515 136.786 62.0195 131.788 62.0195C129.44 62.0195 128.289 62.6441 127.271 63.1943C126.314 63.7148 125.49 64.1609 123.478 64.1609C123.019 64.1609 122.617 64.4509 122.464 64.8785C122.315 65.3097 122.456 65.7856 122.814 66.0681C125.538 68.2058 127.268 70.7116 128.103 73.7192C126.22 75.1914 124.685 75.9424 123.537 75.9424C121.018 75.9424 114.328 75.9424 108.511 79.5263C102.686 83.1176 99.2868 93.1332 97.4607 98.5164L97.4383 98.5871C96.5514 101.208 95.6569 102.606 94.8668 103.84C94.0432 105.13 93.3351 106.242 92.8954 108.272C91.5723 114.369 92.5227 126.886 104.46 135.151C113.844 141.642 124.834 143.006 132.403 143.006C133.544 143.006 134.68 142.977 135.802 142.913C132.467 144.52 127.458 146.698 123.168 148.185C121.193 148.869 118.771 149.561 116.43 150.23C112.185 151.438 107.799 152.687 105.611 154.033C103.371 155.412 100.651 158.58 98.4707 161.123C97.3154 162.469 96.3203 163.629 95.6085 164.287C95.4408 164.443 95.3849 164.681 95.4669 164.893C95.5526 165.105 95.7538 165.242 95.9849 165.242C99.5962 165.242 100.815 165.242 103.919 165.896C104.732 166.067 105.104 166.283 105.436 166.476C105.783 166.681 106.144 166.889 106.781 166.889C107.385 166.889 108.246 166.707 109.782 166.235C108.164 167.852 106.323 170.503 105.883 174.388H102.309C98.9253 174.388 96.3427 176.124 94.0656 177.659C92.0978 178.983 90.2344 180.236 88.1213 180.236C87.5847 180.236 87.13 180.637 87.0592 181.169C86.9921 181.7 87.3275 182.202 87.8493 182.336C89.3698 182.734 91.755 184.284 94.2855 185.928C98.9589 188.957 104.776 192.731 110.076 192.731C115.089 192.731 117.313 191.828 118.935 191.166C119.922 190.764 120.634 190.474 121.722 190.474C122.576 190.474 123.679 190.653 124.849 190.846C126.381 191.099 128.114 191.385 129.906 191.385C130.13 191.385 130.35 191.385 130.57 191.37C120.675 197.78 111.477 204.769 108.022 213.037C104.65 221.108 108.358 230.339 110.348 235.299C110.732 236.254 111.064 237.076 111.239 237.645C112.29 241.05 112.29 247.259 112.29 249.597C112.29 253.605 115.599 258.126 118.923 262.066C117.321 264.531 116.81 268.037 117.325 273.052C117.779 277.488 118.92 280.042 121.756 282.994C122.065 283.343 122.389 283.663 122.717 283.953C122.721 283.956 122.725 283.956 122.725 283.96C123.198 284.377 123.671 284.737 124.104 285.068C124.133 285.09 124.167 285.113 124.201 285.131C126.366 286.429 128.84 287.113 131.352 287.113C132.18 287.113 133.018 287.038 133.872 286.89C135.4 286.585 136.82 286.076 138.102 285.384C138.116 285.373 138.128 285.365 138.143 285.358C138.184 285.332 138.225 285.306 138.266 285.28H138.269C138.269 285.28 138.284 285.269 138.292 285.265C139.205 284.693 139.939 284.034 140.528 283.317C144.337 279.413 146.144 273.785 146.144 265.26C146.144 264.929 146.133 264.606 146.118 264.279C146.606 267.524 147.21 270.837 147.974 274.223L147.963 274.238L148.272 275.554C148.272 275.554 148.272 275.558 148.272 275.562V275.577C148.604 276.96 148.961 278.335 149.334 279.7L149.465 280.209L149.472 280.198C153.34 294.199 159.512 307.14 167.875 318.762L171.02 322.944L171.017 322.937ZM314.13 69.217C314.13 70.6595 313.59 72.6708 312.431 74.1914C307.958 73.5333 305.853 72.1912 304.869 70.7413C304.5 69.7933 304.526 68.8341 304.552 68.0274C304.552 68.0013 304.552 67.9753 304.556 67.9493C306.326 66.3395 308.916 65.4882 310.194 65.4882C310.843 65.4882 311.622 65.5923 312.375 65.6964C313.124 65.7967 313.895 65.9008 314.588 65.9083C314.324 66.8377 314.13 67.8564 314.13 69.217ZM125.993 66.0235C126.984 65.7781 127.666 65.4101 128.3 65.0681C129.206 64.5773 129.988 64.1498 131.796 64.1498C135.236 64.1498 136.723 68.362 136.723 70.5108C136.723 73.4367 135.407 75.552 134.349 77.2548C133.577 78.5002 132.906 79.5709 132.906 80.7085C132.906 81.9131 131.68 84.8055 129.381 87.2666C130.424 83.3109 131.55 78.2362 130.216 73.2768C129.481 70.548 128.065 68.1166 125.989 66.0198M125.542 92.4082C125.497 92.4454 125.438 92.4826 125.367 92.5197C125.363 92.5197 125.36 92.5234 125.352 92.5272C125.415 92.4863 125.479 92.4454 125.538 92.4045M261.198 188.021V188.039H249.76C249.146 185.838 248.449 184.567 245.59 182.035C245.601 181.976 245.613 181.92 245.613 181.86C245.613 177.135 246.977 171.414 248.437 166.807C248.557 166.967 248.68 167.131 248.806 167.298C253.398 173.395 261.086 183.6 261.198 188.021ZM229.956 127.396C229.341 127.359 226.885 127.221 226.885 127.221C225.719 127.076 224.828 125.849 224.873 124.41C224.918 122.983 225.909 121.819 227.098 121.782C227.101 121.782 227.113 121.782 227.116 121.782C227.489 121.752 230.198 121.946 230.415 121.96L230.784 121.979C231.447 122.009 232.192 122.072 232.982 122.143C233.43 122.18 233.888 122.221 234.354 122.254L236.359 122.418L239.255 122.73C240.406 122.853 241.494 122.975 242.549 123.135C243.019 123.202 243.477 123.269 243.921 123.328C244.711 123.436 245.46 123.54 246.127 123.659L249.615 124.277C250.185 124.395 250.677 124.745 251.002 125.262C251.389 125.875 251.505 126.663 251.318 127.418C251.005 128.704 249.977 129.675 248.933 129.675C248.818 129.675 248.698 129.663 248.553 129.634L245.266 129.054C244.617 128.939 243.902 128.838 243.142 128.738C242.717 128.678 242.281 128.619 241.841 128.556C240.824 128.399 239.732 128.281 238.67 128.165L236.072 127.883L233.877 127.701C233.422 127.667 232.979 127.63 232.55 127.593C231.779 127.53 231.052 127.466 230.396 127.437L229.949 127.407L229.956 127.396ZM180.692 109.368L179.115 102.673C180.878 102.405 182.656 102.097 184.385 101.795C187.739 101.212 191.194 100.609 194.626 100.297L195.498 107.889C195.554 108.391 196.001 108.755 196.508 108.722C200.067 108.458 203.678 108.261 207.249 108.142C207.502 108.134 207.741 108.026 207.908 107.84C208.08 107.655 208.169 107.409 208.162 107.156L207.771 98.2673C210.458 98.1855 213.152 98.1446 215.798 98.1446C218.444 98.1446 221.139 98.1855 223.826 98.2673L223.438 107.156C223.427 107.409 223.52 107.655 223.688 107.84C223.859 108.023 224.098 108.134 224.347 108.142C227.918 108.261 231.529 108.458 235.088 108.722C235.591 108.759 236.038 108.391 236.098 107.889L236.966 100.297C240.402 100.606 243.857 101.212 247.211 101.795C248.937 102.097 250.715 102.405 252.477 102.673L250.901 109.376L248.054 122.053L246.466 121.771C245.765 121.644 244.998 121.54 244.185 121.429C243.745 121.369 243.294 121.306 242.84 121.239C241.748 121.072 240.589 120.945 239.463 120.823L237.391 120.6L234.503 120.343C234.037 120.31 233.582 120.269 233.146 120.232C232.338 120.165 231.574 120.098 230.884 120.068L227.37 119.871C227.329 119.871 227.295 119.871 227.254 119.871C227.213 119.867 227.169 119.86 227.128 119.856C227.128 119.856 226.759 119.826 226.118 119.808L223.583 119.726C221.929 119.652 219.875 119.633 217.702 119.611L215.809 119.592L213.942 119.611C211.766 119.633 209.716 119.652 208.072 119.722L205.531 119.808C204.905 119.826 204.539 119.852 204.539 119.852C204.506 119.852 204.472 119.86 204.442 119.864C204.387 119.864 204.331 119.864 204.275 119.867L200.775 120.061C200.075 120.094 199.314 120.157 198.502 120.228C198.066 120.265 197.611 120.306 197.138 120.339L195.081 120.507L192.185 120.819C191.063 120.942 189.9 121.068 188.816 121.235C188.35 121.302 187.899 121.366 187.459 121.425C186.647 121.537 185.883 121.641 185.182 121.767L183.543 122.057L180.692 109.365V109.368ZM223.658 127.106L223.352 127.095C221.776 127.024 219.812 127.005 217.736 126.983C217.11 126.976 216.473 126.972 215.813 126.964C215.176 126.972 214.542 126.979 213.912 126.983C211.836 127.005 209.872 127.024 208.307 127.095L207.99 127.106L204.715 127.221V127.214C203.574 127.158 202.594 126.02 202.505 124.607C202.452 123.812 202.702 123.042 203.187 122.492C203.522 122.117 203.954 121.882 204.431 121.801C204.446 121.797 204.48 121.793 204.491 121.793C205.214 121.689 208.11 121.629 208.11 121.629H208.151C209.768 121.555 211.807 121.537 213.964 121.514L215.817 121.496L217.691 121.514C219.849 121.537 221.888 121.555 223.52 121.629L223.874 121.641C223.337 122.392 222.998 123.328 222.965 124.343C222.935 125.37 223.196 126.318 223.665 127.098M183.062 129.626C181.929 129.868 180.68 128.838 180.326 127.407C180.144 126.648 180.259 125.864 180.643 125.251C180.971 124.734 181.463 124.384 182.003 124.269L185.525 123.645C186.189 123.526 186.938 123.425 187.731 123.314C188.175 123.254 188.633 123.191 189.11 123.12C190.158 122.96 191.246 122.841 192.397 122.719L195.271 122.406L197.298 122.243C197.768 122.209 198.23 122.169 198.673 122.131C199.463 122.064 200.213 122.001 200.883 121.968L201.241 121.949C200.768 122.767 200.537 123.741 200.604 124.726C200.667 125.741 201.025 126.663 201.569 127.399L201.264 127.414C200.596 127.444 199.873 127.507 199.106 127.574C198.677 127.611 198.23 127.648 197.768 127.682L195.793 127.846L192.986 128.15C191.924 128.262 190.832 128.381 189.818 128.537C189.368 128.604 188.932 128.663 188.507 128.723C187.75 128.827 187.035 128.927 186.39 129.039L183.069 129.626H183.062ZM188.115 131.493C188.279 131.407 188.413 131.284 188.514 131.128L188.846 130.6C189.252 130.545 189.666 130.489 190.102 130.422C191.074 130.269 192.099 130.162 193.184 130.043L195.964 129.742L197.909 129.582C198.372 129.548 198.822 129.507 199.258 129.47C200.004 129.407 200.712 129.347 201.353 129.318L204.741 129.128C204.767 129.128 204.797 129.121 204.823 129.121C204.882 129.121 204.942 129.121 205.024 129.113C205.039 129.113 205.356 129.087 205.911 129.072L208.385 128.994C209.928 128.924 211.874 128.905 213.935 128.886C214.565 128.879 215.202 128.872 215.817 128.864C216.454 128.872 217.091 128.879 217.721 128.886C219.782 128.905 221.727 128.927 223.282 128.994L225.749 129.072C226.263 129.087 226.572 129.11 226.621 129.113C226.632 129.113 226.643 129.113 226.654 129.113C226.677 129.113 226.695 129.113 226.718 129.113C227.094 129.615 227.627 130.288 228.361 131.184C229.099 133.351 229.472 135.995 229.472 139.047C229.472 147.91 224.731 152.62 220.147 157.178C215.705 161.595 211.509 165.766 211.509 173.254C211.509 177.537 214.896 180.41 218.06 180.41C219.204 180.41 220.226 180.027 221.008 179.303C221.12 179.198 221.187 179.05 221.187 178.897C221.187 178.745 221.124 178.596 221.008 178.492C220.281 177.823 219.54 176.964 219.081 174.592C221.023 173.681 223.311 173.432 225.525 173.191C228.298 172.886 230.914 172.599 232.61 171.031C238.472 165.61 239.065 161.06 239.538 157.398C239.773 155.595 239.978 154.003 240.798 152.632C241.446 153.888 241.938 155.089 242.452 156.346C243.466 158.833 244.517 161.402 246.943 164.77C245.441 169.239 243.913 175.061 243.611 180.128C240.917 178.804 237.92 178.157 234.503 178.157C232.125 178.157 229.557 178.47 226.419 179.139C219.883 180.533 212.914 186.069 206.768 190.95C204.64 192.638 202.628 194.237 200.712 195.616C200.697 195.627 200.678 195.642 200.656 195.653C199.206 196.694 197.365 197.932 195.565 198.75L192.707 199.612C192.547 199.627 192.386 199.638 192.23 199.638C192.014 199.638 191.809 199.624 191.607 199.59C191.309 198.46 190.992 197.322 190.672 196.196C190.664 196.174 190.657 196.151 190.653 196.129C190.042 194.01 189.394 191.92 188.727 189.924C188.719 189.902 188.712 189.879 188.704 189.857C180.572 165.599 170.186 156.141 165.87 153.089C188.022 146.349 222.141 142.244 222.495 142.2C222.581 142.189 222.667 142.17 222.749 142.136C224.053 141.627 224.56 136.828 224.187 134.861C223.8 132.809 222.555 131.634 220.777 131.634C215.481 131.634 200.984 140.01 199.121 141.099C196.955 141.411 180.129 143.861 173.51 145.464V144.542C178.154 136.72 188.011 131.534 188.108 131.481M244.547 188.021H225.361C225.119 187.708 224.877 187.403 224.623 187.113C228.1 184.868 231.436 183.686 234.313 183.686C238.383 183.686 241.811 185.143 244.55 188.021M185.887 188.021H173.95C175.481 184.968 177.99 181.195 181.31 176.972C182.868 180.213 184.411 183.883 185.887 188.021ZM175.344 138.724C173.942 140.24 172.642 141.925 171.591 143.754C171.501 143.91 171.453 144.088 171.453 144.267V146.542C170.398 146.854 169.399 147.148 168.471 147.419C168.673 147.126 168.859 146.899 169.008 146.761C169.157 146.624 169.22 146.419 169.168 146.222C169.116 146.029 168.963 145.873 168.769 145.824C168.166 145.668 167.54 145.445 166.958 145.181C166.079 144.783 165.464 144.363 165.132 144.032C167.514 142.003 171.289 140.218 175.344 138.724ZM144.478 156.215C150.501 151.895 153.885 150.691 157.239 149.84C155.748 151.635 153.806 154.543 153.806 160.141C153.806 161.978 154.179 163.658 154.928 165.25C150.545 167.268 148.641 167.581 147.892 167.581C145.689 167.581 143.494 166.324 141.374 165.112C140.326 164.51 139.246 163.893 138.161 163.42C137.904 163.305 137.617 163.205 137.311 163.108C140.237 159.825 142.592 157.561 144.478 156.212M121.521 231.499C122.099 227.031 126.809 217.48 140.353 204.62C139.958 205.085 139.611 205.531 139.313 205.977C135.739 211.368 136.32 219.279 136.581 221.573C137.017 225.38 138.251 228.986 140.054 231.73C140.554 232.488 141.087 233.157 141.646 233.737C140.49 233.6 139.324 233.005 138.102 232.373C136.465 231.537 134.774 230.667 132.795 230.667C130.816 230.667 129.69 230.878 128.468 231.102C127.141 231.343 125.77 231.596 123.161 231.596C122.609 231.596 122.061 231.563 121.521 231.499ZM144.187 233.161C141.53 231.15 139.309 226.607 138.705 221.335C137.751 212.97 140.293 208.368 141.098 207.156C141.758 206.159 142.786 205.077 144.184 203.642V232.786C144.184 232.908 144.184 233.038 144.184 233.161M130.898 261.996C132.265 262.628 133.54 263.368 134.706 264.2C135.09 264.472 135.459 264.762 135.817 265.056C135.791 265.219 135.802 265.39 135.858 265.557C136.525 267.58 136.857 270.353 134.647 272.093C133.178 273.246 131.852 273.487 130.995 273.487C130.137 273.487 129.388 273.257 128.837 272.852C129.299 272.365 129.735 271.792 130.13 271.134C131.706 268.506 132.422 264.829 130.898 261.996ZM137.054 283.484C135.966 284.068 134.755 284.499 133.469 284.756C132.765 284.882 132.053 284.945 131.349 284.945C129.243 284.945 127.171 284.377 125.348 283.295C123.314 281.756 121.044 279.986 122.49 275.09C122.978 273.435 124.104 272.424 125.915 272.019C126.019 272.625 126.276 273.205 126.686 273.725C127.622 274.911 129.232 275.621 130.998 275.621C132.765 275.621 134.431 274.982 135.97 273.77C137.606 272.484 138.459 270.684 138.5 268.532C140.099 270.621 140.688 272.435 140.688 273.13C140.688 273.35 140.699 273.629 140.714 273.956C140.815 276.268 141.027 281.079 137.054 283.484ZM132.955 244.24L132.433 244.084C130.89 243.619 130.354 243.43 130.219 242.664C133.089 242.656 136.723 242.552 138.485 240.924C139.305 240.165 139.958 239.236 140.651 238.254C141.348 237.266 142.123 236.165 143.189 235.08C143.517 235.306 143.852 235.496 144.187 235.667C144.228 243.117 144.467 251.296 145.537 260.077C143.293 250.538 135.34 244.98 132.951 244.24M144.18 188.021V198.267C127.763 212.498 120.671 224.056 119.49 230.577C113.255 228.771 111 222.424 111 216.87C111 209.542 124.838 198.609 135.955 189.824C136.395 189.478 136.492 188.853 136.175 188.389C135.862 187.928 135.243 187.783 134.759 188.061C133.395 188.838 131.807 189.214 129.899 189.214C128.281 189.214 126.638 188.946 125.188 188.708C123.929 188.5 122.743 188.303 121.715 188.303C120.205 188.303 119.192 188.716 118.118 189.154C116.579 189.783 114.664 190.564 110.068 190.564C105.473 190.564 99.8794 186.98 95.4445 184.102C94.0097 183.169 92.6717 182.303 91.4643 181.615C92.8096 181.046 94.0469 180.213 95.2619 179.399C97.4793 177.905 99.5775 176.496 102.309 176.496H105.268C105.35 181.098 106.834 182.976 108.034 184.492C108.932 185.634 109.58 186.455 109.58 188.314C109.58 188.623 109.714 188.92 109.949 189.125C110.188 189.326 110.501 189.415 110.806 189.37C111.082 189.329 117.589 188.318 121.972 183.013C122.941 181.838 124.324 180.046 125.93 177.968C126.396 177.362 126.888 176.73 127.391 176.076C130.588 176.905 132.742 176.704 133.872 175.51C134.598 174.745 134.583 173.89 134.576 173.726C134.55 173.25 134.207 172.849 133.741 172.744C133.726 172.741 131.993 172.317 130.558 170.64C130.149 170.157 129.813 169.644 129.534 169.071C128.557 167.064 128.3 165.383 128.24 164.413C129.876 164.376 133.201 164.376 135.69 164.9C136.335 165.038 136.875 165.197 137.297 165.383C138.277 165.807 139.261 166.372 140.304 166.971C142.667 168.328 145.112 169.722 147.884 169.722C149.465 169.722 152.025 168.919 155.513 167.335C156.221 168.38 157 169.261 157.708 170.06C158.651 171.131 159.467 172.057 159.736 172.942C159.888 173.451 160.395 173.767 160.917 173.689C161.394 173.618 161.763 173.235 161.819 172.767C162.117 172.198 163.995 170.633 165.374 169.484C168.673 166.733 171.006 164.681 171.628 162.907C174.315 165.777 176.879 169.161 179.283 173.023C179.603 173.618 179.924 174.232 180.248 174.856C177.132 178.752 173.536 183.715 171.561 188.024H144.18V188.021ZM128.274 174.094C128.662 173.596 129.053 173.094 129.455 172.581C130.298 173.41 131.166 173.956 131.867 174.298C131.58 174.391 131.203 174.443 130.763 174.443C130.078 174.443 129.243 174.328 128.274 174.094ZM173.67 286.629C173.152 285.886 172.571 285.046 172.571 284.068C172.519 283.257 172.534 280.997 173.208 280.283C173.335 280.149 173.476 280.083 173.64 280.083C173.994 280.083 174.244 280.175 174.386 280.354C174.635 280.666 174.516 281.176 174.516 281.179L174.438 281.503H174.773C175.325 281.503 175.839 280.789 175.858 280.001C175.865 279.547 175.683 278.086 173.044 277.889C173.044 277.856 173.044 277.822 173.044 277.789C173.044 276.227 172.53 274.841 171.766 274.331L171.62 274.235L171.475 274.331C170.711 274.841 170.197 276.227 170.197 277.789C170.197 277.822 170.197 277.856 170.197 277.889C167.558 278.086 167.376 279.547 167.383 280.001C167.398 280.789 167.916 281.503 168.468 281.503H168.803L168.725 281.179C168.725 281.179 168.605 280.666 168.855 280.354C168.997 280.175 169.247 280.083 169.604 280.083C169.768 280.083 169.91 280.149 170.037 280.283C170.707 280.993 170.722 283.257 170.674 284.087C170.674 285.046 170.092 285.886 169.574 286.629C169.165 287.221 168.81 287.726 168.81 288.221V288.377H163.556V269.881C163.556 269.004 164.249 267.647 165.132 266.788L165.553 266.442C166.157 266.026 166.645 266.041 166.899 266.383H194.026C194.294 266.208 194.544 266.119 194.764 266.119C195.103 266.119 195.465 266.342 195.465 266.978V285.325L192.319 288.377H187.225V288.221C187.225 287.726 186.871 287.221 186.461 286.629C185.946 285.886 185.361 285.046 185.361 284.068C185.309 283.257 185.328 280.997 185.999 280.283C186.125 280.149 186.267 280.083 186.431 280.083C186.781 280.083 187.035 280.175 187.176 280.354C187.422 280.666 187.307 281.176 187.307 281.179L187.228 281.503H187.564C188.115 281.503 188.63 280.789 188.648 280.001C188.659 279.547 188.473 278.086 185.835 277.889C185.835 277.856 185.835 277.822 185.835 277.789C185.835 276.227 185.32 274.841 184.553 274.331L184.407 274.235L184.262 274.331C183.494 274.841 182.98 276.227 182.98 277.789V277.889C180.341 278.086 180.159 279.547 180.166 280.001C180.181 280.789 180.699 281.503 181.251 281.503H181.586L181.504 281.179C181.504 281.179 181.388 280.666 181.634 280.354C181.776 280.175 182.029 280.083 182.384 280.083C182.547 280.083 182.689 280.149 182.816 280.283C183.487 280.993 183.505 283.257 183.453 284.087C183.453 285.046 182.868 285.886 182.354 286.629C181.944 287.221 181.59 287.726 181.59 288.221V288.377H174.438V288.221C174.438 287.726 174.084 287.221 173.674 286.629M216.048 354.682C198.945 344.533 185 332.566 174.539 319.07L216.048 273.889L257.553 319.07C247.1 332.562 233.15 344.533 216.048 354.682ZM223.732 251.999C223.218 251.255 222.633 250.415 222.629 249.437C222.581 248.627 222.596 246.363 223.27 245.653C223.397 245.519 223.539 245.452 223.703 245.452C224.057 245.452 224.306 245.545 224.448 245.723C224.698 246.036 224.578 246.545 224.578 246.549L224.5 246.872H224.836C225.387 246.872 225.901 246.155 225.92 245.37C225.931 244.917 225.749 243.456 223.106 243.259C223.106 243.225 223.106 243.192 223.106 243.158C223.106 241.574 222.603 240.214 221.824 239.697L221.679 239.604L221.534 239.697C220.77 240.21 220.255 241.597 220.255 243.158C220.255 243.192 220.255 243.225 220.255 243.259C217.617 243.456 217.434 244.913 217.442 245.37C217.457 246.155 217.975 246.872 218.526 246.872H218.862L218.783 246.549C218.783 246.549 218.668 246.036 218.914 245.723C219.055 245.545 219.305 245.452 219.659 245.452C219.823 245.452 219.965 245.519 220.091 245.653C220.762 246.363 220.781 248.627 220.729 249.456C220.729 250.415 220.144 251.255 219.629 251.999C219.219 252.59 218.865 253.099 218.865 253.59V253.746H211.713V253.59C211.713 253.099 211.359 252.59 210.946 251.999C210.431 251.255 209.846 250.415 209.846 249.437C209.794 248.627 209.813 246.363 210.484 245.653C210.61 245.519 210.752 245.452 210.916 245.452C211.27 245.452 211.516 245.545 211.661 245.723C211.911 246.036 211.792 246.545 211.792 246.549L211.713 246.872H212.049C212.6 246.872 213.118 246.155 213.133 245.37C213.141 244.917 212.958 243.456 210.32 243.259C210.32 243.225 210.32 243.192 210.32 243.158C210.32 241.574 209.817 240.214 209.041 239.697L208.896 239.604L208.751 239.697C207.976 240.214 207.472 241.574 207.472 243.158C207.472 243.192 207.472 243.225 207.472 243.259C204.83 243.456 204.651 244.917 204.659 245.37C204.674 246.155 205.192 246.872 205.743 246.872H206.075L206 246.549C206 246.549 205.881 246.036 206.131 245.723C206.272 245.545 206.526 245.452 206.876 245.452C207.04 245.452 207.182 245.519 207.308 245.653C207.979 246.363 207.998 248.627 207.946 249.456C207.946 250.415 207.361 251.255 206.846 251.999C206.436 252.59 206.082 253.099 206.082 253.59V253.746H200.831V235.251C200.831 234.373 201.521 233.016 202.404 232.161L202.829 231.812C203.429 231.392 203.921 231.406 204.174 231.752H231.302C231.57 231.577 231.82 231.484 232.043 231.484C232.382 231.484 232.744 231.711 232.744 232.347V250.694L229.598 253.746H224.504V253.59C224.504 253.099 224.15 252.59 223.74 251.999M270.023 285.325L266.874 288.377H261.779V288.221C261.779 287.726 261.425 287.221 261.015 286.629C260.501 285.886 259.916 285.046 259.916 284.068C259.864 283.257 259.883 280.997 260.553 280.283C260.68 280.149 260.822 280.083 260.986 280.083C261.34 280.083 261.589 280.175 261.731 280.354C261.977 280.666 261.865 281.176 261.861 281.179L261.783 281.503H262.119C262.666 281.503 263.184 280.789 263.199 280.001C263.211 279.547 263.028 278.086 260.386 277.889C260.386 277.856 260.386 277.822 260.386 277.789C260.386 276.227 259.871 274.841 259.104 274.331L258.958 274.235L258.813 274.331C258.045 274.841 257.531 276.227 257.531 277.789C257.531 277.822 257.531 277.856 257.531 277.889C254.892 278.086 254.71 279.547 254.717 280.001C254.732 280.789 255.25 281.503 255.802 281.503H256.133L256.059 281.179C256.059 281.179 255.94 280.666 256.189 280.354C256.331 280.175 256.584 280.083 256.935 280.083C257.099 280.083 257.24 280.149 257.367 280.283C258.038 280.993 258.056 283.257 258.004 284.087C258.004 285.046 257.419 285.886 256.905 286.629C256.495 287.221 256.137 287.726 256.137 288.221V288.377H248.985V288.221C248.985 287.726 248.631 287.221 248.221 286.629C247.703 285.886 247.122 285.046 247.122 284.068C247.073 283.257 247.088 280.997 247.759 280.283C247.89 280.149 248.028 280.083 248.195 280.083C248.549 280.083 248.799 280.175 248.941 280.354C249.19 280.666 249.071 281.176 249.071 281.179L248.989 281.503H249.324C249.876 281.503 250.39 280.789 250.409 280.001C250.42 279.547 250.234 278.086 247.595 277.889C247.595 277.856 247.595 277.822 247.595 277.789C247.595 276.227 247.081 274.841 246.317 274.331L246.172 274.235L246.026 274.331C245.259 274.841 244.748 276.227 244.748 277.789C244.748 277.822 244.748 277.856 244.748 277.889C242.106 278.086 241.923 279.547 241.934 280.001C241.953 280.789 242.467 281.503 243.019 281.503H243.354L243.272 281.179C243.272 281.179 243.157 280.666 243.403 280.354C243.544 280.175 243.794 280.083 244.148 280.083C244.312 280.083 244.454 280.149 244.58 280.283C245.251 280.993 245.27 283.257 245.218 284.087C245.218 285.046 244.632 285.886 244.118 286.629C243.708 287.221 243.354 287.726 243.354 288.221V288.377H238.103V269.881C238.103 269.004 238.796 267.647 239.679 266.792L240.104 266.442C240.704 266.026 241.193 266.041 241.45 266.383H268.577C268.845 266.208 269.095 266.119 269.319 266.119C269.658 266.119 270.019 266.342 270.019 266.978V285.325H270.023ZM279.858 269.539L216.055 200.088L152.252 269.539C149.588 255.984 149.345 243.548 149.345 232.786V193.158H183.297C182.07 194.452 180.68 196.255 178.88 199.088L178.571 199.575L199.598 210.583L199.873 210.267C199.978 210.145 208.643 200.267 216.603 193.158H260.844C260.374 195.657 259.461 197.616 258.135 198.943C257.345 198.315 256.458 197.817 255.582 197.33C254.035 196.467 252.574 195.657 251.743 194.199C251.594 193.947 251.344 193.764 251.054 193.705C250.763 193.646 250.461 193.712 250.226 193.887C248.501 195.181 247.379 196.382 246.678 197.475C246.671 197.486 246.66 197.497 246.652 197.508C246.645 197.519 246.641 197.527 246.637 197.534C246.145 198.315 245.87 199.036 245.743 199.694C245.586 200.386 245.598 201.021 245.777 201.627C245.806 201.746 245.84 201.862 245.873 201.969C245.9 202.051 245.963 202.155 246.037 202.267C246.656 203.475 247.979 204.628 250.062 205.988C252.019 207.271 255.276 208.1 258.355 208.1C263.479 208.1 267.347 205.895 269.278 201.966C270.083 209.531 272.513 231.998 280.809 237.511C280.902 237.574 281.006 237.604 281.114 237.604C281.215 237.604 281.312 237.578 281.401 237.522C281.856 237.251 282.307 236.976 282.75 236.7C282.668 246.523 282.202 257.594 279.854 269.539M256.696 200.442C254.717 202.308 252.612 203.278 251.337 203.278C250.062 203.278 248.818 202.672 248.042 201.769C247.96 201.627 247.886 201.479 247.834 201.319C247.357 199.902 248.344 198.107 250.625 196.2C251.736 197.545 253.23 198.378 254.576 199.129C255.343 199.557 256.074 199.969 256.7 200.442M267.634 156.524C269.263 156.654 270.5 157.13 271.898 157.669C273.877 158.431 276.124 159.294 279.981 159.294C282.452 159.294 285.281 158.037 288.601 155.461C291.814 157.546 294.624 159.495 296.975 161.26C296.707 161.42 296.443 161.576 296.167 161.744C293.387 163.409 290.513 165.134 287.084 165.134C276.519 165.134 269.438 159.476 267.638 156.524M300.274 267.316C297.997 267.316 296.342 265.873 295.246 264.416C295.872 263.557 296.867 262.609 298.209 261.591C298.999 263.58 300.017 265.907 301.846 267.29C301.381 267.305 300.863 267.316 300.274 267.316ZM309.013 260.457C309.013 264.245 308.491 265.65 305.428 266.357C302.584 266.294 301.392 263.832 300.028 260.375C299.908 260.077 299.797 259.791 299.681 259.512C299.562 259.211 299.443 258.932 299.32 258.665C301.112 258.602 302.525 258.022 303.777 257.505C304.205 257.326 304.623 257.159 305.037 257.018C305.286 256.932 305.532 256.85 305.778 256.791C306.363 256.65 306.889 256.62 307.351 256.65H307.448C308.473 256.732 309.013 259.17 309.013 260.457ZM313.377 228.968C318.546 226.324 321.475 223.272 323.007 220.227C322.474 225.588 320.29 231.838 316.534 238.578C316.437 238.749 316.362 238.886 316.31 238.979C315.375 240.723 314.432 242.82 313.522 244.846C312.166 247.872 310.765 250.999 309.803 251.887C309.158 252.482 307.299 253.531 305.327 254.642L305.13 254.754C305.033 254.78 304.94 254.813 304.843 254.839C304.772 254.862 304.697 254.88 304.623 254.902C304.496 254.943 304.373 254.988 304.25 255.033C304.187 255.055 304.12 255.077 304.056 255.099C303.926 255.148 303.796 255.196 303.669 255.248C303.613 255.27 303.557 255.293 303.501 255.315C303.449 255.337 303.397 255.356 303.348 255.378C303.222 255.427 303.099 255.479 302.972 255.531C301.716 256.047 300.527 256.534 299.003 256.534C298.518 256.534 298.015 256.486 297.505 256.386C297.035 256.293 296.562 256.523 296.346 256.947C296.126 257.375 296.223 257.891 296.569 258.215C296.633 258.274 296.696 258.349 296.759 258.431C296.774 258.453 296.793 258.479 296.811 258.501C296.86 258.572 296.908 258.642 296.957 258.724C296.972 258.747 296.987 258.769 297.002 258.795C297.061 258.895 297.124 259.007 297.18 259.122C297.192 259.148 297.203 259.17 297.218 259.193C297.262 259.289 297.311 259.386 297.359 259.49C297.37 259.505 297.378 259.527 297.385 259.542C296.182 260.427 295.205 261.263 294.445 262.066C293.349 259.828 292.85 257.408 292.85 256.189C292.85 254.378 292.85 251.01 304.153 242.281C304.552 241.972 304.682 241.429 304.463 240.976C304.284 240.6 303.904 240.37 303.497 240.37C303.412 240.37 303.33 240.377 303.244 240.4C302.417 240.6 301.619 240.701 300.874 240.701C298.775 240.701 297.713 239.927 297.356 239.597C297.087 239.351 296.7 238.883 296.249 238.336C295.358 237.258 294.251 235.909 292.921 234.838C293.625 234.492 294.396 234.05 295.242 233.563C296.763 232.685 298.492 231.689 300.05 231.191C301.448 230.745 302.223 230.689 303.509 230.596C305.26 230.47 307.664 230.299 313.139 229.061C313.228 229.038 313.31 229.008 313.392 228.968M303.725 213.323C305.048 214.833 306.259 216.149 307.329 217.309C311.104 221.398 313.187 223.67 313.001 226.759C312.848 226.841 312.691 226.927 312.535 227.008C307.314 228.183 305.029 228.347 303.359 228.466C302.018 228.562 301.049 228.633 299.405 229.157C297.628 229.726 295.794 230.782 294.177 231.711C292.753 232.533 291.139 233.462 290.435 233.462C289.928 233.462 289.492 233.816 289.388 234.31C289.283 234.804 289.54 235.306 290.003 235.507C291.803 236.303 293.42 238.258 294.598 239.689C295.097 240.295 295.529 240.82 295.902 241.165C296.435 241.656 297.512 242.411 299.294 242.708C294.344 245.385 289.153 249.958 287.017 256.025C287.815 247.738 287.934 240.02 287.938 233.005C291.646 229.797 294.154 225.755 294.154 219.339C294.154 213.509 291.225 207.29 288.87 202.297C288.549 201.609 288.236 200.947 287.938 200.304V197.88C291.009 201.278 293.346 203.338 295.619 205.338C298.112 207.531 300.471 209.602 303.725 213.323ZM303.21 171.391C304.31 170.778 305.104 170.016 305.666 169.294C306.177 169.964 306.628 170.629 307.03 171.332C305.674 171.343 304.384 171.365 303.21 171.395M338.302 160.855C335.902 162.011 333.826 163.011 330.599 163.011C326.421 163.011 320.264 160.963 320.205 160.944C319.724 160.785 319.198 160.978 318.941 161.409C318.684 161.84 318.762 162.394 319.135 162.736C322.512 165.859 324.774 169.298 325.709 172.73C325.538 172.707 325.374 172.674 325.199 172.652C316.813 171.614 311.521 171.388 309.46 171.339C308.812 170.045 308.093 168.915 307.187 167.763C307.694 166.618 307.884 165.547 307.884 164.859C307.884 163.595 308.64 161.87 310.772 160.814C311.089 160.658 311.305 160.357 311.353 160.011C311.406 159.666 311.283 159.312 311.022 159.074C310.731 158.807 310.336 158.439 303.158 158.439C301.5 158.439 299.935 159.071 298.571 159.777C296.346 158.093 293.789 156.297 290.793 154.334C291.982 153.301 293.088 152.256 294.091 151.308C295.515 149.962 296.99 148.568 297.605 148.338C298.09 148.155 298.377 147.654 298.284 147.148C298.19 146.639 297.747 146.271 297.233 146.271C295.671 146.271 293.662 145.051 291.538 143.761C288.504 141.921 285.061 139.835 281.032 139.835C277.223 139.835 274.693 140.397 272.46 140.891C270.698 141.281 269.173 141.62 267.31 141.62C264.884 141.62 262.23 140.125 260.866 138.646C260.408 138.147 260.21 137.779 260.136 137.571C261.183 137.906 263.412 138.396 268.484 138.396C279.959 138.396 288.534 128.295 288.534 119.261C288.534 113.525 284.438 107.632 280.969 103.673C280.391 102.624 279.657 101.16 279.657 100.126C279.657 97.9625 280.168 95.0106 280.615 92.4082C280.794 91.3747 280.961 90.4118 281.077 89.5902C282.284 90.211 283.853 90.7984 285.575 91.4416C288.832 92.661 292.522 94.0403 294.594 95.9586C297.758 98.8808 299.059 102.476 298.257 106.06L298.205 106.275C298.075 106.848 298.433 107.417 299.007 107.55C299.577 107.684 300.151 107.335 300.292 106.762L300.341 106.562C301.749 100.688 305.916 98.6726 308.961 97.2003C309.483 96.9475 309.975 96.7096 310.422 96.4679C310.571 97.1669 310.776 97.9811 311.007 98.8808C311.7 101.617 312.65 105.368 312.14 106.881C311.182 109.699 309.065 113.618 306.866 115.648C305.558 116.856 305.245 118.466 304.943 120.02C304.586 121.864 304.213 123.767 302.264 125.567L293.159 133.98C292.772 134.337 292.701 134.924 292.999 135.363C293.297 135.798 293.867 135.954 294.344 135.727C296.677 134.623 299.066 133.597 301.589 132.511C310.899 128.511 320.521 124.377 327.025 116.209C330.658 111.644 332.786 105.606 332.775 100.074C339.815 103.446 343.769 109.391 344.071 113.811C344.071 113.819 344.075 113.83 344.075 113.845V113.945C344.075 113.945 344.079 113.978 344.079 113.993C344.086 114.116 344.093 114.242 344.093 114.365C344.075 126.901 337.586 137.054 305.961 145.869C305.446 146.014 305.115 146.516 305.189 147.044C305.26 147.572 305.715 147.966 306.251 147.966C314.387 147.966 314.682 148.947 314.819 149.419C315.039 150.156 315.401 150.97 316.947 151.308C317.689 151.468 318.461 151.542 319.374 151.542C320.048 151.542 320.723 151.501 321.379 151.461C322.038 151.42 322.717 151.379 323.399 151.379C324.83 151.379 325.992 151.565 327.17 151.977C328.933 152.598 331.106 154.628 333.211 156.591C334.888 158.156 336.606 159.762 338.306 160.848C338.306 160.848 338.303 160.848 338.298 160.848" fill="black"/>
<path d="M632.325 412.865V400.15L631.505 380L632.176 379.851L638.288 412.865H649.766L655.729 379.851L656.4 380L655.729 400.15V412.865H666.537V360.816H650.214L644.325 397.25H643.729L637.841 360.816H621.517V412.865H632.325ZM688.003 414.203C698.886 414.203 703.507 407.734 703.507 396.507V360.816H691.879V399.778C691.879 402.975 690.761 405.132 688.003 405.132C685.096 405.132 683.978 402.975 683.978 399.778V360.816H672.351V396.507C672.351 407.734 676.972 414.203 688.003 414.203ZM720.128 412.865V400.15L719.309 380L719.979 379.851L726.091 412.865H737.57L743.533 379.851L744.204 380L743.533 400.15V412.865H754.341V360.816H738.017L732.129 397.25H731.532L725.644 360.816H709.321V412.865H720.128ZM774.913 412.865C785.72 412.865 792.354 407.808 792.354 397.994C792.354 390.335 788.404 387.212 781.546 386.246L779.906 386.023V385.725L781.546 385.502C787.584 384.61 790.565 380.223 790.565 373.457C790.565 365.724 784.379 360.816 775.583 360.816H760.751V412.865H774.913ZM772.378 369.888H774.838C777.298 369.888 779.236 371.672 779.236 375.762C779.236 379.851 777.298 381.338 774.838 381.338H772.378V369.888ZM772.378 390.409H775.285C777.969 390.409 780.279 392.491 780.279 396.73C780.279 401.34 778.192 403.793 775.285 403.793H772.378V390.409ZM828.579 412.865L819.262 360.816H803.236L793.994 412.865H806.367L807.634 401.34H815.386L816.802 412.865H828.579ZM810.988 369.739H811.584L814.342 392.566H808.528L810.988 369.739ZM843.78 412.865V360.816H832.153V412.865H843.78Z" fill="black"/>
</svg>
